M48
; DRILL file {KiCad (5.1.4)-1} date 8/25/2020 11:55:18 PM
; FORMAT={-:-/ absolute / inch / decimal}
; #@! TF.CreationDate,2020-08-25T23:55:18+08:00
; #@! TF.GenerationSoftware,Kicad,Pcbnew,(5.1.4)-1
FMAT,2
INCH
T1C0.0157
T2C0.0236
T3C0.0354
T4C0.0394
T5C0.0409
T6C0.0579
T7C0.0256
T8C0.0689
T9C0.1200
T10C0.1570
%
G90
G05
T1
X-0.2104Y-2.7592
X-0.1474Y-2.7592
X0.2736Y-1.0087
X0.4362Y-0.2591
X1.0433Y-3.3433
X1.3244Y-2.5929
X5.4042Y-1.5696
X5.43Y-1.704
X5.4873Y-1.651
X5.5162Y-1.6227
X5.5177Y-1.0716
X5.6397Y-0.4315
X5.6822Y-2.5038
X5.7315Y-1.7845
X5.7536Y-3.2355
X5.7606Y-2.1172
X5.7716Y-3.2719
X5.7735Y-2.559
X5.7735Y-2.4731
X5.7742Y-2.2578
X5.7744Y-0.9903
X5.7898Y-2.1459
X5.793Y-2.593
X5.7957Y-1.4879
X5.8111Y-2.6276
X5.8233Y-0.9658
X5.8354Y-1.5026
X5.8629Y-2.0881
X5.8732Y-2.1797
X5.9192Y-1.2699
X5.9196Y-1.3136
X5.9314Y-1.2028
X5.9649Y-0.9768
X5.9782Y-0.2031
X6.0007Y-1.4022
X6.0228Y-1.7717
X6.0228Y-1.8988
X6.0255Y-2.2782
X6.0255Y-2.3664
X6.0429Y-2.5804
X6.0479Y-2.0975
X6.0724Y-1.7059
X6.087Y0.2418
X6.1282Y-0.0906
X6.1542Y-0.3197
X6.1677Y-1.415
X6.1894Y0.2465
X6.1896Y0.2856
X6.2146Y-1.6646
X6.2882Y0.2722
X6.2883Y0.231
X6.3252Y-1.8004
X6.3386Y-1.9937
X6.3555Y0.2466
X6.3557Y0.2856
X6.3642Y0.0985
X6.3752Y-1.932
X6.4317Y-0.8949
X6.4617Y0.2419
X6.5203Y-1.9251
X6.598Y-0.9
X10.6195Y-2.5931
X10.8301Y-1.8431
X11.9476Y-0.2811
X12.0498Y-1.8431
X12.1624Y-1.0931
T3
X-0.3366Y-3.3709
X-0.2366Y-3.3709
X-0.3366Y-3.1937
X-0.2366Y-3.1937
X-0.3366Y-3.0165
X-0.2366Y-3.0165
T4
X5.507Y-1.2668
X5.507Y-1.3668
X5.507Y-1.4668
X5.507Y-1.5668
X5.607Y-1.2668
X5.607Y-1.3668
X5.607Y-1.4668
X5.607Y-1.5668
T5
X9.7886Y-0.2
X9.8886Y-0.2
X1.161Y-2.5343
X1.261Y-2.5343
X5.1087Y-1.4644
X5.2065Y-1.4852
X2.1413Y-1.0343
X2.2413Y-1.0343
X8.8131Y-1.0954
X8.911Y-1.0746
X4.2654Y-3.5856
X4.3632Y-3.6064
X1.1803Y-0.2843
X1.2803Y-0.2843
X8.208Y-2.7576
X8.3058Y-2.7368
X3.6414Y-1.1526
X3.7392Y-1.1733
X9.1525Y-1.7903
X9.2503Y-1.7695
X8.0797Y-1.2513
X8.1775Y-1.2305
X11.8622Y-2.5343
X11.9622Y-2.5343
X0.274Y-0.2
X0.374Y-0.2
X7.5399Y-3.6667
X7.6377Y-3.6459
X8.9415Y-2.6017
X9.0393Y-2.5809
X10.6669Y-1.7843
X10.7669Y-1.7843
X3.669Y-1.9254
X3.7668Y-1.9462
X9.9169Y-1.7843
X10.0169Y-1.7843
X0.1102Y-0.95
X0.2102Y-0.95
X3.1461Y-2.5809
X3.2439Y-2.6017
X1.2039Y-1.0343
X1.3039Y-1.0343
X6.7407Y-3.0694
X6.8385Y-3.0486
X0.95Y-1.7843
X1.05Y-1.7843
X4.8981Y-0.653
X4.9959Y-0.6737
X11.9988Y-1.0343
X12.0988Y-1.0343
X7.6852Y-2.1021
X7.783Y-2.0813
X0.8799Y-3.2843
X0.9799Y-3.2843
X2.9079Y-0.9967
X3.0058Y-1.0174
X10.311Y-1.0343
X10.411Y-1.0343
X11.4874Y-2.5343
X11.5874Y-2.5343
X4.4028Y-2.0813
X4.5006Y-2.1021
X6.9517Y-2.258
X7.0495Y-2.2372
X11.8854Y-1.7843
X11.9854Y-1.7843
X4.1642Y-0.497
X4.262Y-0.5178
X9.5776Y-0.9925
X9.6776Y-0.9925
X5.6316Y-0.8089
X5.7294Y-0.8296
X9.1309Y-3.3887
X9.2287Y-3.3679
X7.4742Y-2.9135
X7.572Y-2.8927
X2.9355Y-1.7695
X3.0333Y-1.7903
X11.272Y-0.2843
X11.372Y-0.2843
X2.9568Y-3.3679
X3.0546Y-3.3887
X12.5185Y-2.5343
X12.6185Y-2.5343
X8.2907Y-0.4399
X8.3885Y-0.4191
X2.3795Y-2.5343
X2.4795Y-2.5343
X9.7059Y-2.5343
X9.8059Y-2.5343
X2.6642Y-0.2
X2.7642Y-0.2
X5.3469Y-3.0486
X5.4447Y-3.0694
X6.8234Y-0.7517
X6.9212Y-0.7309
X5.4583Y-3.8392
X5.5561Y-3.86
X12.022Y-0.2843
X12.122Y-0.2843
X2.1689Y-1.7843
X2.2689Y-1.7843
X10.4559Y-2.5343
X10.5559Y-2.5343
X1.1374Y-1.7843
X1.2374Y-1.7843
X3.4308Y-0.3411
X3.5286Y-0.3619
X4.6134Y-2.8927
X4.7113Y-2.9135
X10.522Y-0.2843
X10.622Y-0.2843
X-0.05Y-1.7
X0.05Y-1.7
X8.4191Y-1.9462
X8.5169Y-1.9254
X5.5493Y-3.8585
X5.6471Y-3.8793
X11.061Y-1.0343
X11.161Y-1.0343
X4.3556Y-3.6049
X4.4534Y-3.6257
X6.6124Y-1.5631
X6.7102Y-1.5423
X12.1862Y-3.2862
X12.2862Y-3.2862
X9.0242Y-0.284
X9.122Y-0.2632
X3.8796Y-2.7368
X3.9774Y-2.7576
X5.1363Y-2.2372
X5.2341Y-2.258
X1.9303Y-0.2843
X2.0303Y-0.2843
X7.3458Y-1.4072
X7.4436Y-1.3864
X4.3753Y-1.3085
X4.4731Y-1.3293
X11.6472Y-0.2843
X11.7472Y-0.2843
X7.5568Y-0.5958
X7.6547Y-0.575
T6
X11.8988Y-0.7343
X12.1488Y-0.6343
X7.525Y-1.8294
X7.7488Y-1.6796
X0.7799Y-2.9843
X1.0299Y-2.8843
X2.8725Y-0.6824
X3.1378Y-0.6366
X10.211Y-0.7343
X10.461Y-0.6343
X11.3874Y-2.2343
X11.6374Y-2.1343
X4.3674Y-1.7671
X4.6327Y-1.7212
X6.7915Y-1.9853
X7.0153Y-1.8355
X11.7854Y-1.4843
X12.0354Y-1.3843
X4.1288Y-0.1828
X4.3941Y-0.137
X9.4776Y-0.6925
X9.7276Y-0.5925
X5.5961Y-0.4946
X5.8614Y-0.4488
X8.9707Y-3.116
X9.1944Y-2.9663
X7.314Y-2.6409
X7.5377Y-2.4911
X2.9001Y-1.4553
X3.1654Y-1.4094
X11.172Y0.0157
X11.422Y0.1157
X2.9213Y-3.0537
X3.1866Y-3.0078
X12.4185Y-2.2343
X12.6685Y-2.1343
X8.1305Y-0.1672
X8.3543Y-0.0174
X2.2795Y-2.2343
X2.5295Y-2.1343
X9.6059Y-2.2343
X9.8559Y-2.1343
X2.5642Y0.1
X2.8142Y0.2
X5.3115Y-2.7344
X5.5768Y-2.6885
X6.6632Y-0.479
X6.8869Y-0.3292
X5.4229Y-3.5249
X5.6882Y-3.4791
X11.922Y0.0157
X12.172Y0.1157
X2.0689Y-1.4843
X2.3189Y-1.3843
X10.3559Y-2.2343
X10.6059Y-2.1343
X1.0374Y-1.4843
X1.2874Y-1.3843
X3.3953Y-0.0269
X3.6607Y0.0189
X4.578Y-2.5785
X4.8433Y-2.5326
X10.422Y0.0157
X10.672Y0.1157
X-0.15Y-1.4
X0.1Y-1.3
X8.2589Y-1.6735
X8.4826Y-1.5237
X5.5138Y-3.5442
X5.7792Y-3.4984
X10.961Y-0.7343
X11.211Y-0.6343
X4.3201Y-3.2907
X4.5855Y-3.2448
X6.4522Y-1.2905
X6.6759Y-1.1407
X12.0862Y-2.9862
X12.3362Y-2.8862
X8.864Y-0.0113
X9.0877Y0.1385
X3.8441Y-2.4226
X4.1095Y-2.3767
X5.1008Y-1.923
X5.3662Y-1.8771
X1.8303Y0.0157
X2.0803Y0.1157
X7.1856Y-1.1346
X7.4094Y-0.9848
X4.3398Y-0.9942
X4.6051Y-0.9484
X11.5472Y0.0157
X11.7972Y0.1157
X7.3967Y-0.3231
X7.6204Y-0.1733
X9.6886Y0.1
X9.9386Y0.2
X1.061Y-2.2343
X1.311Y-2.1343
X5.0733Y-1.1501
X5.3386Y-1.1043
X2.0413Y-0.7343
X2.2913Y-0.6343
X8.653Y-0.8227
X8.8767Y-0.6729
X4.23Y-3.2714
X4.4953Y-3.2256
X1.0803Y0.0157
X1.3303Y0.1157
X8.0478Y-2.4849
X8.2716Y-2.3352
X3.606Y-0.8383
X3.8713Y-0.7925
X8.9923Y-1.5176
X9.2161Y-1.3678
X7.9195Y-0.9786
X8.1432Y-0.8289
X11.7622Y-2.2343
X12.0122Y-2.1343
X0.174Y0.1
X0.424Y0.2
X7.3797Y-3.394
X7.6035Y-3.2442
X8.7813Y-2.329
X9.0051Y-2.1792
X10.5669Y-1.4843
X10.8169Y-1.3843
X3.6335Y-1.6112
X3.8988Y-1.5653
X9.8169Y-1.4843
X10.0669Y-1.3843
X0.0102Y-0.65
X0.2602Y-0.55
X3.1107Y-2.2667
X3.376Y-2.2208
X1.1039Y-0.7343
X1.3539Y-0.6343
X6.5805Y-2.7968
X6.8043Y-2.647
X0.85Y-1.4843
X1.1Y-1.3843
X4.8627Y-0.3387
X5.128Y-0.2929
T7
X6.1606Y0.4146
X6.3882Y0.4146
T8
X2.2295Y-2.3343
X2.6295Y-2.3343
X9.5559Y-2.3343
X9.9559Y-2.3343
X2.5142Y0.0
X2.9142Y0.0
X5.2418Y-2.8218
X5.633Y-2.905
X6.6351Y-0.5873
X7.0263Y-0.5041
X5.3532Y-3.6124
X5.7444Y-3.6955
X11.872Y-0.0843
X12.272Y-0.0843
X2.0189Y-1.5843
X2.4189Y-1.5843
X10.3059Y-2.3343
X10.7059Y-2.3343
X0.9874Y-1.5843
X1.3874Y-1.5843
X3.3256Y-0.1143
X3.7169Y-0.1975
X4.5083Y-2.6659
X4.8996Y-2.7491
X10.372Y-0.0843
X10.772Y-0.0843
X-0.2Y-1.5
X0.2Y-1.5
X8.2307Y-1.7817
X8.622Y-1.6986
X5.4441Y-3.6316
X5.8354Y-3.7148
X10.911Y-0.8343
X11.311Y-0.8343
X4.2504Y-3.3781
X4.6417Y-3.4613
X6.4241Y-1.3987
X6.8153Y-1.3155
X12.0362Y-3.0862
X12.4362Y-3.0862
X8.8359Y-0.1195
X9.2271Y-0.0364
X3.7744Y-2.51
X4.1657Y-2.5932
X5.0311Y-2.0104
X5.4224Y-2.0936
X1.7803Y-0.0843
X2.1803Y-0.0843
X7.1575Y-1.2428
X7.5488Y-1.1596
X4.2701Y-1.0816
X4.6614Y-1.1648
X11.4972Y-0.0843
X11.8972Y-0.0843
X7.3685Y-0.4313
X7.7598Y-0.3482
X9.6386Y0.0
X10.0386Y0.0
X1.011Y-2.3343
X1.411Y-2.3343
X5.0036Y-1.2376
X5.3948Y-1.3207
X1.9913Y-0.8343
X2.3913Y-0.8343
X8.6248Y-0.931
X9.0161Y-0.8478
X4.1603Y-3.3588
X4.5515Y-3.442
X1.0303Y-0.0843
X1.4303Y-0.0843
X8.0197Y-2.5932
X8.411Y-2.51
X3.5363Y-0.9257
X3.9275Y-1.0089
X8.9642Y-1.6258
X9.3555Y-1.5427
X7.8914Y-1.0869
X8.2826Y-1.0037
X11.7122Y-2.3343
X12.1122Y-2.3343
X0.124Y0.0
X0.524Y0.0
X7.3516Y-3.5022
X7.7429Y-3.419
X8.7532Y-2.4373
X9.1444Y-2.3541
X10.5169Y-1.5843
X10.9169Y-1.5843
X3.5638Y-1.6986
X3.9551Y-1.7817
X9.7669Y-1.5843
X10.1669Y-1.5843
X-0.0398Y-0.75
X0.3602Y-0.75
X3.041Y-2.3541
X3.4322Y-2.4373
X1.0539Y-0.8343
X1.4539Y-0.8343
X6.5524Y-2.905
X6.9437Y-2.8218
X0.8Y-1.5843
X1.2Y-1.5843
X4.793Y-0.4261
X5.1842Y-0.5093
X11.8488Y-0.8343
X12.2488Y-0.8343
X7.4969Y-1.9376
X7.8881Y-1.8545
X0.7299Y-3.0843
X1.1299Y-3.0843
X2.8028Y-0.7698
X3.1941Y-0.853
X10.161Y-0.8343
X10.561Y-0.8343
X11.3374Y-2.3343
X11.7374Y-2.3343
X4.2977Y-1.8545
X4.6889Y-1.9376
X6.7634Y-2.0936
X7.1547Y-2.0104
X11.7354Y-1.5843
X12.1354Y-1.5843
X4.0591Y-0.2702
X4.4504Y-0.3534
X9.4276Y-0.7925
X9.8276Y-0.7925
X5.5264Y-0.582
X5.9177Y-0.6652
X8.9426Y-3.2243
X9.3338Y-3.1411
X7.2859Y-2.7491
X7.6771Y-2.6659
X2.8304Y-1.5427
X3.2216Y-1.6258
X11.122Y-0.0843
X11.522Y-0.0843
X2.8516Y-3.1411
X3.2429Y-3.2243
X12.3685Y-2.3343
X12.7685Y-2.3343
X8.1024Y-0.2754
X8.4937Y-0.1923
T9
X11.4654Y-1.8593
X12.4054Y-1.8593
X3.9292Y-3.591
X4.8486Y-3.7864
X11.2272Y0.1907
X12.1672Y0.1907
X0.741Y-2.0593
X1.681Y-2.0593
X3.839Y-3.5717
X4.7585Y-3.7671
X11.4422Y-2.0593
X12.3822Y-2.0593
X7.1447Y-3.8273
X8.0641Y-3.6319
T10
X0.1602Y-0.75
X3.2366Y-2.3957
X1.2539Y-0.8343
X6.748Y-2.8634
X1.0Y-1.5843
X4.9886Y-0.4677
X12.0488Y-0.8343
X7.6925Y-1.8961
X0.9299Y-3.0843
X2.9984Y-0.8114
X10.361Y-0.8343
X11.5374Y-2.3343
X4.4933Y-1.8961
X6.9591Y-2.052
X11.4654Y-1.2593
X11.9354Y-1.5843
X12.4054Y-1.2593
X4.2547Y-0.3118
X9.6276Y-0.7925
X5.722Y-0.6236
X9.1382Y-3.1827
X7.4815Y-2.7075
X3.026Y-1.5843
X11.322Y-0.0843
X3.0472Y-3.1827
X12.5685Y-2.3343
X8.298Y-0.2339
X2.4295Y-2.3343
X9.7559Y-2.3343
X2.7142Y0.0
X5.4374Y-2.8634
X6.8307Y-0.5457
X5.5488Y-3.6539
X12.072Y-0.0843
X2.2189Y-1.5843
X10.5059Y-2.3343
X1.1874Y-1.5843
X3.5213Y-0.1559
X4.7039Y-2.7075
X10.572Y-0.0843
X0.0Y-1.5
X8.4264Y-1.7402
X5.6398Y-3.6732
X11.111Y-0.8343
X4.0539Y-3.0041
X4.4461Y-3.4197
X4.9734Y-3.1995
X6.6197Y-1.3571
X12.2362Y-3.0862
X9.0315Y-0.078
X3.9701Y-2.5516
X5.2268Y-2.052
X1.9803Y-0.0843
X7.3531Y-1.2012
X4.4657Y-1.1232
X11.2272Y-0.4093
X11.6972Y-0.0843
X12.1672Y-0.4093
X7.5642Y-0.3898
X9.8386Y0.0
X0.741Y-2.6593
X1.211Y-2.3343
X1.681Y-2.6593
X5.1992Y-1.2791
X2.1913Y-0.8343
X8.8205Y-0.8894
X3.9637Y-2.9848
X4.3559Y-3.4004
X4.8832Y-3.1802
X1.2303Y-0.0843
X8.2154Y-2.5516
X3.7319Y-0.9673
X9.1598Y-1.5843
X8.087Y-1.0453
X11.4422Y-2.6593
X11.9122Y-2.3343
X12.3822Y-2.6593
X0.324Y0.0
X7.0199Y-3.2405
X7.5472Y-3.4606
X7.9394Y-3.045
X8.9488Y-2.3957
X10.7169Y-1.5843
X3.7594Y-1.7402
X9.9669Y-1.5843
T2
G00X6.1043Y0.5465
M15
G01X6.1043Y0.5701
M16
G05
G00X6.1043Y0.372
M15
G01X6.1043Y0.4154
M16
G05
G00X6.4445Y0.5465
M15
G01X6.4445Y0.5701
M16
G05
G00X6.4445Y0.372
M15
G01X6.4445Y0.4154
M16
G05
T0
M30
