G04 #@! TF.GenerationSoftware,KiCad,Pcbnew,(5.1.4)-1*
G04 #@! TF.CreationDate,2020-08-25T23:55:16+08:00*
G04 #@! TF.ProjectId,Cordillera,436f7264-696c-46c6-9572-612e6b696361,rev?*
G04 #@! TF.SameCoordinates,Original*
G04 #@! TF.FileFunction,Profile,NP*
%FSLAX46Y46*%
G04 Gerber Fmt 4.6, Leading zero omitted, Abs format (unit mm)*
G04 Created by KiCad (PCBNEW (5.1.4)-1) date 2020-08-25 23:55:16*
%MOMM*%
%LPD*%
G04 APERTURE LIST*
%ADD10C,0.050000*%
G04 APERTURE END LIST*
D10*
X120739991Y7000000D02*
G75*
G02X122739991Y9000000I2000000J0D01*
G01*
X113739991Y9000000D02*
G75*
G02X115739991Y7000000I0J-2000000D01*
G01*
X-8000006Y9000000D02*
X113739991Y9000000D01*
X120739991Y3240000D02*
G75*
G02X115739991Y3240000I-2500000J0D01*
G01*
X120739991Y3240000D02*
X120739991Y7000000D01*
X115739991Y3240000D02*
X115739991Y7000000D01*
X201679991Y7000001D02*
G75*
G02X203679991Y9000001I2000000J0D01*
G01*
X194679991Y9000001D02*
G75*
G02X196679991Y7000001I0J-2000000D01*
G01*
X327240001Y9000001D02*
X203679991Y9000001D01*
X201679991Y4920000D02*
X201679991Y7000001D01*
X196679991Y4920000D02*
X196679991Y7000001D01*
X201679991Y4920000D02*
G75*
G02X196679991Y4920000I-2500000J0D01*
G01*
X154589991Y15170001D02*
X164149993Y15170002D01*
X164149992Y9000001D02*
X164149993Y15170002D01*
X154589992Y9000001D02*
X154589991Y15170001D01*
X194679991Y9000001D02*
X164149992Y9000001D01*
X327239993Y9000003D02*
G75*
G02X328239993Y7999999I-2J-1000002D01*
G01*
X328239993Y7999999D02*
X328239994Y-86339999D01*
X328239992Y-86339997D02*
G75*
G02X327239995Y-87340000I-1000000J-3D01*
G01*
X254049994Y-87340000D02*
X327239995Y-87340000D01*
X159369993Y-107460000D02*
X254049994Y-87340000D01*
X64689996Y-87340002D02*
X159369993Y-107460000D01*
X-8000007Y-87340000D02*
X64689996Y-87340002D01*
X-8000004Y-87340001D02*
G75*
G02X-9000003Y-86339998I2J1000001D01*
G01*
X-9000002Y8000001D02*
X-9000003Y-86339998D01*
X122739991Y9000000D02*
X154589992Y9000001D01*
X-9000003Y7999997D02*
G75*
G02X-8000006Y9000000I1000000J3D01*
G01*
M02*
