G04 #@! TF.GenerationSoftware,KiCad,Pcbnew,(5.1.4)-1*
G04 #@! TF.CreationDate,2020-08-25T23:17:58+08:00*
G04 #@! TF.ProjectId,Cordillera,436f7264-696c-46c6-9572-612e6b696361,rev?*
G04 #@! TF.SameCoordinates,Original*
G04 #@! TF.FileFunction,Legend,Bot*
G04 #@! TF.FilePolarity,Positive*
%FSLAX46Y46*%
G04 Gerber Fmt 4.6, Leading zero omitted, Abs format (unit mm)*
G04 Created by KiCad (PCBNEW (5.1.4)-1) date 2020-08-25 23:17:58*
%MOMM*%
%LPD*%
G04 APERTURE LIST*
%ADD10C,0.150000*%
%ADD11C,0.120000*%
G04 APERTURE END LIST*
D10*
X141261733Y-29617543D02*
X141261733Y-28817543D01*
X140995067Y-29388972D01*
X140728400Y-28817543D01*
X140728400Y-29617543D01*
X140347448Y-29617543D02*
X140347448Y-28817543D01*
X140004591Y-29579448D02*
X139890305Y-29617543D01*
X139699829Y-29617543D01*
X139623638Y-29579448D01*
X139585543Y-29541353D01*
X139547448Y-29465162D01*
X139547448Y-29388972D01*
X139585543Y-29312781D01*
X139623638Y-29274686D01*
X139699829Y-29236591D01*
X139852210Y-29198496D01*
X139928400Y-29160400D01*
X139966495Y-29122305D01*
X140004591Y-29046115D01*
X140004591Y-28969924D01*
X139966495Y-28893734D01*
X139928400Y-28855639D01*
X139852210Y-28817543D01*
X139661733Y-28817543D01*
X139547448Y-28855639D01*
X139052210Y-28817543D02*
X138899829Y-28817543D01*
X138823638Y-28855639D01*
X138747448Y-28931829D01*
X138709352Y-29084210D01*
X138709352Y-29350877D01*
X138747448Y-29503258D01*
X138823638Y-29579448D01*
X138899829Y-29617543D01*
X139052210Y-29617543D01*
X139128400Y-29579448D01*
X139204591Y-29503258D01*
X139242686Y-29350877D01*
X139242686Y-29084210D01*
X139204591Y-28931829D01*
X139128400Y-28855639D01*
X139052210Y-28817543D01*
X137354471Y-37364543D02*
X137621138Y-36983591D01*
X137811614Y-37364543D02*
X137811614Y-36564543D01*
X137506852Y-36564543D01*
X137430662Y-36602639D01*
X137392567Y-36640734D01*
X137354471Y-36716924D01*
X137354471Y-36831210D01*
X137392567Y-36907400D01*
X137430662Y-36945496D01*
X137506852Y-36983591D01*
X137811614Y-36983591D01*
X137011614Y-36945496D02*
X136744948Y-36945496D01*
X136630662Y-37364543D02*
X137011614Y-37364543D01*
X137011614Y-36564543D01*
X136630662Y-36564543D01*
X136325900Y-37326448D02*
X136211614Y-37364543D01*
X136021138Y-37364543D01*
X135944948Y-37326448D01*
X135906852Y-37288353D01*
X135868757Y-37212162D01*
X135868757Y-37135972D01*
X135906852Y-37059781D01*
X135944948Y-37021686D01*
X136021138Y-36983591D01*
X136173519Y-36945496D01*
X136249710Y-36907400D01*
X136287805Y-36869305D01*
X136325900Y-36793115D01*
X136325900Y-36716924D01*
X136287805Y-36640734D01*
X136249710Y-36602639D01*
X136173519Y-36564543D01*
X135983043Y-36564543D01*
X135868757Y-36602639D01*
X137354471Y-35383353D02*
X137392567Y-35421448D01*
X137506852Y-35459543D01*
X137583043Y-35459543D01*
X137697329Y-35421448D01*
X137773519Y-35345258D01*
X137811614Y-35269067D01*
X137849710Y-35116686D01*
X137849710Y-35002400D01*
X137811614Y-34850019D01*
X137773519Y-34773829D01*
X137697329Y-34697639D01*
X137583043Y-34659543D01*
X137506852Y-34659543D01*
X137392567Y-34697639D01*
X137354471Y-34735734D01*
X137049710Y-35421448D02*
X136935424Y-35459543D01*
X136744948Y-35459543D01*
X136668757Y-35421448D01*
X136630662Y-35383353D01*
X136592567Y-35307162D01*
X136592567Y-35230972D01*
X136630662Y-35154781D01*
X136668757Y-35116686D01*
X136744948Y-35078591D01*
X136897329Y-35040496D01*
X136973519Y-35002400D01*
X137011614Y-34964305D01*
X137049710Y-34888115D01*
X137049710Y-34811924D01*
X137011614Y-34735734D01*
X136973519Y-34697639D01*
X136897329Y-34659543D01*
X136706852Y-34659543D01*
X136592567Y-34697639D01*
X141160114Y-42901781D02*
X140550591Y-42901781D01*
X140855352Y-43206543D02*
X140855352Y-42597019D01*
X140245829Y-42406543D02*
X139750591Y-42406543D01*
X140017257Y-42711305D01*
X139902971Y-42711305D01*
X139826781Y-42749400D01*
X139788686Y-42787496D01*
X139750591Y-42863686D01*
X139750591Y-43054162D01*
X139788686Y-43130353D01*
X139826781Y-43168448D01*
X139902971Y-43206543D01*
X140131543Y-43206543D01*
X140207733Y-43168448D01*
X140245829Y-43130353D01*
X139522019Y-42406543D02*
X139255352Y-43206543D01*
X138988686Y-42406543D01*
X138798210Y-42406543D02*
X138302971Y-42406543D01*
X138569638Y-42711305D01*
X138455352Y-42711305D01*
X138379162Y-42749400D01*
X138341067Y-42787496D01*
X138302971Y-42863686D01*
X138302971Y-43054162D01*
X138341067Y-43130353D01*
X138379162Y-43168448D01*
X138455352Y-43206543D01*
X138683924Y-43206543D01*
X138760114Y-43168448D01*
X138798210Y-43130353D01*
X143408114Y-42444639D02*
X143484305Y-42406543D01*
X143598591Y-42406543D01*
X143712876Y-42444639D01*
X143789067Y-42520829D01*
X143827162Y-42597019D01*
X143865257Y-42749400D01*
X143865257Y-42863686D01*
X143827162Y-43016067D01*
X143789067Y-43092258D01*
X143712876Y-43168448D01*
X143598591Y-43206543D01*
X143522400Y-43206543D01*
X143408114Y-43168448D01*
X143370019Y-43130353D01*
X143370019Y-42863686D01*
X143522400Y-42863686D01*
X143027162Y-43206543D02*
X143027162Y-42406543D01*
X142570019Y-43206543D01*
X142570019Y-42406543D01*
X142189067Y-43206543D02*
X142189067Y-42406543D01*
X141998591Y-42406543D01*
X141884305Y-42444639D01*
X141808114Y-42520829D01*
X141770019Y-42597019D01*
X141731924Y-42749400D01*
X141731924Y-42863686D01*
X141770019Y-43016067D01*
X141808114Y-43092258D01*
X141884305Y-43168448D01*
X141998591Y-43206543D01*
X142189067Y-43206543D01*
X146143662Y-37618543D02*
X146143662Y-36818543D01*
X145305567Y-37618543D02*
X145572233Y-37237591D01*
X145762710Y-37618543D02*
X145762710Y-36818543D01*
X145457948Y-36818543D01*
X145381757Y-36856639D01*
X145343662Y-36894734D01*
X145305567Y-36970924D01*
X145305567Y-37085210D01*
X145343662Y-37161400D01*
X145381757Y-37199496D01*
X145457948Y-37237591D01*
X145762710Y-37237591D01*
X144429376Y-37694734D02*
X144505567Y-37656639D01*
X144581757Y-37580448D01*
X144696043Y-37466162D01*
X144772233Y-37428067D01*
X144848424Y-37428067D01*
X144810329Y-37618543D02*
X144886519Y-37580448D01*
X144962710Y-37504258D01*
X145000805Y-37351877D01*
X145000805Y-37085210D01*
X144962710Y-36932829D01*
X144886519Y-36856639D01*
X144810329Y-36818543D01*
X144657948Y-36818543D01*
X144581757Y-36856639D01*
X144505567Y-36932829D01*
X144467471Y-37085210D01*
X144467471Y-37351877D01*
X144505567Y-37504258D01*
X144581757Y-37580448D01*
X144657948Y-37618543D01*
X144810329Y-37618543D01*
X147019852Y-35078543D02*
X147019852Y-34278543D01*
X146753186Y-34849972D01*
X146486519Y-34278543D01*
X146486519Y-35078543D01*
X145953186Y-34278543D02*
X145800805Y-34278543D01*
X145724614Y-34316639D01*
X145648424Y-34392829D01*
X145610329Y-34545210D01*
X145610329Y-34811877D01*
X145648424Y-34964258D01*
X145724614Y-35040448D01*
X145800805Y-35078543D01*
X145953186Y-35078543D01*
X146029376Y-35040448D01*
X146105567Y-34964258D01*
X146143662Y-34811877D01*
X146143662Y-34545210D01*
X146105567Y-34392829D01*
X146029376Y-34316639D01*
X145953186Y-34278543D01*
X145305567Y-35040448D02*
X145191281Y-35078543D01*
X145000805Y-35078543D01*
X144924614Y-35040448D01*
X144886519Y-35002353D01*
X144848424Y-34926162D01*
X144848424Y-34849972D01*
X144886519Y-34773781D01*
X144924614Y-34735686D01*
X145000805Y-34697591D01*
X145153186Y-34659496D01*
X145229376Y-34621400D01*
X145267471Y-34583305D01*
X145305567Y-34507115D01*
X145305567Y-34430924D01*
X145267471Y-34354734D01*
X145229376Y-34316639D01*
X145153186Y-34278543D01*
X144962710Y-34278543D01*
X144848424Y-34316639D01*
X144505567Y-35078543D02*
X144505567Y-34278543D01*
X146524614Y-32500448D02*
X146410329Y-32538543D01*
X146219852Y-32538543D01*
X146143662Y-32500448D01*
X146105567Y-32462353D01*
X146067471Y-32386162D01*
X146067471Y-32309972D01*
X146105567Y-32233781D01*
X146143662Y-32195686D01*
X146219852Y-32157591D01*
X146372233Y-32119496D01*
X146448424Y-32081400D01*
X146486519Y-32043305D01*
X146524614Y-31967115D01*
X146524614Y-31890924D01*
X146486519Y-31814734D01*
X146448424Y-31776639D01*
X146372233Y-31738543D01*
X146181757Y-31738543D01*
X146067471Y-31776639D01*
X145267471Y-32462353D02*
X145305567Y-32500448D01*
X145419852Y-32538543D01*
X145496043Y-32538543D01*
X145610329Y-32500448D01*
X145686519Y-32424258D01*
X145724614Y-32348067D01*
X145762710Y-32195686D01*
X145762710Y-32081400D01*
X145724614Y-31929019D01*
X145686519Y-31852829D01*
X145610329Y-31776639D01*
X145496043Y-31738543D01*
X145419852Y-31738543D01*
X145305567Y-31776639D01*
X145267471Y-31814734D01*
X144924614Y-32538543D02*
X144924614Y-31738543D01*
X144467471Y-32538543D02*
X144810329Y-32081400D01*
X144467471Y-31738543D02*
X144924614Y-32195686D01*
D11*
X143747591Y-30846639D02*
X142417591Y-30846639D01*
X143747591Y-32176639D02*
X143747591Y-30846639D01*
X141147591Y-30846639D02*
X138547591Y-30846639D01*
X141147591Y-33446639D02*
X141147591Y-30846639D01*
X143747591Y-33446639D02*
X141147591Y-33446639D01*
X138547591Y-30846639D02*
X138547591Y-41126639D01*
X143747591Y-33446639D02*
X143747591Y-41126639D01*
X143747591Y-41126639D02*
X138547591Y-41126639D01*
X151212776Y-53580001D02*
X150887218Y-53580001D01*
X151212776Y-52560001D02*
X150887218Y-52560001D01*
X150352772Y-28900001D02*
X150027214Y-28900001D01*
X150352772Y-27880001D02*
X150027214Y-27880001D01*
X148332590Y-26437613D02*
X148332590Y-26763171D01*
X147312590Y-26437613D02*
X147312590Y-26763171D01*
X158469994Y4102501D02*
X160919994Y4102501D01*
X160269994Y882501D02*
X158469994Y882501D01*
X151347498Y-3462778D02*
X151347498Y-3137220D01*
X152367498Y-3462778D02*
X152367498Y-3137220D01*
X164992774Y-52269999D02*
X164667216Y-52269999D01*
X164992774Y-51249999D02*
X164667216Y-51249999D01*
X151212776Y-57080002D02*
X150887218Y-57080002D01*
X151212776Y-56060002D02*
X150887218Y-56060002D01*
X154662777Y-6520000D02*
X154337219Y-6520000D01*
X154662777Y-5500000D02*
X154337219Y-5500000D01*
X147837214Y-38670001D02*
X148162772Y-38670001D01*
X147837214Y-39690001D02*
X148162772Y-39690001D01*
X166337496Y6299030D02*
X166337496Y5973472D01*
X165317496Y6299030D02*
X165317496Y5973472D01*
X155701273Y-36544007D02*
X156026831Y-36544007D01*
X155701273Y-37564007D02*
X156026831Y-37564007D01*
X160389996Y-49697222D02*
X160389996Y-50022780D01*
X159369996Y-49697222D02*
X159369996Y-50022780D01*
X151212772Y-55330001D02*
X150887214Y-55330001D01*
X151212772Y-54310001D02*
X150887214Y-54310001D01*
X155701270Y-38294006D02*
X156026828Y-38294006D01*
X155701270Y-39314006D02*
X156026828Y-39314006D01*
X147837219Y-40270001D02*
X148162777Y-40270001D01*
X147837219Y-41290001D02*
X148162777Y-41290001D01*
X152432498Y242500D02*
X152432498Y4142500D01*
X150432498Y242500D02*
X150432498Y4142500D01*
X152432498Y242500D02*
X150432498Y242500D01*
X164667218Y-53000000D02*
X164992776Y-53000000D01*
X164667218Y-54020000D02*
X164992776Y-54020000D01*
X164992776Y-50520000D02*
X164667218Y-50520000D01*
X164992776Y-49500000D02*
X164667218Y-49500000D01*
X151212772Y-58830001D02*
X150887214Y-58830001D01*
X151212772Y-57810001D02*
X150887214Y-57810001D01*
X148879994Y-25050001D02*
X148879994Y-26510001D01*
X152039994Y-25050001D02*
X152039994Y-27210001D01*
X152039994Y-25050001D02*
X151109994Y-25050001D01*
X148879994Y-25050001D02*
X149809994Y-25050001D01*
X141054172Y-22427890D02*
X141357723Y-20999794D01*
X137963226Y-21770889D02*
X138412315Y-19658090D01*
X137963226Y-21770889D02*
X138872903Y-21964247D01*
X141054172Y-22427890D02*
X140144495Y-22234532D01*
X128886597Y-18425859D02*
X128954284Y-18107415D01*
X129884308Y-18637929D02*
X129951995Y-18319485D01*
X145894478Y-81883512D02*
X146198029Y-80455416D01*
X142803532Y-81226511D02*
X143252621Y-79113712D01*
X142803532Y-81226511D02*
X143713209Y-81419869D01*
X145894478Y-81883512D02*
X144984801Y-81690154D01*
X149562535Y-82663180D02*
X149866086Y-81235084D01*
X146471589Y-82006179D02*
X146920678Y-79893380D01*
X146471589Y-82006179D02*
X147381266Y-82199537D01*
X149562535Y-82663180D02*
X148652858Y-82469822D01*
X140544485Y-61273514D02*
X140848036Y-59845418D01*
X137453539Y-60616513D02*
X137902628Y-58503714D01*
X137453539Y-60616513D02*
X138363216Y-60809871D01*
X140544485Y-61273514D02*
X139634808Y-61080156D01*
X144212540Y-62053181D02*
X144516091Y-60625085D01*
X141121594Y-61396180D02*
X141570683Y-59283381D01*
X141121594Y-61396180D02*
X142031271Y-61589538D01*
X144212540Y-62053181D02*
X143302863Y-61859823D01*
X122767292Y-38013573D02*
X123070843Y-36585477D01*
X119676346Y-37356572D02*
X120125435Y-35243773D01*
X119676346Y-37356572D02*
X120586023Y-37549930D01*
X122767292Y-38013573D02*
X121857615Y-37820215D01*
X126435343Y-38793243D02*
X126738894Y-37365147D01*
X123344397Y-38136242D02*
X123793486Y-36023443D01*
X123344397Y-38136242D02*
X124254074Y-38329600D01*
X126435343Y-38793243D02*
X125525666Y-38599885D01*
X137386113Y-21648221D02*
X137689664Y-20220125D01*
X134295167Y-20991220D02*
X134744256Y-18878421D01*
X134295167Y-20991220D02*
X135204844Y-21184578D01*
X137386113Y-21648221D02*
X136476436Y-21454863D01*
X133718062Y-20868549D02*
X134021613Y-19440453D01*
X130627116Y-20211548D02*
X131076205Y-18098749D01*
X130627116Y-20211548D02*
X131536793Y-20404906D01*
X133718062Y-20868549D02*
X132808385Y-20675191D01*
X72814994Y-66625001D02*
X72814994Y-65165001D01*
X69654994Y-66625001D02*
X69654994Y-64465001D01*
X69654994Y-66625001D02*
X70584994Y-66625001D01*
X72814994Y-66625001D02*
X71884994Y-66625001D01*
X245214997Y-47574499D02*
X245214997Y-46114499D01*
X242054997Y-47574499D02*
X242054997Y-45414499D01*
X242054997Y-47574499D02*
X242984997Y-47574499D01*
X245214997Y-47574499D02*
X244284997Y-47574499D01*
X248964991Y-47574499D02*
X248964991Y-46114499D01*
X245804991Y-47574499D02*
X245804991Y-45414499D01*
X245804991Y-47574499D02*
X246734991Y-47574499D01*
X248964991Y-47574499D02*
X248034991Y-47574499D01*
X165153642Y-81556569D02*
X164850091Y-80128473D01*
X162062696Y-82213570D02*
X161613606Y-80100771D01*
X162062696Y-82213570D02*
X162972373Y-82020212D01*
X165153642Y-81556569D02*
X164243965Y-81749927D01*
X168821701Y-80776902D02*
X168518150Y-79348806D01*
X165730755Y-81433903D02*
X165281665Y-79321104D01*
X165730755Y-81433903D02*
X166640432Y-81240545D01*
X168821701Y-80776902D02*
X167912024Y-80970260D01*
X170513647Y-60946570D02*
X170210096Y-59518474D01*
X167422701Y-61603571D02*
X166973611Y-59490772D01*
X167422701Y-61603571D02*
X168332378Y-61410213D01*
X170513647Y-60946570D02*
X169603970Y-61139928D01*
X174181701Y-60166903D02*
X173878150Y-58738807D01*
X171090755Y-60823904D02*
X170641665Y-58711105D01*
X171090755Y-60823904D02*
X172000432Y-60630546D01*
X174181701Y-60166903D02*
X173272024Y-60360261D01*
X180556886Y-39329576D02*
X180253335Y-37901480D01*
X177465940Y-39986577D02*
X177016850Y-37873778D01*
X177465940Y-39986577D02*
X178375617Y-39793219D01*
X180556886Y-39329576D02*
X179647209Y-39522934D01*
X184224937Y-38549907D02*
X183921386Y-37121811D01*
X181133991Y-39206908D02*
X180684901Y-37094109D01*
X181133991Y-39206908D02*
X182043668Y-39013550D01*
X184224937Y-38549907D02*
X183315260Y-38743265D01*
X167253647Y-22686568D02*
X166950096Y-21258472D01*
X164162701Y-23343569D02*
X163713611Y-21230770D01*
X164162701Y-23343569D02*
X165072378Y-23150211D01*
X167253647Y-22686568D02*
X166343970Y-22879926D01*
X170921698Y-21906899D02*
X170618147Y-20478803D01*
X167830752Y-22563900D02*
X167381662Y-20451101D01*
X167830752Y-22563900D02*
X168740429Y-22370542D01*
X170921698Y-21906899D02*
X170012021Y-22100257D01*
X239854992Y-66625001D02*
X239854992Y-65165001D01*
X236694992Y-66625001D02*
X236694992Y-64465001D01*
X236694992Y-66625001D02*
X237624992Y-66625001D01*
X239854992Y-66625001D02*
X238924992Y-66625001D01*
X258974991Y-28547501D02*
X258974991Y-27087501D01*
X255814991Y-28547501D02*
X255814991Y-26387501D01*
X255814991Y-28547501D02*
X256744991Y-28547501D01*
X258974991Y-28547501D02*
X258044991Y-28547501D01*
X255224991Y-28547499D02*
X255224991Y-27087499D01*
X252064991Y-28547499D02*
X252064991Y-26387499D01*
X252064991Y-28547499D02*
X252994991Y-28547499D01*
X255224991Y-28547499D02*
X254294991Y-28547499D01*
X245704997Y-7335000D02*
X245704997Y-5875000D01*
X242544997Y-7335000D02*
X242544997Y-5175000D01*
X242544997Y-7335000D02*
X243474997Y-7335000D01*
X245704997Y-7335000D02*
X244774997Y-7335000D01*
X241954991Y-7335001D02*
X241954991Y-5875001D01*
X238794991Y-7335001D02*
X238794991Y-5175001D01*
X238794991Y-7335001D02*
X239724991Y-7335001D01*
X241954991Y-7335001D02*
X241024991Y-7335001D01*
X70079996Y-47575000D02*
X70079996Y-46115000D01*
X66919996Y-47575000D02*
X66919996Y-45415000D01*
X66919996Y-47575000D02*
X67849996Y-47575000D01*
X70079996Y-47575000D02*
X69149996Y-47575000D01*
X66329991Y-47575001D02*
X66329991Y-46115001D01*
X63169991Y-47575001D02*
X63169991Y-45415001D01*
X63169991Y-47575001D02*
X64099991Y-47575001D01*
X66329991Y-47575001D02*
X65399991Y-47575001D01*
X65629991Y-28525001D02*
X65629991Y-27065001D01*
X62469991Y-28525001D02*
X62469991Y-26365001D01*
X62469991Y-28525001D02*
X63399991Y-28525001D01*
X65629991Y-28525001D02*
X64699991Y-28525001D01*
X69379991Y-28524999D02*
X69379991Y-27064999D01*
X66219991Y-28524999D02*
X66219991Y-26364999D01*
X66219991Y-28524999D02*
X67149991Y-28524999D01*
X69379991Y-28524999D02*
X68449991Y-28524999D01*
X60579991Y-7335001D02*
X60579991Y-5875001D01*
X57419991Y-7335001D02*
X57419991Y-5175001D01*
X57419991Y-7335001D02*
X58349991Y-7335001D01*
X60579991Y-7335001D02*
X59649991Y-7335001D01*
X64329993Y-7334998D02*
X64329993Y-5874998D01*
X61169993Y-7334998D02*
X61169993Y-5174998D01*
X61169993Y-7334998D02*
X62099993Y-7334998D01*
X64329993Y-7334998D02*
X63399993Y-7334998D01*
X243604996Y-66624999D02*
X243604996Y-65164999D01*
X240444996Y-66624999D02*
X240444996Y-64464999D01*
X240444996Y-66624999D02*
X241374996Y-66624999D01*
X243604996Y-66624999D02*
X242674996Y-66624999D01*
X-4254718Y-71571448D02*
X-4254718Y-71245890D01*
X-3234718Y-71571448D02*
X-3234718Y-71245890D01*
X-5854718Y-71571448D02*
X-5854718Y-71245890D01*
X-4834718Y-71571448D02*
X-4834718Y-71245890D01*
X-7454717Y-71571448D02*
X-7454717Y-71245890D01*
X-6434717Y-71571448D02*
X-6434717Y-71245890D01*
X166409996Y-57019998D02*
X166409996Y-55559998D01*
X163249996Y-57019998D02*
X163249996Y-54859998D01*
X163249996Y-57019998D02*
X164179996Y-57019998D01*
X166409996Y-57019998D02*
X165479996Y-57019998D01*
X153027497Y-2539999D02*
X153027497Y-3999999D01*
X156187497Y-2539999D02*
X156187497Y-4699999D01*
X156187497Y-2539999D02*
X155257497Y-2539999D01*
X153027497Y-2539999D02*
X153957497Y-2539999D01*
X155959994Y-49590000D02*
X155959994Y-50880000D01*
X156409994Y-49590000D02*
X155959994Y-49590000D01*
X156409994Y-49140000D02*
X156409994Y-49590000D01*
X156409994Y-42370000D02*
X155959994Y-42370000D01*
X156409994Y-42820000D02*
X156409994Y-42370000D01*
X149189994Y-49590000D02*
X149639994Y-49590000D01*
X149189994Y-49140000D02*
X149189994Y-49590000D01*
X149189994Y-42370000D02*
X149639994Y-42370000D01*
X149189994Y-42820000D02*
X149189994Y-42370000D01*
D10*
X154812589Y-59732891D02*
X160012589Y-59732891D01*
X160012589Y-59732891D02*
X160012589Y-54532891D01*
X160012589Y-54532891D02*
X154812589Y-54532891D01*
X154812589Y-54532891D02*
X154812589Y-59732891D01*
X158412589Y-57132891D02*
G75*
G03X158412589Y-57132891I-1000000J0D01*
G01*
D11*
X314289999Y-84340276D02*
X314289999Y-84014718D01*
X315309999Y-84340276D02*
X315309999Y-84014718D01*
X322729998Y-65240280D02*
X322729998Y-64914722D01*
X323749998Y-65240280D02*
X323749998Y-64914722D01*
X306649999Y-46190281D02*
X306649999Y-45864723D01*
X307669999Y-46190281D02*
X307669999Y-45864723D01*
X309529997Y-27140277D02*
X309529997Y-26814719D01*
X310549997Y-27140277D02*
X310549997Y-26814719D01*
X300600000Y-8090278D02*
X300600000Y-7764720D01*
X301620000Y-8090278D02*
X301620000Y-7764720D01*
X306059994Y-65240279D02*
X306059994Y-64914721D01*
X307079994Y-65240279D02*
X307079994Y-64914721D01*
X285709998Y-27140278D02*
X285709998Y-26814720D01*
X286729998Y-27140278D02*
X286729998Y-26814720D01*
X291069995Y-8090280D02*
X291069995Y-7764722D01*
X292089995Y-8090280D02*
X292089995Y-7764722D01*
X270339996Y-65240279D02*
X270339996Y-64914721D01*
X271359996Y-65240279D02*
X271359996Y-64914721D01*
X275699992Y-46190278D02*
X275699992Y-45864720D01*
X276719992Y-46190278D02*
X276719992Y-45864720D01*
X266659993Y-27162780D02*
X266659993Y-26837222D01*
X267679993Y-27162780D02*
X267679993Y-26837222D01*
X272019998Y-8090279D02*
X272019998Y-7764721D01*
X273039998Y-8090279D02*
X273039998Y-7764721D01*
X251289993Y-65240280D02*
X251289993Y-64914722D01*
X252309993Y-65240280D02*
X252309993Y-64914722D01*
X256649992Y-46190278D02*
X256649992Y-45864720D01*
X257669992Y-46190278D02*
X257669992Y-45864720D01*
X248029993Y-26080274D02*
X248029993Y-25754716D01*
X249049993Y-26080274D02*
X249049993Y-25754716D01*
X253389996Y-5950280D02*
X253389996Y-5624722D01*
X254409996Y-5950280D02*
X254409996Y-5624722D01*
X236760860Y-85934639D02*
X236693173Y-85616195D01*
X237758571Y-85722569D02*
X237690884Y-85404125D01*
X231950862Y-65944640D02*
X231883175Y-65626196D01*
X232948573Y-65732570D02*
X232880886Y-65414126D01*
X237310863Y-45334638D02*
X237243176Y-45016194D01*
X238308574Y-45122568D02*
X238240887Y-44804124D01*
X228690865Y-27684636D02*
X228623178Y-27366192D01*
X229688576Y-27472566D02*
X229620889Y-27154122D01*
X234050861Y-7074639D02*
X233983174Y-6756195D01*
X235048572Y-6862569D02*
X234980885Y-6544125D01*
X213320863Y-69904638D02*
X213253176Y-69586194D01*
X214318574Y-69692568D02*
X214250887Y-69374124D01*
X218680864Y-49294640D02*
X218613177Y-48976196D01*
X219678575Y-49082570D02*
X219610888Y-48764126D01*
X210060860Y-31644635D02*
X209993173Y-31326191D01*
X211058571Y-31432565D02*
X210990884Y-31114121D01*
X215420859Y-11034640D02*
X215353172Y-10716196D01*
X216418570Y-10822570D02*
X216350883Y-10504126D01*
X196350858Y-92994637D02*
X196283171Y-92676193D01*
X197348569Y-92782567D02*
X197280882Y-92464123D01*
X194680863Y-73864641D02*
X194613176Y-73546197D01*
X195678574Y-73652571D02*
X195610887Y-73334127D01*
X200040862Y-53254639D02*
X199973175Y-52936195D01*
X201038573Y-53042569D02*
X200970886Y-52724125D01*
X191420857Y-35604640D02*
X191353170Y-35286196D01*
X192418568Y-35392570D02*
X192350881Y-35074126D01*
X196780860Y-14994639D02*
X196713173Y-14676195D01*
X197778571Y-14782569D02*
X197710884Y-14464125D01*
X176050862Y-77824640D02*
X175983175Y-77506196D01*
X177048573Y-77612570D02*
X176980886Y-77294126D01*
X181410863Y-57214638D02*
X181343176Y-56896194D01*
X182408574Y-57002568D02*
X182340887Y-56684124D01*
X172790860Y-39564638D02*
X172723173Y-39246194D01*
X173788571Y-39352568D02*
X173720884Y-39034124D01*
X178150862Y-18954638D02*
X178083175Y-18636194D01*
X179148573Y-18742568D02*
X179080886Y-18424124D01*
X147516594Y-22385863D02*
X147584281Y-22067419D01*
X148514305Y-22597933D02*
X148581992Y-22279489D01*
X145426597Y-99845864D02*
X145494284Y-99527420D01*
X146424308Y-100057934D02*
X146491995Y-99739490D01*
X140286601Y-79275861D02*
X140354288Y-78957417D01*
X141284312Y-79487931D02*
X141351999Y-79169487D01*
X134936599Y-58665864D02*
X135004286Y-58347420D01*
X135934310Y-58877934D02*
X136001997Y-58559490D01*
X134236597Y-39035860D02*
X134304284Y-38717416D01*
X135234308Y-39247930D02*
X135301995Y-38929486D01*
X115106597Y-93405862D02*
X115174284Y-93087418D01*
X116104308Y-93617932D02*
X116171995Y-93299488D01*
X121656602Y-75315863D02*
X121724289Y-74997419D01*
X122654313Y-75527933D02*
X122722000Y-75209489D01*
X116306595Y-54705863D02*
X116374282Y-54387419D01*
X117304306Y-54917933D02*
X117371993Y-54599489D01*
X115606596Y-35075863D02*
X115674283Y-34757419D01*
X116604307Y-35287933D02*
X116671994Y-34969489D01*
X110246596Y-14465862D02*
X110314283Y-14147418D01*
X111244307Y-14677932D02*
X111311994Y-14359488D01*
X103016595Y-71355863D02*
X103084282Y-71037419D01*
X104014306Y-71567933D02*
X104081993Y-71249489D01*
X97666600Y-50745863D02*
X97734287Y-50427419D01*
X98664311Y-50957933D02*
X98731998Y-50639489D01*
X96966601Y-31115861D02*
X97034288Y-30797417D01*
X97964312Y-31327931D02*
X98031999Y-31009487D01*
X91616596Y-10505864D02*
X91684283Y-10187420D01*
X92614307Y-10717934D02*
X92681994Y-10399490D01*
X79576595Y-87385864D02*
X79644282Y-87067420D01*
X80574306Y-87597934D02*
X80641993Y-87279490D01*
X84386595Y-67395863D02*
X84454282Y-67077419D01*
X85384306Y-67607933D02*
X85451993Y-67289489D01*
X79036598Y-46785862D02*
X79104285Y-46467418D01*
X80034309Y-46997932D02*
X80101996Y-46679488D01*
X78336601Y-27155863D02*
X78404288Y-26837419D01*
X79334312Y-27367933D02*
X79401999Y-27049489D01*
X72429999Y-5950278D02*
X72429999Y-5624720D01*
X73449999Y-5950278D02*
X73449999Y-5624720D01*
X65199998Y-65240278D02*
X65199998Y-64914720D01*
X66219998Y-65240278D02*
X66219998Y-64914720D01*
X59849994Y-46190277D02*
X59849994Y-45864719D01*
X60869994Y-46190277D02*
X60869994Y-45864719D01*
X59149993Y-27140275D02*
X59149993Y-26814717D01*
X60169993Y-27140275D02*
X60169993Y-26814717D01*
X53789997Y-8090278D02*
X53789997Y-7764720D01*
X54809997Y-8090278D02*
X54809997Y-7764720D01*
X27109995Y-84290279D02*
X27109995Y-83964721D01*
X28129995Y-84290279D02*
X28129995Y-83964721D01*
X34249997Y-65240279D02*
X34249997Y-64914721D01*
X35269997Y-65240279D02*
X35269997Y-64914721D01*
X33649995Y-46190280D02*
X33649995Y-45864722D01*
X34669995Y-46190280D02*
X34669995Y-45864722D01*
X35339996Y-27140280D02*
X35339996Y-26814722D01*
X36359996Y-27140280D02*
X36359996Y-26814722D01*
X34740000Y-8090279D02*
X34740000Y-7764721D01*
X35760000Y-8090279D02*
X35760000Y-7764721D01*
X3489996Y-44050279D02*
X3489996Y-43724721D01*
X4509996Y-44050279D02*
X4509996Y-43724721D01*
X7559994Y-25000280D02*
X7559994Y-24674722D01*
X8579994Y-25000280D02*
X8579994Y-24674722D01*
X11688743Y-5950275D02*
X11688743Y-5624717D01*
X12708743Y-5950275D02*
X12708743Y-5624717D01*
X155238467Y7765000D02*
X155564025Y7765000D01*
X155238467Y6745000D02*
X155564025Y6745000D01*
X163175965Y7765000D02*
X163501523Y7765000D01*
X163175965Y6745000D02*
X163501523Y6745000D01*
X166897495Y5973471D02*
X166897495Y6299029D01*
X167917495Y5973471D02*
X167917495Y6299029D01*
X153697494Y1890436D02*
X153697494Y3094564D01*
X155517494Y1890436D02*
X155517494Y3094564D01*
X302519992Y-67620000D02*
X302519992Y-69080000D01*
X305679992Y-67620000D02*
X305679992Y-69780000D01*
X305679992Y-67620000D02*
X304749992Y-67620000D01*
X302519992Y-67620000D02*
X303449992Y-67620000D01*
X213637503Y-72722264D02*
X213941054Y-74150360D01*
X216728449Y-72065263D02*
X217177539Y-74178062D01*
X216728449Y-72065263D02*
X215818772Y-72258621D01*
X213637503Y-72722264D02*
X214547180Y-72528906D01*
X129867613Y-79940713D02*
X129564062Y-81368809D01*
X132958559Y-80597714D02*
X132509470Y-82710513D01*
X132958559Y-80597714D02*
X132048882Y-80404356D01*
X129867613Y-79940713D02*
X130777290Y-80134071D01*
X73966474Y-68058558D02*
X73662923Y-69486654D01*
X77057420Y-68715559D02*
X76608331Y-70828358D01*
X77057420Y-68715559D02*
X76147743Y-68522201D01*
X73966474Y-68058558D02*
X74876151Y-68251916D01*
D10*
X151183330Y-51885715D02*
X151221425Y-51923810D01*
X151335711Y-51961905D01*
X151411901Y-51961905D01*
X151526187Y-51923810D01*
X151602377Y-51847620D01*
X151640473Y-51771429D01*
X151678568Y-51619048D01*
X151678568Y-51504762D01*
X151640473Y-51352381D01*
X151602377Y-51276191D01*
X151526187Y-51200001D01*
X151411901Y-51161905D01*
X151335711Y-51161905D01*
X151221425Y-51200001D01*
X151183330Y-51238096D01*
X150421425Y-51961905D02*
X150878568Y-51961905D01*
X150649997Y-51961905D02*
X150649997Y-51161905D01*
X150726187Y-51276191D01*
X150802377Y-51352381D01*
X150878568Y-51390477D01*
X150323326Y-30181905D02*
X150589993Y-29800953D01*
X150780469Y-30181905D02*
X150780469Y-29381905D01*
X150475707Y-29381905D01*
X150399516Y-29420001D01*
X150361421Y-29458096D01*
X150323326Y-29534286D01*
X150323326Y-29648572D01*
X150361421Y-29724762D01*
X150399516Y-29762858D01*
X150475707Y-29800953D01*
X150780469Y-29800953D01*
X149637612Y-29381905D02*
X149789993Y-29381905D01*
X149866183Y-29420001D01*
X149904278Y-29458096D01*
X149980469Y-29572381D01*
X150018564Y-29724762D01*
X150018564Y-30029524D01*
X149980469Y-30105715D01*
X149942373Y-30143810D01*
X149866183Y-30181905D01*
X149713802Y-30181905D01*
X149637612Y-30143810D01*
X149599516Y-30105715D01*
X149561421Y-30029524D01*
X149561421Y-29839048D01*
X149599516Y-29762858D01*
X149637612Y-29724762D01*
X149713802Y-29686667D01*
X149866183Y-29686667D01*
X149942373Y-29724762D01*
X149980469Y-29762858D01*
X150018564Y-29839048D01*
X146754494Y-26467058D02*
X146373542Y-26200392D01*
X146754494Y-26009915D02*
X145954494Y-26009915D01*
X145954494Y-26314677D01*
X145992590Y-26390868D01*
X146030685Y-26428963D01*
X146106875Y-26467058D01*
X146221161Y-26467058D01*
X146297351Y-26428963D01*
X146335447Y-26390868D01*
X146373542Y-26314677D01*
X146373542Y-26009915D01*
X145954494Y-27190868D02*
X145954494Y-26809915D01*
X146335447Y-26771820D01*
X146297351Y-26809915D01*
X146259256Y-26886106D01*
X146259256Y-27076582D01*
X146297351Y-27152772D01*
X146335447Y-27190868D01*
X146411637Y-27228963D01*
X146602113Y-27228963D01*
X146678304Y-27190868D01*
X146716399Y-27152772D01*
X146754494Y-27076582D01*
X146754494Y-26886106D01*
X146716399Y-26809915D01*
X146678304Y-26771820D01*
X159979517Y30596D02*
X159979517Y-617022D01*
X159941422Y-693213D01*
X159903327Y-731308D01*
X159827136Y-769403D01*
X159674755Y-769403D01*
X159598565Y-731308D01*
X159560470Y-693213D01*
X159522374Y-617022D01*
X159522374Y30596D01*
X159217613Y30596D02*
X158722374Y30596D01*
X158989041Y-274165D01*
X158874755Y-274165D01*
X158798565Y-312260D01*
X158760470Y-350356D01*
X158722374Y-426546D01*
X158722374Y-617022D01*
X158760470Y-693213D01*
X158798565Y-731308D01*
X158874755Y-769403D01*
X159103327Y-769403D01*
X159179517Y-731308D01*
X159217613Y-693213D01*
X150713212Y-3166665D02*
X150751307Y-3128570D01*
X150789402Y-3014284D01*
X150789402Y-2938094D01*
X150751307Y-2823808D01*
X150675117Y-2747618D01*
X150598926Y-2709522D01*
X150446545Y-2671427D01*
X150332259Y-2671427D01*
X150179878Y-2709522D01*
X150103688Y-2747618D01*
X150027498Y-2823808D01*
X149989402Y-2938094D01*
X149989402Y-3014284D01*
X150027498Y-3128570D01*
X150065593Y-3166665D01*
X150789402Y-3547618D02*
X150789402Y-3699999D01*
X150751307Y-3776189D01*
X150713212Y-3814284D01*
X150598926Y-3890475D01*
X150446545Y-3928570D01*
X150141783Y-3928570D01*
X150065593Y-3890475D01*
X150027498Y-3852379D01*
X149989402Y-3776189D01*
X149989402Y-3623808D01*
X150027498Y-3547618D01*
X150065593Y-3509522D01*
X150141783Y-3471427D01*
X150332259Y-3471427D01*
X150408450Y-3509522D01*
X150446545Y-3547618D01*
X150484640Y-3623808D01*
X150484640Y-3776189D01*
X150446545Y-3852379D01*
X150408450Y-3890475D01*
X150332259Y-3928570D01*
X162497375Y-52045713D02*
X162535471Y-52083808D01*
X162649756Y-52121903D01*
X162725947Y-52121903D01*
X162840233Y-52083808D01*
X162916423Y-52007618D01*
X162954518Y-51931427D01*
X162992614Y-51779046D01*
X162992614Y-51664760D01*
X162954518Y-51512379D01*
X162916423Y-51436189D01*
X162840233Y-51359999D01*
X162725947Y-51321903D01*
X162649756Y-51321903D01*
X162535471Y-51359999D01*
X162497375Y-51398094D01*
X161735471Y-52121903D02*
X162192614Y-52121903D01*
X161964042Y-52121903D02*
X161964042Y-51321903D01*
X162040233Y-51436189D01*
X162116423Y-51512379D01*
X162192614Y-51550475D01*
X160973566Y-52121903D02*
X161430709Y-52121903D01*
X161202137Y-52121903D02*
X161202137Y-51321903D01*
X161278328Y-51436189D01*
X161354518Y-51512379D01*
X161430709Y-51550475D01*
X148717377Y-56855716D02*
X148755473Y-56893811D01*
X148869758Y-56931906D01*
X148945949Y-56931906D01*
X149060235Y-56893811D01*
X149136425Y-56817621D01*
X149174520Y-56741430D01*
X149212616Y-56589049D01*
X149212616Y-56474763D01*
X149174520Y-56322382D01*
X149136425Y-56246192D01*
X149060235Y-56170002D01*
X148945949Y-56131906D01*
X148869758Y-56131906D01*
X148755473Y-56170002D01*
X148717377Y-56208097D01*
X147955473Y-56931906D02*
X148412616Y-56931906D01*
X148184044Y-56931906D02*
X148184044Y-56131906D01*
X148260235Y-56246192D01*
X148336425Y-56322382D01*
X148412616Y-56360478D01*
X147650711Y-56208097D02*
X147612616Y-56170002D01*
X147536425Y-56131906D01*
X147345949Y-56131906D01*
X147269758Y-56170002D01*
X147231663Y-56208097D01*
X147193568Y-56284287D01*
X147193568Y-56360478D01*
X147231663Y-56474763D01*
X147688806Y-56931906D01*
X147193568Y-56931906D01*
X157861188Y-6295714D02*
X157899283Y-6333809D01*
X158013569Y-6371904D01*
X158089759Y-6371904D01*
X158204045Y-6333809D01*
X158280236Y-6257619D01*
X158318331Y-6181428D01*
X158356426Y-6029047D01*
X158356426Y-5914761D01*
X158318331Y-5762380D01*
X158280236Y-5686190D01*
X158204045Y-5610000D01*
X158089759Y-5571904D01*
X158013569Y-5571904D01*
X157899283Y-5610000D01*
X157861188Y-5648095D01*
X157099283Y-6371904D02*
X157556426Y-6371904D01*
X157327855Y-6371904D02*
X157327855Y-5571904D01*
X157404045Y-5686190D01*
X157480236Y-5762380D01*
X157556426Y-5800476D01*
X156604045Y-5571904D02*
X156527855Y-5571904D01*
X156451664Y-5610000D01*
X156413569Y-5648095D01*
X156375474Y-5724285D01*
X156337378Y-5876666D01*
X156337378Y-6067142D01*
X156375474Y-6219523D01*
X156413569Y-6295714D01*
X156451664Y-6333809D01*
X156527855Y-6371904D01*
X156604045Y-6371904D01*
X156680236Y-6333809D01*
X156718331Y-6295714D01*
X156756426Y-6219523D01*
X156794521Y-6067142D01*
X156794521Y-5876666D01*
X156756426Y-5724285D01*
X156718331Y-5648095D01*
X156680236Y-5610000D01*
X156604045Y-5571904D01*
X145667373Y-39465715D02*
X145705469Y-39503810D01*
X145819754Y-39541905D01*
X145895945Y-39541905D01*
X146010231Y-39503810D01*
X146086421Y-39427620D01*
X146124516Y-39351429D01*
X146162612Y-39199048D01*
X146162612Y-39084762D01*
X146124516Y-38932381D01*
X146086421Y-38856191D01*
X146010231Y-38780001D01*
X145895945Y-38741905D01*
X145819754Y-38741905D01*
X145705469Y-38780001D01*
X145667373Y-38818096D01*
X145210231Y-39084762D02*
X145286421Y-39046667D01*
X145324516Y-39008572D01*
X145362612Y-38932381D01*
X145362612Y-38894286D01*
X145324516Y-38818096D01*
X145286421Y-38780001D01*
X145210231Y-38741905D01*
X145057850Y-38741905D01*
X144981659Y-38780001D01*
X144943564Y-38818096D01*
X144905469Y-38894286D01*
X144905469Y-38932381D01*
X144943564Y-39008572D01*
X144981659Y-39046667D01*
X145057850Y-39084762D01*
X145210231Y-39084762D01*
X145286421Y-39122858D01*
X145324516Y-39160953D01*
X145362612Y-39237143D01*
X145362612Y-39389524D01*
X145324516Y-39465715D01*
X145286421Y-39503810D01*
X145210231Y-39541905D01*
X145057850Y-39541905D01*
X144981659Y-39503810D01*
X144943564Y-39465715D01*
X144905469Y-39389524D01*
X144905469Y-39237143D01*
X144943564Y-39160953D01*
X144981659Y-39122858D01*
X145057850Y-39084762D01*
X166113210Y3803631D02*
X166151305Y3841727D01*
X166189400Y3956012D01*
X166189400Y4032203D01*
X166151305Y4146489D01*
X166075115Y4222679D01*
X165998924Y4260774D01*
X165846543Y4298870D01*
X165732257Y4298870D01*
X165579876Y4260774D01*
X165503686Y4222679D01*
X165427496Y4146489D01*
X165389400Y4032203D01*
X165389400Y3956012D01*
X165427496Y3841727D01*
X165465591Y3803631D01*
X165389400Y3536965D02*
X165389400Y3003631D01*
X166189400Y3346489D01*
X158463337Y-37339721D02*
X158501432Y-37377816D01*
X158615718Y-37415911D01*
X158691909Y-37415911D01*
X158806194Y-37377816D01*
X158882385Y-37301626D01*
X158920480Y-37225435D01*
X158958575Y-37073054D01*
X158958575Y-36958768D01*
X158920480Y-36806387D01*
X158882385Y-36730197D01*
X158806194Y-36654007D01*
X158691909Y-36615911D01*
X158615718Y-36615911D01*
X158501432Y-36654007D01*
X158463337Y-36692102D01*
X157777623Y-36615911D02*
X157930004Y-36615911D01*
X158006194Y-36654007D01*
X158044290Y-36692102D01*
X158120480Y-36806387D01*
X158158575Y-36958768D01*
X158158575Y-37263530D01*
X158120480Y-37339721D01*
X158082385Y-37377816D01*
X158006194Y-37415911D01*
X157853813Y-37415911D01*
X157777623Y-37377816D01*
X157739528Y-37339721D01*
X157701432Y-37263530D01*
X157701432Y-37073054D01*
X157739528Y-36996864D01*
X157777623Y-36958768D01*
X157853813Y-36920673D01*
X158006194Y-36920673D01*
X158082385Y-36958768D01*
X158120480Y-36996864D01*
X158158575Y-37073054D01*
X158735710Y-49726667D02*
X158773805Y-49688572D01*
X158811900Y-49574286D01*
X158811900Y-49498096D01*
X158773805Y-49383810D01*
X158697615Y-49307620D01*
X158621424Y-49269524D01*
X158469043Y-49231429D01*
X158354757Y-49231429D01*
X158202376Y-49269524D01*
X158126186Y-49307620D01*
X158049996Y-49383810D01*
X158011900Y-49498096D01*
X158011900Y-49574286D01*
X158049996Y-49688572D01*
X158088091Y-49726667D01*
X158011900Y-50450477D02*
X158011900Y-50069524D01*
X158392853Y-50031429D01*
X158354757Y-50069524D01*
X158316662Y-50145715D01*
X158316662Y-50336191D01*
X158354757Y-50412381D01*
X158392853Y-50450477D01*
X158469043Y-50488572D01*
X158659519Y-50488572D01*
X158735710Y-50450477D01*
X158773805Y-50412381D01*
X158811900Y-50336191D01*
X158811900Y-50145715D01*
X158773805Y-50069524D01*
X158735710Y-50031429D01*
X148717373Y-55105715D02*
X148755469Y-55143810D01*
X148869754Y-55181905D01*
X148945945Y-55181905D01*
X149060231Y-55143810D01*
X149136421Y-55067620D01*
X149174516Y-54991429D01*
X149212612Y-54839048D01*
X149212612Y-54724762D01*
X149174516Y-54572381D01*
X149136421Y-54496191D01*
X149060231Y-54420001D01*
X148945945Y-54381905D01*
X148869754Y-54381905D01*
X148755469Y-54420001D01*
X148717373Y-54458096D01*
X148031659Y-54648572D02*
X148031659Y-55181905D01*
X148222135Y-54343810D02*
X148412612Y-54915239D01*
X147917373Y-54915239D01*
X158463334Y-39089720D02*
X158501429Y-39127815D01*
X158615715Y-39165910D01*
X158691906Y-39165910D01*
X158806191Y-39127815D01*
X158882382Y-39051625D01*
X158920477Y-38975434D01*
X158958572Y-38823053D01*
X158958572Y-38708767D01*
X158920477Y-38556386D01*
X158882382Y-38480196D01*
X158806191Y-38404006D01*
X158691906Y-38365910D01*
X158615715Y-38365910D01*
X158501429Y-38404006D01*
X158463334Y-38442101D01*
X158196668Y-38365910D02*
X157701429Y-38365910D01*
X157968096Y-38670672D01*
X157853810Y-38670672D01*
X157777620Y-38708767D01*
X157739525Y-38746863D01*
X157701429Y-38823053D01*
X157701429Y-39013529D01*
X157739525Y-39089720D01*
X157777620Y-39127815D01*
X157853810Y-39165910D01*
X158082382Y-39165910D01*
X158158572Y-39127815D01*
X158196668Y-39089720D01*
X145667378Y-41065715D02*
X145705474Y-41103810D01*
X145819759Y-41141905D01*
X145895950Y-41141905D01*
X146010236Y-41103810D01*
X146086426Y-41027620D01*
X146124521Y-40951429D01*
X146162617Y-40799048D01*
X146162617Y-40684762D01*
X146124521Y-40532381D01*
X146086426Y-40456191D01*
X146010236Y-40380001D01*
X145895950Y-40341905D01*
X145819759Y-40341905D01*
X145705474Y-40380001D01*
X145667378Y-40418096D01*
X145362617Y-40418096D02*
X145324521Y-40380001D01*
X145248331Y-40341905D01*
X145057855Y-40341905D01*
X144981664Y-40380001D01*
X144943569Y-40418096D01*
X144905474Y-40494286D01*
X144905474Y-40570477D01*
X144943569Y-40684762D01*
X145400712Y-41141905D01*
X144905474Y-41141905D01*
X149794402Y3082976D02*
X148994402Y3082976D01*
X148994402Y2892500D01*
X149032498Y2778214D01*
X149108688Y2702023D01*
X149184878Y2663928D01*
X149337259Y2625833D01*
X149451545Y2625833D01*
X149603926Y2663928D01*
X149680117Y2702023D01*
X149756307Y2778214D01*
X149794402Y2892500D01*
X149794402Y3082976D01*
X149794402Y1863928D02*
X149794402Y2321071D01*
X149794402Y2092500D02*
X148994402Y2092500D01*
X149108688Y2168690D01*
X149184878Y2244880D01*
X149222974Y2321071D01*
X162463330Y-53871904D02*
X162729997Y-53490952D01*
X162920473Y-53871904D02*
X162920473Y-53071904D01*
X162615711Y-53071904D01*
X162539520Y-53110000D01*
X162501425Y-53148095D01*
X162463330Y-53224285D01*
X162463330Y-53338571D01*
X162501425Y-53414761D01*
X162539520Y-53452857D01*
X162615711Y-53490952D01*
X162920473Y-53490952D01*
X162196663Y-53071904D02*
X161663330Y-53071904D01*
X162006187Y-53871904D01*
X162463330Y-50371904D02*
X162729997Y-49990952D01*
X162920473Y-50371904D02*
X162920473Y-49571904D01*
X162615711Y-49571904D01*
X162539520Y-49610000D01*
X162501425Y-49648095D01*
X162463330Y-49724285D01*
X162463330Y-49838571D01*
X162501425Y-49914761D01*
X162539520Y-49952857D01*
X162615711Y-49990952D01*
X162920473Y-49990952D01*
X161777616Y-49838571D02*
X161777616Y-50371904D01*
X161968092Y-49533809D02*
X162158568Y-50105238D01*
X161663330Y-50105238D01*
X148683326Y-58681905D02*
X148949993Y-58300953D01*
X149140469Y-58681905D02*
X149140469Y-57881905D01*
X148835707Y-57881905D01*
X148759516Y-57920001D01*
X148721421Y-57958096D01*
X148683326Y-58034286D01*
X148683326Y-58148572D01*
X148721421Y-58224762D01*
X148759516Y-58262858D01*
X148835707Y-58300953D01*
X149140469Y-58300953D01*
X148226183Y-58224762D02*
X148302373Y-58186667D01*
X148340469Y-58148572D01*
X148378564Y-58072381D01*
X148378564Y-58034286D01*
X148340469Y-57958096D01*
X148302373Y-57920001D01*
X148226183Y-57881905D01*
X148073802Y-57881905D01*
X147997612Y-57920001D01*
X147959516Y-57958096D01*
X147921421Y-58034286D01*
X147921421Y-58072381D01*
X147959516Y-58148572D01*
X147997612Y-58186667D01*
X148073802Y-58224762D01*
X148226183Y-58224762D01*
X148302373Y-58262858D01*
X148340469Y-58300953D01*
X148378564Y-58377143D01*
X148378564Y-58529524D01*
X148340469Y-58605715D01*
X148302373Y-58643810D01*
X148226183Y-58681905D01*
X148073802Y-58681905D01*
X147997612Y-58643810D01*
X147959516Y-58605715D01*
X147921421Y-58529524D01*
X147921421Y-58377143D01*
X147959516Y-58300953D01*
X147997612Y-58262858D01*
X148073802Y-58224762D01*
X153336184Y-26248096D02*
X153412374Y-26210001D01*
X153488565Y-26133810D01*
X153602851Y-26019524D01*
X153679041Y-25981429D01*
X153755232Y-25981429D01*
X153717136Y-26171905D02*
X153793327Y-26133810D01*
X153869517Y-26057620D01*
X153907613Y-25905239D01*
X153907613Y-25638572D01*
X153869517Y-25486191D01*
X153793327Y-25410001D01*
X153717136Y-25371905D01*
X153564755Y-25371905D01*
X153488565Y-25410001D01*
X153412374Y-25486191D01*
X153374279Y-25638572D01*
X153374279Y-25905239D01*
X153412374Y-26057620D01*
X153488565Y-26133810D01*
X153564755Y-26171905D01*
X153717136Y-26171905D01*
X152612374Y-26171905D02*
X153069517Y-26171905D01*
X152840946Y-26171905D02*
X152840946Y-25371905D01*
X152917136Y-25486191D01*
X152993327Y-25562381D01*
X153069517Y-25600477D01*
X141061447Y-19466595D02*
X141227776Y-18684077D01*
X141041462Y-18644475D01*
X140921754Y-18657976D01*
X140831387Y-18716661D01*
X140778283Y-18783266D01*
X140709339Y-18924397D01*
X140685578Y-19036185D01*
X140691159Y-19193156D01*
X140712580Y-19275602D01*
X140771265Y-19365969D01*
X140875133Y-19426993D01*
X141061447Y-19466595D01*
X139869038Y-19213141D02*
X140316191Y-19308186D01*
X140092615Y-19260664D02*
X140258944Y-18478145D01*
X140309708Y-18605775D01*
X140368393Y-18696141D01*
X140434998Y-18749245D01*
X139496411Y-19133936D02*
X139347360Y-19102255D01*
X139280754Y-19049151D01*
X139251412Y-19003968D01*
X139200648Y-18876339D01*
X139195067Y-18719367D01*
X139258431Y-18421265D01*
X139311534Y-18354660D01*
X139356717Y-18325318D01*
X139439163Y-18303896D01*
X139588214Y-18335577D01*
X139654820Y-18388681D01*
X139684162Y-18433864D01*
X139705584Y-18516310D01*
X139665982Y-18702624D01*
X139612878Y-18769229D01*
X139567695Y-18798572D01*
X139485249Y-18819993D01*
X139336198Y-18788312D01*
X139269593Y-18735208D01*
X139240250Y-18690025D01*
X139218828Y-18607579D01*
X130366878Y-16388225D02*
X130706921Y-16071040D01*
X130814031Y-16483270D02*
X130980360Y-15700752D01*
X130682258Y-15637388D01*
X130599812Y-15658810D01*
X130554629Y-15688153D01*
X130501525Y-15754758D01*
X130477764Y-15866546D01*
X130499186Y-15948992D01*
X130528528Y-15994175D01*
X130595133Y-16047279D01*
X130893235Y-16110642D01*
X130272368Y-15550264D02*
X129787952Y-15447298D01*
X129985427Y-15800843D01*
X129873639Y-15777082D01*
X129791193Y-15798504D01*
X129746010Y-15827846D01*
X129692906Y-15894451D01*
X129653304Y-16080765D01*
X129674726Y-16163211D01*
X129704068Y-16208394D01*
X129770673Y-16261498D01*
X129994250Y-16309020D01*
X130076696Y-16287598D01*
X130121879Y-16258256D01*
X129079959Y-15296809D02*
X129452587Y-15376014D01*
X129410645Y-15756562D01*
X129381303Y-15711379D01*
X129314698Y-15658275D01*
X129128384Y-15618673D01*
X129045938Y-15640095D01*
X129000755Y-15669437D01*
X128947651Y-15736042D01*
X128908049Y-15922356D01*
X128929471Y-16004802D01*
X128958813Y-16049985D01*
X129025418Y-16103089D01*
X129211732Y-16142691D01*
X129294178Y-16121269D01*
X129339361Y-16091927D01*
X145901753Y-78922217D02*
X146068082Y-78139699D01*
X145881768Y-78100097D01*
X145762060Y-78113598D01*
X145671693Y-78172283D01*
X145618589Y-78238888D01*
X145549645Y-78380019D01*
X145525884Y-78491807D01*
X145531465Y-78648778D01*
X145552886Y-78731224D01*
X145611571Y-78821591D01*
X145715439Y-78882615D01*
X145901753Y-78922217D01*
X144709344Y-78668763D02*
X145156497Y-78763808D01*
X144932921Y-78716286D02*
X145099250Y-77933767D01*
X145150014Y-78061397D01*
X145208699Y-78151763D01*
X145275304Y-78204867D01*
X144614834Y-77830802D02*
X144130418Y-77727836D01*
X144327894Y-78081381D01*
X144216106Y-78057620D01*
X144133660Y-78079042D01*
X144088477Y-78108384D01*
X144035373Y-78174989D01*
X143995771Y-78361303D01*
X144017193Y-78443749D01*
X144046535Y-78488932D01*
X144113140Y-78542036D01*
X144336717Y-78589558D01*
X144419163Y-78568137D01*
X144464346Y-78538794D01*
X149569810Y-79701885D02*
X149736139Y-78919367D01*
X149549825Y-78879765D01*
X149430117Y-78893266D01*
X149339750Y-78951951D01*
X149286646Y-79018556D01*
X149217702Y-79159687D01*
X149193941Y-79271475D01*
X149199522Y-79428446D01*
X149220943Y-79510892D01*
X149279628Y-79601259D01*
X149383496Y-79662283D01*
X149569810Y-79701885D01*
X148377401Y-79448431D02*
X148824554Y-79543476D01*
X148600978Y-79495954D02*
X148767307Y-78713435D01*
X148818071Y-78841065D01*
X148876756Y-78931431D01*
X148943361Y-78984535D01*
X148282891Y-78610470D02*
X147761213Y-78499583D01*
X147930248Y-79353386D01*
X140551760Y-58312219D02*
X140718089Y-57529701D01*
X140531775Y-57490099D01*
X140412067Y-57503600D01*
X140321700Y-57562285D01*
X140268596Y-57628890D01*
X140199652Y-57770021D01*
X140175891Y-57881809D01*
X140181472Y-58038780D01*
X140202893Y-58121226D01*
X140261578Y-58211593D01*
X140365446Y-58272617D01*
X140551760Y-58312219D01*
X139359351Y-58058765D02*
X139806504Y-58153810D01*
X139582928Y-58106288D02*
X139749257Y-57323769D01*
X139800021Y-57451399D01*
X139858706Y-57541765D01*
X139925311Y-57594869D01*
X139211738Y-57287409D02*
X139182395Y-57242226D01*
X139115790Y-57189122D01*
X138929476Y-57149520D01*
X138847030Y-57170942D01*
X138801847Y-57200284D01*
X138748744Y-57266889D01*
X138732903Y-57341414D01*
X138746404Y-57461123D01*
X139098512Y-58003322D01*
X138614096Y-57900356D01*
X144219815Y-59091886D02*
X144386144Y-58309368D01*
X144199830Y-58269766D01*
X144080122Y-58283267D01*
X143989755Y-58341952D01*
X143936651Y-58408557D01*
X143867707Y-58549688D01*
X143843946Y-58661476D01*
X143849527Y-58818447D01*
X143870948Y-58900893D01*
X143929633Y-58991260D01*
X144033501Y-59052284D01*
X144219815Y-59091886D01*
X143027406Y-58838432D02*
X143474559Y-58933477D01*
X143250983Y-58885955D02*
X143417312Y-58103436D01*
X143468076Y-58231066D01*
X143526761Y-58321432D01*
X143593366Y-58374536D01*
X142523006Y-57913346D02*
X142672057Y-57945028D01*
X142738662Y-57998131D01*
X142768004Y-58043314D01*
X142818769Y-58170944D01*
X142824350Y-58327915D01*
X142760986Y-58626017D01*
X142707882Y-58692622D01*
X142662699Y-58721965D01*
X142580253Y-58743387D01*
X142431202Y-58711705D01*
X142364597Y-58658601D01*
X142335255Y-58613418D01*
X142313833Y-58530972D01*
X142353435Y-58344658D01*
X142406539Y-58278053D01*
X142451722Y-58248711D01*
X142534168Y-58227289D01*
X142683219Y-58258971D01*
X142749824Y-58312074D01*
X142779166Y-58357257D01*
X142800588Y-58439703D01*
X122774567Y-35052278D02*
X122940896Y-34269760D01*
X122754582Y-34230158D01*
X122634874Y-34243659D01*
X122544507Y-34302344D01*
X122491403Y-34368949D01*
X122422459Y-34510080D01*
X122398698Y-34621868D01*
X122404279Y-34778839D01*
X122425700Y-34861285D01*
X122484385Y-34951652D01*
X122588253Y-35012676D01*
X122774567Y-35052278D01*
X121582158Y-34798824D02*
X122029311Y-34893869D01*
X121805735Y-34846347D02*
X121972064Y-34063828D01*
X122022828Y-34191458D01*
X122081513Y-34281824D01*
X122148118Y-34334928D01*
X120836903Y-34640415D02*
X121284056Y-34735460D01*
X121060480Y-34687938D02*
X121226809Y-33905420D01*
X121277573Y-34033049D01*
X121336258Y-34123415D01*
X121402863Y-34176519D01*
X126442618Y-35831948D02*
X126608947Y-35049430D01*
X126422633Y-35009828D01*
X126302925Y-35023329D01*
X126212558Y-35082014D01*
X126159454Y-35148619D01*
X126090510Y-35289750D01*
X126066749Y-35401538D01*
X126072330Y-35558509D01*
X126093751Y-35640955D01*
X126152436Y-35731322D01*
X126256304Y-35792346D01*
X126442618Y-35831948D01*
X125250209Y-35578494D02*
X125697362Y-35673539D01*
X125473786Y-35626017D02*
X125640115Y-34843498D01*
X125690879Y-34971128D01*
X125749564Y-35061494D01*
X125816169Y-35114598D01*
X124708546Y-34645487D02*
X125081174Y-34724692D01*
X125039232Y-35105240D01*
X125009890Y-35060057D01*
X124943285Y-35006953D01*
X124756971Y-34967351D01*
X124674525Y-34988773D01*
X124629342Y-35018115D01*
X124576238Y-35084720D01*
X124536636Y-35271034D01*
X124558058Y-35353480D01*
X124587400Y-35398663D01*
X124654005Y-35451767D01*
X124840319Y-35491369D01*
X124922765Y-35469947D01*
X124967948Y-35440605D01*
X137393388Y-18686926D02*
X137559717Y-17904408D01*
X137373403Y-17864806D01*
X137253695Y-17878307D01*
X137163328Y-17936992D01*
X137110224Y-18003597D01*
X137041280Y-18144728D01*
X137017519Y-18256516D01*
X137023100Y-18413487D01*
X137044521Y-18495933D01*
X137103206Y-18586300D01*
X137207074Y-18647324D01*
X137393388Y-18686926D01*
X136200979Y-18433472D02*
X136648132Y-18528517D01*
X136424556Y-18480995D02*
X136590885Y-17698476D01*
X136641649Y-17826106D01*
X136700334Y-17916472D01*
X136766939Y-17969576D01*
X135641136Y-17769225D02*
X135530250Y-18290904D01*
X135890813Y-17510725D02*
X135958320Y-18109269D01*
X135473904Y-18006303D01*
X133725337Y-17907254D02*
X133891666Y-17124736D01*
X133705352Y-17085134D01*
X133585644Y-17098635D01*
X133495277Y-17157320D01*
X133442173Y-17223925D01*
X133373229Y-17365056D01*
X133349468Y-17476844D01*
X133355049Y-17633815D01*
X133376470Y-17716261D01*
X133435155Y-17806628D01*
X133539023Y-17867652D01*
X133725337Y-17907254D01*
X132532928Y-17653800D02*
X132980081Y-17748845D01*
X132756505Y-17701323D02*
X132922834Y-16918804D01*
X132973598Y-17046434D01*
X133032283Y-17136800D01*
X133098888Y-17189904D01*
X132214842Y-16768316D02*
X132140316Y-16752475D01*
X132057870Y-16773897D01*
X132012687Y-16803239D01*
X131959583Y-16869844D01*
X131890639Y-17010975D01*
X131851037Y-17197289D01*
X131856618Y-17354260D01*
X131878039Y-17436706D01*
X131907382Y-17481890D01*
X131973987Y-17534993D01*
X132048512Y-17550834D01*
X132130958Y-17529412D01*
X132176142Y-17500070D01*
X132229245Y-17433465D01*
X132298190Y-17292334D01*
X132337792Y-17106020D01*
X132332211Y-16949049D01*
X132310789Y-16866603D01*
X132281447Y-16821420D01*
X132214842Y-16768316D01*
X71825470Y-63726905D02*
X71825470Y-62926905D01*
X71634994Y-62926905D01*
X71520708Y-62965001D01*
X71444517Y-63041191D01*
X71406422Y-63117381D01*
X71368327Y-63269762D01*
X71368327Y-63384048D01*
X71406422Y-63536429D01*
X71444517Y-63612620D01*
X71520708Y-63688810D01*
X71634994Y-63726905D01*
X71825470Y-63726905D01*
X70911184Y-63269762D02*
X70987374Y-63231667D01*
X71025470Y-63193572D01*
X71063565Y-63117381D01*
X71063565Y-63079286D01*
X71025470Y-63003096D01*
X70987374Y-62965001D01*
X70911184Y-62926905D01*
X70758803Y-62926905D01*
X70682613Y-62965001D01*
X70644517Y-63003096D01*
X70606422Y-63079286D01*
X70606422Y-63117381D01*
X70644517Y-63193572D01*
X70682613Y-63231667D01*
X70758803Y-63269762D01*
X70911184Y-63269762D01*
X70987374Y-63307858D01*
X71025470Y-63345953D01*
X71063565Y-63422143D01*
X71063565Y-63574524D01*
X71025470Y-63650715D01*
X70987374Y-63688810D01*
X70911184Y-63726905D01*
X70758803Y-63726905D01*
X70682613Y-63688810D01*
X70644517Y-63650715D01*
X70606422Y-63574524D01*
X70606422Y-63422143D01*
X70644517Y-63345953D01*
X70682613Y-63307858D01*
X70758803Y-63269762D01*
X244606425Y-44676403D02*
X244606425Y-43876403D01*
X244415949Y-43876403D01*
X244301663Y-43914499D01*
X244225473Y-43990689D01*
X244187377Y-44066879D01*
X244149282Y-44219260D01*
X244149282Y-44333546D01*
X244187377Y-44485927D01*
X244225473Y-44562118D01*
X244301663Y-44638308D01*
X244415949Y-44676403D01*
X244606425Y-44676403D01*
X243882616Y-43876403D02*
X243387377Y-43876403D01*
X243654044Y-44181165D01*
X243539758Y-44181165D01*
X243463568Y-44219260D01*
X243425473Y-44257356D01*
X243387377Y-44333546D01*
X243387377Y-44524022D01*
X243425473Y-44600213D01*
X243463568Y-44638308D01*
X243539758Y-44676403D01*
X243768330Y-44676403D01*
X243844520Y-44638308D01*
X243882616Y-44600213D01*
X242625473Y-44676403D02*
X243082616Y-44676403D01*
X242854044Y-44676403D02*
X242854044Y-43876403D01*
X242930235Y-43990689D01*
X243006425Y-44066879D01*
X243082616Y-44104975D01*
X248356419Y-44676403D02*
X248356419Y-43876403D01*
X248165943Y-43876403D01*
X248051657Y-43914499D01*
X247975467Y-43990689D01*
X247937371Y-44066879D01*
X247899276Y-44219260D01*
X247899276Y-44333546D01*
X247937371Y-44485927D01*
X247975467Y-44562118D01*
X248051657Y-44638308D01*
X248165943Y-44676403D01*
X248356419Y-44676403D01*
X247632610Y-43876403D02*
X247137371Y-43876403D01*
X247404038Y-44181165D01*
X247289752Y-44181165D01*
X247213562Y-44219260D01*
X247175467Y-44257356D01*
X247137371Y-44333546D01*
X247137371Y-44524022D01*
X247175467Y-44600213D01*
X247213562Y-44638308D01*
X247289752Y-44676403D01*
X247518324Y-44676403D01*
X247594514Y-44638308D01*
X247632610Y-44600213D01*
X246413562Y-43876403D02*
X246794514Y-43876403D01*
X246832610Y-44257356D01*
X246794514Y-44219260D01*
X246718324Y-44181165D01*
X246527848Y-44181165D01*
X246451657Y-44219260D01*
X246413562Y-44257356D01*
X246375467Y-44333546D01*
X246375467Y-44524022D01*
X246413562Y-44600213D01*
X246451657Y-44638308D01*
X246527848Y-44676403D01*
X246718324Y-44676403D01*
X246794514Y-44638308D01*
X246832610Y-44600213D01*
X163955821Y-78848332D02*
X163789492Y-78065814D01*
X163603178Y-78105417D01*
X163499310Y-78166441D01*
X163440626Y-78256807D01*
X163419204Y-78339253D01*
X163413623Y-78496225D01*
X163437384Y-78608013D01*
X163506329Y-78749143D01*
X163559432Y-78815749D01*
X163649799Y-78874433D01*
X163769507Y-78887935D01*
X163955821Y-78848332D01*
X163060077Y-78298749D02*
X163014894Y-78269406D01*
X162932448Y-78247985D01*
X162746134Y-78287587D01*
X162679529Y-78340690D01*
X162650187Y-78385874D01*
X162628765Y-78468320D01*
X162644606Y-78542845D01*
X162705630Y-78646713D01*
X163247829Y-78998821D01*
X162763413Y-79101787D01*
X162336244Y-78374712D02*
X161851828Y-78477677D01*
X162176031Y-78720337D01*
X162064243Y-78744098D01*
X161997638Y-78797201D01*
X161968295Y-78842385D01*
X161946873Y-78924831D01*
X161986476Y-79111145D01*
X162039579Y-79177750D01*
X162084763Y-79207092D01*
X162167209Y-79228514D01*
X162390785Y-79180991D01*
X162457390Y-79127887D01*
X162486733Y-79082704D01*
X167623880Y-78068665D02*
X167457551Y-77286147D01*
X167271237Y-77325750D01*
X167167369Y-77386774D01*
X167108685Y-77477140D01*
X167087263Y-77559586D01*
X167081682Y-77716558D01*
X167105443Y-77828346D01*
X167174388Y-77969476D01*
X167227491Y-78036082D01*
X167317858Y-78094766D01*
X167437566Y-78108268D01*
X167623880Y-78068665D01*
X166728136Y-77519082D02*
X166682953Y-77489739D01*
X166600507Y-77468318D01*
X166414193Y-77507920D01*
X166347588Y-77561023D01*
X166318246Y-77606207D01*
X166296824Y-77688653D01*
X166312665Y-77763178D01*
X166373689Y-77867046D01*
X166915888Y-78219154D01*
X166431472Y-78322120D01*
X166004303Y-77595045D02*
X165482624Y-77705931D01*
X165984319Y-78417165D01*
X169315826Y-58238333D02*
X169149497Y-57455815D01*
X168963183Y-57495418D01*
X168859315Y-57556442D01*
X168800631Y-57646808D01*
X168779209Y-57729254D01*
X168773628Y-57886226D01*
X168797389Y-57998014D01*
X168866334Y-58139144D01*
X168919437Y-58205750D01*
X169009804Y-58264434D01*
X169129512Y-58277936D01*
X169315826Y-58238333D01*
X168420082Y-57688750D02*
X168374899Y-57659407D01*
X168292453Y-57637986D01*
X168106139Y-57677588D01*
X168039534Y-57730691D01*
X168010192Y-57775875D01*
X167988770Y-57858321D01*
X168004611Y-57932846D01*
X168065635Y-58036714D01*
X168607834Y-58388822D01*
X168123418Y-58491788D01*
X167674827Y-57847159D02*
X167629644Y-57817816D01*
X167547198Y-57796394D01*
X167360884Y-57835997D01*
X167294279Y-57889100D01*
X167264937Y-57934284D01*
X167243515Y-58016730D01*
X167259356Y-58091255D01*
X167320380Y-58195123D01*
X167862578Y-58547231D01*
X167378162Y-58650197D01*
X172983880Y-57458666D02*
X172817551Y-56676148D01*
X172631237Y-56715751D01*
X172527369Y-56776775D01*
X172468685Y-56867141D01*
X172447263Y-56949587D01*
X172441682Y-57106559D01*
X172465443Y-57218347D01*
X172534388Y-57359477D01*
X172587491Y-57426083D01*
X172677858Y-57484767D01*
X172797566Y-57498269D01*
X172983880Y-57458666D01*
X172088136Y-56909083D02*
X172042953Y-56879740D01*
X171960507Y-56858319D01*
X171774193Y-56897921D01*
X171707588Y-56951024D01*
X171678246Y-56996208D01*
X171656824Y-57078654D01*
X171672665Y-57153179D01*
X171733689Y-57257047D01*
X172275888Y-57609155D01*
X171791472Y-57712121D01*
X170954413Y-57072171D02*
X171103464Y-57040489D01*
X171185910Y-57061911D01*
X171231093Y-57091253D01*
X171329380Y-57187200D01*
X171398324Y-57328331D01*
X171461688Y-57626433D01*
X171440266Y-57708879D01*
X171410924Y-57754062D01*
X171344319Y-57807166D01*
X171195268Y-57838848D01*
X171112822Y-57817426D01*
X171067638Y-57788084D01*
X171014535Y-57721479D01*
X170974932Y-57535165D01*
X170996354Y-57452719D01*
X171025697Y-57407535D01*
X171092302Y-57354432D01*
X171241353Y-57322750D01*
X171323799Y-57344172D01*
X171368982Y-57373514D01*
X171422086Y-57440119D01*
X179359065Y-36621339D02*
X179192736Y-35838821D01*
X179006422Y-35878424D01*
X178902554Y-35939448D01*
X178843870Y-36029814D01*
X178822448Y-36112260D01*
X178816867Y-36269232D01*
X178840628Y-36381020D01*
X178909573Y-36522150D01*
X178962676Y-36588756D01*
X179053043Y-36647440D01*
X179172751Y-36660942D01*
X179359065Y-36621339D01*
X178463321Y-36071756D02*
X178418138Y-36042413D01*
X178335692Y-36020992D01*
X178149378Y-36060594D01*
X178082773Y-36113697D01*
X178053431Y-36158881D01*
X178032009Y-36241327D01*
X178047850Y-36315852D01*
X178108874Y-36419720D01*
X178651073Y-36771828D01*
X178166657Y-36874794D01*
X177421401Y-37033203D02*
X177868555Y-36938157D01*
X177644978Y-36985680D02*
X177478649Y-36203162D01*
X177576936Y-36299109D01*
X177667302Y-36357794D01*
X177749748Y-36379216D01*
X183027116Y-35841670D02*
X182860787Y-35059152D01*
X182674473Y-35098755D01*
X182570605Y-35159779D01*
X182511921Y-35250145D01*
X182490499Y-35332591D01*
X182484918Y-35489563D01*
X182508679Y-35601351D01*
X182577624Y-35742481D01*
X182630727Y-35809087D01*
X182721094Y-35867771D01*
X182840802Y-35881273D01*
X183027116Y-35841670D01*
X182131372Y-35292087D02*
X182086189Y-35262744D01*
X182003743Y-35241323D01*
X181817429Y-35280925D01*
X181750824Y-35334028D01*
X181721482Y-35379212D01*
X181700060Y-35461658D01*
X181715901Y-35536183D01*
X181776925Y-35640051D01*
X182319124Y-35992159D01*
X181834708Y-36095125D01*
X180960386Y-35463095D02*
X181333014Y-35383891D01*
X181449481Y-35748598D01*
X181404298Y-35719255D01*
X181321852Y-35697834D01*
X181135538Y-35737436D01*
X181068933Y-35790539D01*
X181039590Y-35835723D01*
X181018168Y-35918169D01*
X181057771Y-36104483D01*
X181110874Y-36171088D01*
X181156058Y-36200430D01*
X181238504Y-36221852D01*
X181424817Y-36182250D01*
X181491422Y-36129146D01*
X181520765Y-36083963D01*
X166055826Y-19978331D02*
X165889497Y-19195813D01*
X165703183Y-19235416D01*
X165599315Y-19296440D01*
X165540631Y-19386806D01*
X165519209Y-19469252D01*
X165513628Y-19626224D01*
X165537389Y-19738012D01*
X165606334Y-19879142D01*
X165659437Y-19945748D01*
X165749804Y-20004432D01*
X165869512Y-20017934D01*
X166055826Y-19978331D01*
X165160082Y-19428748D02*
X165114899Y-19399405D01*
X165032453Y-19377984D01*
X164846139Y-19417586D01*
X164779534Y-19470689D01*
X164750192Y-19515873D01*
X164728770Y-19598319D01*
X164744611Y-19672844D01*
X164805635Y-19776712D01*
X165347834Y-20128820D01*
X164863418Y-20231786D01*
X164212672Y-19552233D02*
X164138147Y-19568074D01*
X164071542Y-19621178D01*
X164042200Y-19666361D01*
X164020778Y-19748807D01*
X164015197Y-19905779D01*
X164054799Y-20092092D01*
X164123743Y-20233223D01*
X164176847Y-20299828D01*
X164222030Y-20329170D01*
X164304476Y-20350592D01*
X164379002Y-20334751D01*
X164445607Y-20281648D01*
X164474949Y-20236465D01*
X164496371Y-20154019D01*
X164501952Y-19997047D01*
X164462350Y-19810733D01*
X164393405Y-19669603D01*
X164340302Y-19602998D01*
X164295118Y-19573655D01*
X164212672Y-19552233D01*
X169723877Y-19198662D02*
X169557548Y-18416144D01*
X169371234Y-18455747D01*
X169267366Y-18516771D01*
X169208682Y-18607137D01*
X169187260Y-18689583D01*
X169181679Y-18846555D01*
X169205440Y-18958343D01*
X169274385Y-19099473D01*
X169327488Y-19166079D01*
X169417855Y-19224763D01*
X169537563Y-19238265D01*
X169723877Y-19198662D01*
X168828133Y-18649079D02*
X168782950Y-18619736D01*
X168700504Y-18598315D01*
X168514190Y-18637917D01*
X168447585Y-18691020D01*
X168418243Y-18736204D01*
X168396821Y-18818650D01*
X168412662Y-18893175D01*
X168473686Y-18997043D01*
X169015885Y-19349151D01*
X168531469Y-19452117D01*
X167749853Y-19073006D02*
X167860739Y-19594685D01*
X167872803Y-18735302D02*
X168177924Y-19254641D01*
X167693508Y-19357607D01*
X239246420Y-63726905D02*
X239246420Y-62926905D01*
X239055944Y-62926905D01*
X238941658Y-62965001D01*
X238865468Y-63041191D01*
X238827372Y-63117381D01*
X238789277Y-63269762D01*
X238789277Y-63384048D01*
X238827372Y-63536429D01*
X238865468Y-63612620D01*
X238941658Y-63688810D01*
X239055944Y-63726905D01*
X239246420Y-63726905D01*
X238522611Y-62926905D02*
X238027372Y-62926905D01*
X238294039Y-63231667D01*
X238179753Y-63231667D01*
X238103563Y-63269762D01*
X238065468Y-63307858D01*
X238027372Y-63384048D01*
X238027372Y-63574524D01*
X238065468Y-63650715D01*
X238103563Y-63688810D01*
X238179753Y-63726905D01*
X238408325Y-63726905D01*
X238484515Y-63688810D01*
X238522611Y-63650715D01*
X237722611Y-63003096D02*
X237684515Y-62965001D01*
X237608325Y-62926905D01*
X237417849Y-62926905D01*
X237341658Y-62965001D01*
X237303563Y-63003096D01*
X237265468Y-63079286D01*
X237265468Y-63155477D01*
X237303563Y-63269762D01*
X237760706Y-63726905D01*
X237265468Y-63726905D01*
X258366419Y-25649405D02*
X258366419Y-24849405D01*
X258175943Y-24849405D01*
X258061657Y-24887501D01*
X257985467Y-24963691D01*
X257947371Y-25039881D01*
X257909276Y-25192262D01*
X257909276Y-25306548D01*
X257947371Y-25458929D01*
X257985467Y-25535120D01*
X258061657Y-25611310D01*
X258175943Y-25649405D01*
X258366419Y-25649405D01*
X257642610Y-24849405D02*
X257147371Y-24849405D01*
X257414038Y-25154167D01*
X257299752Y-25154167D01*
X257223562Y-25192262D01*
X257185467Y-25230358D01*
X257147371Y-25306548D01*
X257147371Y-25497024D01*
X257185467Y-25573215D01*
X257223562Y-25611310D01*
X257299752Y-25649405D01*
X257528324Y-25649405D01*
X257604514Y-25611310D01*
X257642610Y-25573215D01*
X256461657Y-25116072D02*
X256461657Y-25649405D01*
X256652133Y-24811310D02*
X256842610Y-25382739D01*
X256347371Y-25382739D01*
X254616419Y-25649403D02*
X254616419Y-24849403D01*
X254425943Y-24849403D01*
X254311657Y-24887499D01*
X254235467Y-24963689D01*
X254197371Y-25039879D01*
X254159276Y-25192260D01*
X254159276Y-25306546D01*
X254197371Y-25458927D01*
X254235467Y-25535118D01*
X254311657Y-25611308D01*
X254425943Y-25649403D01*
X254616419Y-25649403D01*
X253892610Y-24849403D02*
X253397371Y-24849403D01*
X253664038Y-25154165D01*
X253549752Y-25154165D01*
X253473562Y-25192260D01*
X253435467Y-25230356D01*
X253397371Y-25306546D01*
X253397371Y-25497022D01*
X253435467Y-25573213D01*
X253473562Y-25611308D01*
X253549752Y-25649403D01*
X253778324Y-25649403D01*
X253854514Y-25611308D01*
X253892610Y-25573213D01*
X252902133Y-24849403D02*
X252825943Y-24849403D01*
X252749752Y-24887499D01*
X252711657Y-24925594D01*
X252673562Y-25001784D01*
X252635467Y-25154165D01*
X252635467Y-25344641D01*
X252673562Y-25497022D01*
X252711657Y-25573213D01*
X252749752Y-25611308D01*
X252825943Y-25649403D01*
X252902133Y-25649403D01*
X252978324Y-25611308D01*
X253016419Y-25573213D01*
X253054514Y-25497022D01*
X253092610Y-25344641D01*
X253092610Y-25154165D01*
X253054514Y-25001784D01*
X253016419Y-24925594D01*
X252978324Y-24887499D01*
X252902133Y-24849403D01*
X245096425Y-4436904D02*
X245096425Y-3636904D01*
X244905949Y-3636904D01*
X244791663Y-3675000D01*
X244715473Y-3751190D01*
X244677377Y-3827380D01*
X244639282Y-3979761D01*
X244639282Y-4094047D01*
X244677377Y-4246428D01*
X244715473Y-4322619D01*
X244791663Y-4398809D01*
X244905949Y-4436904D01*
X245096425Y-4436904D01*
X244372616Y-3636904D02*
X243877377Y-3636904D01*
X244144044Y-3941666D01*
X244029758Y-3941666D01*
X243953568Y-3979761D01*
X243915473Y-4017857D01*
X243877377Y-4094047D01*
X243877377Y-4284523D01*
X243915473Y-4360714D01*
X243953568Y-4398809D01*
X244029758Y-4436904D01*
X244258330Y-4436904D01*
X244334520Y-4398809D01*
X244372616Y-4360714D01*
X243610711Y-3636904D02*
X243115473Y-3636904D01*
X243382139Y-3941666D01*
X243267854Y-3941666D01*
X243191663Y-3979761D01*
X243153568Y-4017857D01*
X243115473Y-4094047D01*
X243115473Y-4284523D01*
X243153568Y-4360714D01*
X243191663Y-4398809D01*
X243267854Y-4436904D01*
X243496425Y-4436904D01*
X243572616Y-4398809D01*
X243610711Y-4360714D01*
X241346419Y-4436905D02*
X241346419Y-3636905D01*
X241155943Y-3636905D01*
X241041657Y-3675001D01*
X240965467Y-3751191D01*
X240927371Y-3827381D01*
X240889276Y-3979762D01*
X240889276Y-4094048D01*
X240927371Y-4246429D01*
X240965467Y-4322620D01*
X241041657Y-4398810D01*
X241155943Y-4436905D01*
X241346419Y-4436905D01*
X240584514Y-3713096D02*
X240546419Y-3675001D01*
X240470229Y-3636905D01*
X240279752Y-3636905D01*
X240203562Y-3675001D01*
X240165467Y-3713096D01*
X240127371Y-3789286D01*
X240127371Y-3865477D01*
X240165467Y-3979762D01*
X240622610Y-4436905D01*
X240127371Y-4436905D01*
X239746419Y-4436905D02*
X239594038Y-4436905D01*
X239517848Y-4398810D01*
X239479752Y-4360715D01*
X239403562Y-4246429D01*
X239365467Y-4094048D01*
X239365467Y-3789286D01*
X239403562Y-3713096D01*
X239441657Y-3675001D01*
X239517848Y-3636905D01*
X239670229Y-3636905D01*
X239746419Y-3675001D01*
X239784514Y-3713096D01*
X239822610Y-3789286D01*
X239822610Y-3979762D01*
X239784514Y-4055953D01*
X239746419Y-4094048D01*
X239670229Y-4132143D01*
X239517848Y-4132143D01*
X239441657Y-4094048D01*
X239403562Y-4055953D01*
X239365467Y-3979762D01*
X69090472Y-44676904D02*
X69090472Y-43876904D01*
X68899996Y-43876904D01*
X68785710Y-43915000D01*
X68709519Y-43991190D01*
X68671424Y-44067380D01*
X68633329Y-44219761D01*
X68633329Y-44334047D01*
X68671424Y-44486428D01*
X68709519Y-44562619D01*
X68785710Y-44638809D01*
X68899996Y-44676904D01*
X69090472Y-44676904D01*
X68366662Y-43876904D02*
X67833329Y-43876904D01*
X68176186Y-44676904D01*
X65340467Y-44676905D02*
X65340467Y-43876905D01*
X65149991Y-43876905D01*
X65035705Y-43915001D01*
X64959514Y-43991191D01*
X64921419Y-44067381D01*
X64883324Y-44219762D01*
X64883324Y-44334048D01*
X64921419Y-44486429D01*
X64959514Y-44562620D01*
X65035705Y-44638810D01*
X65149991Y-44676905D01*
X65340467Y-44676905D01*
X64197610Y-44143572D02*
X64197610Y-44676905D01*
X64388086Y-43838810D02*
X64578562Y-44410239D01*
X64083324Y-44410239D01*
X64640467Y-25626905D02*
X64640467Y-24826905D01*
X64449991Y-24826905D01*
X64335705Y-24865001D01*
X64259514Y-24941191D01*
X64221419Y-25017381D01*
X64183324Y-25169762D01*
X64183324Y-25284048D01*
X64221419Y-25436429D01*
X64259514Y-25512620D01*
X64335705Y-25588810D01*
X64449991Y-25626905D01*
X64640467Y-25626905D01*
X63916657Y-24826905D02*
X63421419Y-24826905D01*
X63688086Y-25131667D01*
X63573800Y-25131667D01*
X63497610Y-25169762D01*
X63459514Y-25207858D01*
X63421419Y-25284048D01*
X63421419Y-25474524D01*
X63459514Y-25550715D01*
X63497610Y-25588810D01*
X63573800Y-25626905D01*
X63802371Y-25626905D01*
X63878562Y-25588810D01*
X63916657Y-25550715D01*
X68390467Y-25626903D02*
X68390467Y-24826903D01*
X68199991Y-24826903D01*
X68085705Y-24864999D01*
X68009514Y-24941189D01*
X67971419Y-25017379D01*
X67933324Y-25169760D01*
X67933324Y-25284046D01*
X67971419Y-25436427D01*
X68009514Y-25512618D01*
X68085705Y-25588808D01*
X68199991Y-25626903D01*
X68390467Y-25626903D01*
X67247610Y-24826903D02*
X67399991Y-24826903D01*
X67476181Y-24864999D01*
X67514276Y-24903094D01*
X67590467Y-25017379D01*
X67628562Y-25169760D01*
X67628562Y-25474522D01*
X67590467Y-25550713D01*
X67552371Y-25588808D01*
X67476181Y-25626903D01*
X67323800Y-25626903D01*
X67247610Y-25588808D01*
X67209514Y-25550713D01*
X67171419Y-25474522D01*
X67171419Y-25284046D01*
X67209514Y-25207856D01*
X67247610Y-25169760D01*
X67323800Y-25131665D01*
X67476181Y-25131665D01*
X67552371Y-25169760D01*
X67590467Y-25207856D01*
X67628562Y-25284046D01*
X59590467Y-4436905D02*
X59590467Y-3636905D01*
X59399991Y-3636905D01*
X59285705Y-3675001D01*
X59209514Y-3751191D01*
X59171419Y-3827381D01*
X59133324Y-3979762D01*
X59133324Y-4094048D01*
X59171419Y-4246429D01*
X59209514Y-4322620D01*
X59285705Y-4398810D01*
X59399991Y-4436905D01*
X59590467Y-4436905D01*
X58828562Y-3713096D02*
X58790467Y-3675001D01*
X58714276Y-3636905D01*
X58523800Y-3636905D01*
X58447610Y-3675001D01*
X58409514Y-3713096D01*
X58371419Y-3789286D01*
X58371419Y-3865477D01*
X58409514Y-3979762D01*
X58866657Y-4436905D01*
X58371419Y-4436905D01*
X63340469Y-4436902D02*
X63340469Y-3636902D01*
X63149993Y-3636902D01*
X63035707Y-3674998D01*
X62959516Y-3751188D01*
X62921421Y-3827378D01*
X62883326Y-3979759D01*
X62883326Y-4094045D01*
X62921421Y-4246426D01*
X62959516Y-4322617D01*
X63035707Y-4398807D01*
X63149993Y-4436902D01*
X63340469Y-4436902D01*
X62159516Y-3636902D02*
X62540469Y-3636902D01*
X62578564Y-4017855D01*
X62540469Y-3979759D01*
X62464278Y-3941664D01*
X62273802Y-3941664D01*
X62197612Y-3979759D01*
X62159516Y-4017855D01*
X62121421Y-4094045D01*
X62121421Y-4284521D01*
X62159516Y-4360712D01*
X62197612Y-4398807D01*
X62273802Y-4436902D01*
X62464278Y-4436902D01*
X62540469Y-4398807D01*
X62578564Y-4360712D01*
X242996424Y-63726903D02*
X242996424Y-62926903D01*
X242805948Y-62926903D01*
X242691662Y-62964999D01*
X242615472Y-63041189D01*
X242577376Y-63117379D01*
X242539281Y-63269760D01*
X242539281Y-63384046D01*
X242577376Y-63536427D01*
X242615472Y-63612618D01*
X242691662Y-63688808D01*
X242805948Y-63726903D01*
X242996424Y-63726903D01*
X242272615Y-62926903D02*
X241777376Y-62926903D01*
X242044043Y-63231665D01*
X241929757Y-63231665D01*
X241853567Y-63269760D01*
X241815472Y-63307856D01*
X241777376Y-63384046D01*
X241777376Y-63574522D01*
X241815472Y-63650713D01*
X241853567Y-63688808D01*
X241929757Y-63726903D01*
X242158329Y-63726903D01*
X242234519Y-63688808D01*
X242272615Y-63650713D01*
X241091662Y-62926903D02*
X241244043Y-62926903D01*
X241320234Y-62964999D01*
X241358329Y-63003094D01*
X241434519Y-63117379D01*
X241472615Y-63269760D01*
X241472615Y-63574522D01*
X241434519Y-63650713D01*
X241396424Y-63688808D01*
X241320234Y-63726903D01*
X241167853Y-63726903D01*
X241091662Y-63688808D01*
X241053567Y-63650713D01*
X241015472Y-63574522D01*
X241015472Y-63384046D01*
X241053567Y-63307856D01*
X241091662Y-63269760D01*
X241167853Y-63231665D01*
X241320234Y-63231665D01*
X241396424Y-63269760D01*
X241434519Y-63307856D01*
X241472615Y-63384046D01*
X-3382813Y-67422478D02*
X-3763765Y-67155811D01*
X-3382813Y-66965335D02*
X-4182813Y-66965335D01*
X-4182813Y-67270097D01*
X-4144718Y-67346288D01*
X-4106622Y-67384383D01*
X-4030432Y-67422478D01*
X-3916146Y-67422478D01*
X-3839956Y-67384383D01*
X-3801860Y-67346288D01*
X-3763765Y-67270097D01*
X-3763765Y-66965335D01*
X-4182813Y-67689145D02*
X-4182813Y-68222478D01*
X-3382813Y-67879621D01*
X-4182813Y-68451049D02*
X-4182813Y-68984383D01*
X-3382813Y-68641526D01*
X-4982813Y-67422478D02*
X-5363765Y-67155811D01*
X-4982813Y-66965335D02*
X-5782813Y-66965335D01*
X-5782813Y-67270097D01*
X-5744718Y-67346288D01*
X-5706622Y-67384383D01*
X-5630432Y-67422478D01*
X-5516146Y-67422478D01*
X-5439956Y-67384383D01*
X-5401860Y-67346288D01*
X-5363765Y-67270097D01*
X-5363765Y-66965335D01*
X-5782813Y-67689145D02*
X-5782813Y-68222478D01*
X-4982813Y-67879621D01*
X-5782813Y-68870097D02*
X-5782813Y-68717716D01*
X-5744718Y-68641526D01*
X-5706622Y-68603430D01*
X-5592337Y-68527240D01*
X-5439956Y-68489145D01*
X-5135194Y-68489145D01*
X-5059003Y-68527240D01*
X-5020908Y-68565335D01*
X-4982813Y-68641526D01*
X-4982813Y-68793907D01*
X-5020908Y-68870097D01*
X-5059003Y-68908192D01*
X-5135194Y-68946288D01*
X-5325670Y-68946288D01*
X-5401860Y-68908192D01*
X-5439956Y-68870097D01*
X-5478051Y-68793907D01*
X-5478051Y-68641526D01*
X-5439956Y-68565335D01*
X-5401860Y-68527240D01*
X-5325670Y-68489145D01*
X-6582812Y-67422478D02*
X-6963764Y-67155811D01*
X-6582812Y-66965335D02*
X-7382812Y-66965335D01*
X-7382812Y-67270097D01*
X-7344717Y-67346288D01*
X-7306621Y-67384383D01*
X-7230431Y-67422478D01*
X-7116145Y-67422478D01*
X-7039955Y-67384383D01*
X-7001859Y-67346288D01*
X-6963764Y-67270097D01*
X-6963764Y-66965335D01*
X-7382812Y-67689145D02*
X-7382812Y-68222478D01*
X-6582812Y-67879621D01*
X-7382812Y-68908192D02*
X-7382812Y-68527240D01*
X-7001859Y-68489145D01*
X-7039955Y-68527240D01*
X-7078050Y-68603430D01*
X-7078050Y-68793907D01*
X-7039955Y-68870097D01*
X-7001859Y-68908192D01*
X-6925669Y-68946288D01*
X-6735193Y-68946288D01*
X-6659002Y-68908192D01*
X-6620907Y-68870097D01*
X-6582812Y-68793907D01*
X-6582812Y-68603430D01*
X-6620907Y-68527240D01*
X-6659002Y-68489145D01*
X162768091Y-56183807D02*
X162729996Y-56107617D01*
X162653805Y-56031426D01*
X162539519Y-55917140D01*
X162501424Y-55840950D01*
X162501424Y-55764759D01*
X162691900Y-55802855D02*
X162653805Y-55726664D01*
X162577615Y-55650474D01*
X162425234Y-55612378D01*
X162158567Y-55612378D01*
X162006186Y-55650474D01*
X161929996Y-55726664D01*
X161891900Y-55802855D01*
X161891900Y-55955236D01*
X161929996Y-56031426D01*
X162006186Y-56107617D01*
X162158567Y-56145712D01*
X162425234Y-56145712D01*
X162577615Y-56107617D01*
X162653805Y-56031426D01*
X162691900Y-55955236D01*
X162691900Y-55802855D01*
X161968091Y-56450474D02*
X161929996Y-56488569D01*
X161891900Y-56564759D01*
X161891900Y-56755236D01*
X161929996Y-56831426D01*
X161968091Y-56869521D01*
X162044281Y-56907617D01*
X162120472Y-56907617D01*
X162234757Y-56869521D01*
X162691900Y-56412378D01*
X162691900Y-56907617D01*
X156669401Y-2690475D02*
X157317020Y-2690475D01*
X157393211Y-2728570D01*
X157431306Y-2766665D01*
X157469401Y-2842856D01*
X157469401Y-2995237D01*
X157431306Y-3071427D01*
X157393211Y-3109522D01*
X157317020Y-3147618D01*
X156669401Y-3147618D01*
X156745592Y-3490475D02*
X156707497Y-3528570D01*
X156669401Y-3604760D01*
X156669401Y-3795237D01*
X156707497Y-3871427D01*
X156745592Y-3909522D01*
X156821782Y-3947618D01*
X156897973Y-3947618D01*
X157012258Y-3909522D01*
X157469401Y-3452379D01*
X157469401Y-3947618D01*
X158211898Y-45370476D02*
X158859517Y-45370476D01*
X158935708Y-45408571D01*
X158973803Y-45446666D01*
X159011898Y-45522857D01*
X159011898Y-45675238D01*
X158973803Y-45751428D01*
X158935708Y-45789523D01*
X158859517Y-45827619D01*
X158211898Y-45827619D01*
X159011898Y-46627619D02*
X159011898Y-46170476D01*
X159011898Y-46399047D02*
X158211898Y-46399047D01*
X158326184Y-46322857D01*
X158402374Y-46246666D01*
X158440470Y-46170476D01*
X158479255Y-53392700D02*
X158364969Y-53430795D01*
X158174493Y-53430795D01*
X158098303Y-53392700D01*
X158060208Y-53354605D01*
X158022112Y-53278414D01*
X158022112Y-53202224D01*
X158060208Y-53126033D01*
X158098303Y-53087938D01*
X158174493Y-53049843D01*
X158326874Y-53011748D01*
X158403065Y-52973652D01*
X158441160Y-52935557D01*
X158479255Y-52859367D01*
X158479255Y-52783176D01*
X158441160Y-52706986D01*
X158403065Y-52668891D01*
X158326874Y-52630795D01*
X158136398Y-52630795D01*
X158022112Y-52668891D01*
X157755446Y-52630795D02*
X157564969Y-53430795D01*
X157412589Y-52859367D01*
X157260208Y-53430795D01*
X157069731Y-52630795D01*
X156345922Y-53430795D02*
X156803065Y-53430795D01*
X156574493Y-53430795D02*
X156574493Y-52630795D01*
X156650684Y-52745081D01*
X156726874Y-52821271D01*
X156803065Y-52859367D01*
X316591903Y-83663211D02*
X316210951Y-83396544D01*
X316591903Y-83206068D02*
X315791903Y-83206068D01*
X315791903Y-83510830D01*
X315829999Y-83587020D01*
X315868094Y-83625116D01*
X315944284Y-83663211D01*
X316058570Y-83663211D01*
X316134760Y-83625116D01*
X316172856Y-83587020D01*
X316210951Y-83510830D01*
X316210951Y-83206068D01*
X315791903Y-83929877D02*
X315791903Y-84463211D01*
X316591903Y-84120354D01*
X316058570Y-85110830D02*
X316591903Y-85110830D01*
X315753808Y-84920354D02*
X316325237Y-84729877D01*
X316325237Y-85225116D01*
X325031902Y-64563215D02*
X324650950Y-64296548D01*
X325031902Y-64106072D02*
X324231902Y-64106072D01*
X324231902Y-64410834D01*
X324269998Y-64487024D01*
X324308093Y-64525120D01*
X324384283Y-64563215D01*
X324498569Y-64563215D01*
X324574759Y-64525120D01*
X324612855Y-64487024D01*
X324650950Y-64410834D01*
X324650950Y-64106072D01*
X324231902Y-64829881D02*
X324231902Y-65363215D01*
X325031902Y-65020358D01*
X324231902Y-65591786D02*
X324231902Y-66087024D01*
X324536664Y-65820358D01*
X324536664Y-65934643D01*
X324574759Y-66010834D01*
X324612855Y-66048929D01*
X324689045Y-66087024D01*
X324879521Y-66087024D01*
X324955712Y-66048929D01*
X324993807Y-66010834D01*
X325031902Y-65934643D01*
X325031902Y-65706072D01*
X324993807Y-65629881D01*
X324955712Y-65591786D01*
X308951903Y-45513216D02*
X308570951Y-45246549D01*
X308951903Y-45056073D02*
X308151903Y-45056073D01*
X308151903Y-45360835D01*
X308189999Y-45437025D01*
X308228094Y-45475121D01*
X308304284Y-45513216D01*
X308418570Y-45513216D01*
X308494760Y-45475121D01*
X308532856Y-45437025D01*
X308570951Y-45360835D01*
X308570951Y-45056073D01*
X308151903Y-45779882D02*
X308151903Y-46313216D01*
X308951903Y-45970359D01*
X308228094Y-46579882D02*
X308189999Y-46617978D01*
X308151903Y-46694168D01*
X308151903Y-46884644D01*
X308189999Y-46960835D01*
X308228094Y-46998930D01*
X308304284Y-47037025D01*
X308380475Y-47037025D01*
X308494760Y-46998930D01*
X308951903Y-46541787D01*
X308951903Y-47037025D01*
X311831901Y-26463212D02*
X311450949Y-26196545D01*
X311831901Y-26006069D02*
X311031901Y-26006069D01*
X311031901Y-26310831D01*
X311069997Y-26387021D01*
X311108092Y-26425117D01*
X311184282Y-26463212D01*
X311298568Y-26463212D01*
X311374758Y-26425117D01*
X311412854Y-26387021D01*
X311450949Y-26310831D01*
X311450949Y-26006069D01*
X311031901Y-26729878D02*
X311031901Y-27263212D01*
X311831901Y-26920355D01*
X311831901Y-27987021D02*
X311831901Y-27529878D01*
X311831901Y-27758450D02*
X311031901Y-27758450D01*
X311146187Y-27682259D01*
X311222377Y-27606069D01*
X311260473Y-27529878D01*
X302901904Y-7413213D02*
X302520952Y-7146546D01*
X302901904Y-6956070D02*
X302101904Y-6956070D01*
X302101904Y-7260832D01*
X302140000Y-7337022D01*
X302178095Y-7375118D01*
X302254285Y-7413213D01*
X302368571Y-7413213D01*
X302444761Y-7375118D01*
X302482857Y-7337022D01*
X302520952Y-7260832D01*
X302520952Y-6956070D01*
X302101904Y-7679879D02*
X302101904Y-8213213D01*
X302901904Y-7870356D01*
X302101904Y-8670356D02*
X302101904Y-8746546D01*
X302140000Y-8822737D01*
X302178095Y-8860832D01*
X302254285Y-8898927D01*
X302406666Y-8937022D01*
X302597142Y-8937022D01*
X302749523Y-8898927D01*
X302825714Y-8860832D01*
X302863809Y-8822737D01*
X302901904Y-8746546D01*
X302901904Y-8670356D01*
X302863809Y-8594165D01*
X302825714Y-8556070D01*
X302749523Y-8517975D01*
X302597142Y-8479879D01*
X302406666Y-8479879D01*
X302254285Y-8517975D01*
X302178095Y-8556070D01*
X302140000Y-8594165D01*
X302101904Y-8670356D01*
X308361898Y-64563214D02*
X307980946Y-64296547D01*
X308361898Y-64106071D02*
X307561898Y-64106071D01*
X307561898Y-64410833D01*
X307599994Y-64487023D01*
X307638089Y-64525119D01*
X307714279Y-64563214D01*
X307828565Y-64563214D01*
X307904755Y-64525119D01*
X307942851Y-64487023D01*
X307980946Y-64410833D01*
X307980946Y-64106071D01*
X307561898Y-65248928D02*
X307561898Y-65096547D01*
X307599994Y-65020357D01*
X307638089Y-64982261D01*
X307752374Y-64906071D01*
X307904755Y-64867976D01*
X308209517Y-64867976D01*
X308285708Y-64906071D01*
X308323803Y-64944166D01*
X308361898Y-65020357D01*
X308361898Y-65172738D01*
X308323803Y-65248928D01*
X308285708Y-65287023D01*
X308209517Y-65325119D01*
X308019041Y-65325119D01*
X307942851Y-65287023D01*
X307904755Y-65248928D01*
X307866660Y-65172738D01*
X307866660Y-65020357D01*
X307904755Y-64944166D01*
X307942851Y-64906071D01*
X308019041Y-64867976D01*
X308361898Y-65706071D02*
X308361898Y-65858452D01*
X308323803Y-65934642D01*
X308285708Y-65972738D01*
X308171422Y-66048928D01*
X308019041Y-66087023D01*
X307714279Y-66087023D01*
X307638089Y-66048928D01*
X307599994Y-66010833D01*
X307561898Y-65934642D01*
X307561898Y-65782261D01*
X307599994Y-65706071D01*
X307638089Y-65667976D01*
X307714279Y-65629880D01*
X307904755Y-65629880D01*
X307980946Y-65667976D01*
X308019041Y-65706071D01*
X308057136Y-65782261D01*
X308057136Y-65934642D01*
X308019041Y-66010833D01*
X307980946Y-66048928D01*
X307904755Y-66087023D01*
X288011902Y-26463213D02*
X287630950Y-26196546D01*
X288011902Y-26006070D02*
X287211902Y-26006070D01*
X287211902Y-26310832D01*
X287249998Y-26387022D01*
X287288093Y-26425118D01*
X287364283Y-26463213D01*
X287478569Y-26463213D01*
X287554759Y-26425118D01*
X287592855Y-26387022D01*
X287630950Y-26310832D01*
X287630950Y-26006070D01*
X287211902Y-27148927D02*
X287211902Y-26996546D01*
X287249998Y-26920356D01*
X287288093Y-26882260D01*
X287402378Y-26806070D01*
X287554759Y-26767975D01*
X287859521Y-26767975D01*
X287935712Y-26806070D01*
X287973807Y-26844165D01*
X288011902Y-26920356D01*
X288011902Y-27072737D01*
X287973807Y-27148927D01*
X287935712Y-27187022D01*
X287859521Y-27225118D01*
X287669045Y-27225118D01*
X287592855Y-27187022D01*
X287554759Y-27148927D01*
X287516664Y-27072737D01*
X287516664Y-26920356D01*
X287554759Y-26844165D01*
X287592855Y-26806070D01*
X287669045Y-26767975D01*
X287554759Y-27682260D02*
X287516664Y-27606070D01*
X287478569Y-27567975D01*
X287402378Y-27529879D01*
X287364283Y-27529879D01*
X287288093Y-27567975D01*
X287249998Y-27606070D01*
X287211902Y-27682260D01*
X287211902Y-27834641D01*
X287249998Y-27910832D01*
X287288093Y-27948927D01*
X287364283Y-27987022D01*
X287402378Y-27987022D01*
X287478569Y-27948927D01*
X287516664Y-27910832D01*
X287554759Y-27834641D01*
X287554759Y-27682260D01*
X287592855Y-27606070D01*
X287630950Y-27567975D01*
X287707140Y-27529879D01*
X287859521Y-27529879D01*
X287935712Y-27567975D01*
X287973807Y-27606070D01*
X288011902Y-27682260D01*
X288011902Y-27834641D01*
X287973807Y-27910832D01*
X287935712Y-27948927D01*
X287859521Y-27987022D01*
X287707140Y-27987022D01*
X287630950Y-27948927D01*
X287592855Y-27910832D01*
X287554759Y-27834641D01*
X293371899Y-7413215D02*
X292990947Y-7146548D01*
X293371899Y-6956072D02*
X292571899Y-6956072D01*
X292571899Y-7260834D01*
X292609995Y-7337024D01*
X292648090Y-7375120D01*
X292724280Y-7413215D01*
X292838566Y-7413215D01*
X292914756Y-7375120D01*
X292952852Y-7337024D01*
X292990947Y-7260834D01*
X292990947Y-6956072D01*
X292571899Y-8098929D02*
X292571899Y-7946548D01*
X292609995Y-7870358D01*
X292648090Y-7832262D01*
X292762375Y-7756072D01*
X292914756Y-7717977D01*
X293219518Y-7717977D01*
X293295709Y-7756072D01*
X293333804Y-7794167D01*
X293371899Y-7870358D01*
X293371899Y-8022739D01*
X293333804Y-8098929D01*
X293295709Y-8137024D01*
X293219518Y-8175120D01*
X293029042Y-8175120D01*
X292952852Y-8137024D01*
X292914756Y-8098929D01*
X292876661Y-8022739D01*
X292876661Y-7870358D01*
X292914756Y-7794167D01*
X292952852Y-7756072D01*
X293029042Y-7717977D01*
X292571899Y-8441786D02*
X292571899Y-8975120D01*
X293371899Y-8632262D01*
X272641900Y-64563214D02*
X272260948Y-64296547D01*
X272641900Y-64106071D02*
X271841900Y-64106071D01*
X271841900Y-64410833D01*
X271879996Y-64487023D01*
X271918091Y-64525119D01*
X271994281Y-64563214D01*
X272108567Y-64563214D01*
X272184757Y-64525119D01*
X272222853Y-64487023D01*
X272260948Y-64410833D01*
X272260948Y-64106071D01*
X271841900Y-65248928D02*
X271841900Y-65096547D01*
X271879996Y-65020357D01*
X271918091Y-64982261D01*
X272032376Y-64906071D01*
X272184757Y-64867976D01*
X272489519Y-64867976D01*
X272565710Y-64906071D01*
X272603805Y-64944166D01*
X272641900Y-65020357D01*
X272641900Y-65172738D01*
X272603805Y-65248928D01*
X272565710Y-65287023D01*
X272489519Y-65325119D01*
X272299043Y-65325119D01*
X272222853Y-65287023D01*
X272184757Y-65248928D01*
X272146662Y-65172738D01*
X272146662Y-65020357D01*
X272184757Y-64944166D01*
X272222853Y-64906071D01*
X272299043Y-64867976D01*
X271841900Y-66010833D02*
X271841900Y-65858452D01*
X271879996Y-65782261D01*
X271918091Y-65744166D01*
X272032376Y-65667976D01*
X272184757Y-65629880D01*
X272489519Y-65629880D01*
X272565710Y-65667976D01*
X272603805Y-65706071D01*
X272641900Y-65782261D01*
X272641900Y-65934642D01*
X272603805Y-66010833D01*
X272565710Y-66048928D01*
X272489519Y-66087023D01*
X272299043Y-66087023D01*
X272222853Y-66048928D01*
X272184757Y-66010833D01*
X272146662Y-65934642D01*
X272146662Y-65782261D01*
X272184757Y-65706071D01*
X272222853Y-65667976D01*
X272299043Y-65629880D01*
X278001896Y-45513213D02*
X277620944Y-45246546D01*
X278001896Y-45056070D02*
X277201896Y-45056070D01*
X277201896Y-45360832D01*
X277239992Y-45437022D01*
X277278087Y-45475118D01*
X277354277Y-45513213D01*
X277468563Y-45513213D01*
X277544753Y-45475118D01*
X277582849Y-45437022D01*
X277620944Y-45360832D01*
X277620944Y-45056070D01*
X277201896Y-46198927D02*
X277201896Y-46046546D01*
X277239992Y-45970356D01*
X277278087Y-45932260D01*
X277392372Y-45856070D01*
X277544753Y-45817975D01*
X277849515Y-45817975D01*
X277925706Y-45856070D01*
X277963801Y-45894165D01*
X278001896Y-45970356D01*
X278001896Y-46122737D01*
X277963801Y-46198927D01*
X277925706Y-46237022D01*
X277849515Y-46275118D01*
X277659039Y-46275118D01*
X277582849Y-46237022D01*
X277544753Y-46198927D01*
X277506658Y-46122737D01*
X277506658Y-45970356D01*
X277544753Y-45894165D01*
X277582849Y-45856070D01*
X277659039Y-45817975D01*
X277201896Y-46998927D02*
X277201896Y-46617975D01*
X277582849Y-46579879D01*
X277544753Y-46617975D01*
X277506658Y-46694165D01*
X277506658Y-46884641D01*
X277544753Y-46960832D01*
X277582849Y-46998927D01*
X277659039Y-47037022D01*
X277849515Y-47037022D01*
X277925706Y-46998927D01*
X277963801Y-46960832D01*
X278001896Y-46884641D01*
X278001896Y-46694165D01*
X277963801Y-46617975D01*
X277925706Y-46579879D01*
X268961897Y-26485715D02*
X268580945Y-26219048D01*
X268961897Y-26028572D02*
X268161897Y-26028572D01*
X268161897Y-26333334D01*
X268199993Y-26409524D01*
X268238088Y-26447620D01*
X268314278Y-26485715D01*
X268428564Y-26485715D01*
X268504754Y-26447620D01*
X268542850Y-26409524D01*
X268580945Y-26333334D01*
X268580945Y-26028572D01*
X268161897Y-27171429D02*
X268161897Y-27019048D01*
X268199993Y-26942858D01*
X268238088Y-26904762D01*
X268352373Y-26828572D01*
X268504754Y-26790477D01*
X268809516Y-26790477D01*
X268885707Y-26828572D01*
X268923802Y-26866667D01*
X268961897Y-26942858D01*
X268961897Y-27095239D01*
X268923802Y-27171429D01*
X268885707Y-27209524D01*
X268809516Y-27247620D01*
X268619040Y-27247620D01*
X268542850Y-27209524D01*
X268504754Y-27171429D01*
X268466659Y-27095239D01*
X268466659Y-26942858D01*
X268504754Y-26866667D01*
X268542850Y-26828572D01*
X268619040Y-26790477D01*
X268428564Y-27933334D02*
X268961897Y-27933334D01*
X268123802Y-27742858D02*
X268695231Y-27552381D01*
X268695231Y-28047620D01*
X274321902Y-7413214D02*
X273940950Y-7146547D01*
X274321902Y-6956071D02*
X273521902Y-6956071D01*
X273521902Y-7260833D01*
X273559998Y-7337023D01*
X273598093Y-7375119D01*
X273674283Y-7413214D01*
X273788569Y-7413214D01*
X273864759Y-7375119D01*
X273902855Y-7337023D01*
X273940950Y-7260833D01*
X273940950Y-6956071D01*
X273521902Y-8098928D02*
X273521902Y-7946547D01*
X273559998Y-7870357D01*
X273598093Y-7832261D01*
X273712378Y-7756071D01*
X273864759Y-7717976D01*
X274169521Y-7717976D01*
X274245712Y-7756071D01*
X274283807Y-7794166D01*
X274321902Y-7870357D01*
X274321902Y-8022738D01*
X274283807Y-8098928D01*
X274245712Y-8137023D01*
X274169521Y-8175119D01*
X273979045Y-8175119D01*
X273902855Y-8137023D01*
X273864759Y-8098928D01*
X273826664Y-8022738D01*
X273826664Y-7870357D01*
X273864759Y-7794166D01*
X273902855Y-7756071D01*
X273979045Y-7717976D01*
X273521902Y-8441785D02*
X273521902Y-8937023D01*
X273826664Y-8670357D01*
X273826664Y-8784642D01*
X273864759Y-8860833D01*
X273902855Y-8898928D01*
X273979045Y-8937023D01*
X274169521Y-8937023D01*
X274245712Y-8898928D01*
X274283807Y-8860833D01*
X274321902Y-8784642D01*
X274321902Y-8556071D01*
X274283807Y-8479880D01*
X274245712Y-8441785D01*
X253591897Y-64563215D02*
X253210945Y-64296548D01*
X253591897Y-64106072D02*
X252791897Y-64106072D01*
X252791897Y-64410834D01*
X252829993Y-64487024D01*
X252868088Y-64525120D01*
X252944278Y-64563215D01*
X253058564Y-64563215D01*
X253134754Y-64525120D01*
X253172850Y-64487024D01*
X253210945Y-64410834D01*
X253210945Y-64106072D01*
X252791897Y-65248929D02*
X252791897Y-65096548D01*
X252829993Y-65020358D01*
X252868088Y-64982262D01*
X252982373Y-64906072D01*
X253134754Y-64867977D01*
X253439516Y-64867977D01*
X253515707Y-64906072D01*
X253553802Y-64944167D01*
X253591897Y-65020358D01*
X253591897Y-65172739D01*
X253553802Y-65248929D01*
X253515707Y-65287024D01*
X253439516Y-65325120D01*
X253249040Y-65325120D01*
X253172850Y-65287024D01*
X253134754Y-65248929D01*
X253096659Y-65172739D01*
X253096659Y-65020358D01*
X253134754Y-64944167D01*
X253172850Y-64906072D01*
X253249040Y-64867977D01*
X252868088Y-65629881D02*
X252829993Y-65667977D01*
X252791897Y-65744167D01*
X252791897Y-65934643D01*
X252829993Y-66010834D01*
X252868088Y-66048929D01*
X252944278Y-66087024D01*
X253020469Y-66087024D01*
X253134754Y-66048929D01*
X253591897Y-65591786D01*
X253591897Y-66087024D01*
X258951896Y-45513213D02*
X258570944Y-45246546D01*
X258951896Y-45056070D02*
X258151896Y-45056070D01*
X258151896Y-45360832D01*
X258189992Y-45437022D01*
X258228087Y-45475118D01*
X258304277Y-45513213D01*
X258418563Y-45513213D01*
X258494753Y-45475118D01*
X258532849Y-45437022D01*
X258570944Y-45360832D01*
X258570944Y-45056070D01*
X258151896Y-46198927D02*
X258151896Y-46046546D01*
X258189992Y-45970356D01*
X258228087Y-45932260D01*
X258342372Y-45856070D01*
X258494753Y-45817975D01*
X258799515Y-45817975D01*
X258875706Y-45856070D01*
X258913801Y-45894165D01*
X258951896Y-45970356D01*
X258951896Y-46122737D01*
X258913801Y-46198927D01*
X258875706Y-46237022D01*
X258799515Y-46275118D01*
X258609039Y-46275118D01*
X258532849Y-46237022D01*
X258494753Y-46198927D01*
X258456658Y-46122737D01*
X258456658Y-45970356D01*
X258494753Y-45894165D01*
X258532849Y-45856070D01*
X258609039Y-45817975D01*
X258951896Y-47037022D02*
X258951896Y-46579879D01*
X258951896Y-46808451D02*
X258151896Y-46808451D01*
X258266182Y-46732260D01*
X258342372Y-46656070D01*
X258380468Y-46579879D01*
X250331897Y-25403209D02*
X249950945Y-25136542D01*
X250331897Y-24946066D02*
X249531897Y-24946066D01*
X249531897Y-25250828D01*
X249569993Y-25327018D01*
X249608088Y-25365114D01*
X249684278Y-25403209D01*
X249798564Y-25403209D01*
X249874754Y-25365114D01*
X249912850Y-25327018D01*
X249950945Y-25250828D01*
X249950945Y-24946066D01*
X249531897Y-26088923D02*
X249531897Y-25936542D01*
X249569993Y-25860352D01*
X249608088Y-25822256D01*
X249722373Y-25746066D01*
X249874754Y-25707971D01*
X250179516Y-25707971D01*
X250255707Y-25746066D01*
X250293802Y-25784161D01*
X250331897Y-25860352D01*
X250331897Y-26012733D01*
X250293802Y-26088923D01*
X250255707Y-26127018D01*
X250179516Y-26165114D01*
X249989040Y-26165114D01*
X249912850Y-26127018D01*
X249874754Y-26088923D01*
X249836659Y-26012733D01*
X249836659Y-25860352D01*
X249874754Y-25784161D01*
X249912850Y-25746066D01*
X249989040Y-25707971D01*
X249531897Y-26660352D02*
X249531897Y-26736542D01*
X249569993Y-26812733D01*
X249608088Y-26850828D01*
X249684278Y-26888923D01*
X249836659Y-26927018D01*
X250027135Y-26927018D01*
X250179516Y-26888923D01*
X250255707Y-26850828D01*
X250293802Y-26812733D01*
X250331897Y-26736542D01*
X250331897Y-26660352D01*
X250293802Y-26584161D01*
X250255707Y-26546066D01*
X250179516Y-26507971D01*
X250027135Y-26469875D01*
X249836659Y-26469875D01*
X249684278Y-26507971D01*
X249608088Y-26546066D01*
X249569993Y-26584161D01*
X249531897Y-26660352D01*
X255691900Y-5273215D02*
X255310948Y-5006548D01*
X255691900Y-4816072D02*
X254891900Y-4816072D01*
X254891900Y-5120834D01*
X254929996Y-5197024D01*
X254968091Y-5235120D01*
X255044281Y-5273215D01*
X255158567Y-5273215D01*
X255234757Y-5235120D01*
X255272853Y-5197024D01*
X255310948Y-5120834D01*
X255310948Y-4816072D01*
X254891900Y-5997024D02*
X254891900Y-5616072D01*
X255272853Y-5577977D01*
X255234757Y-5616072D01*
X255196662Y-5692262D01*
X255196662Y-5882739D01*
X255234757Y-5958929D01*
X255272853Y-5997024D01*
X255349043Y-6035120D01*
X255539519Y-6035120D01*
X255615710Y-5997024D01*
X255653805Y-5958929D01*
X255691900Y-5882739D01*
X255691900Y-5692262D01*
X255653805Y-5616072D01*
X255615710Y-5577977D01*
X255691900Y-6416072D02*
X255691900Y-6568453D01*
X255653805Y-6644643D01*
X255615710Y-6682739D01*
X255501424Y-6758929D01*
X255349043Y-6797024D01*
X255044281Y-6797024D01*
X254968091Y-6758929D01*
X254929996Y-6720834D01*
X254891900Y-6644643D01*
X254891900Y-6492262D01*
X254929996Y-6416072D01*
X254968091Y-6377977D01*
X255044281Y-6339881D01*
X255234757Y-6339881D01*
X255310948Y-6377977D01*
X255349043Y-6416072D01*
X255387138Y-6492262D01*
X255387138Y-6644643D01*
X255349043Y-6720834D01*
X255310948Y-6758929D01*
X255234757Y-6797024D01*
X238377552Y-85950359D02*
X238805623Y-86131994D01*
X238472598Y-86397512D02*
X239255116Y-86231183D01*
X239191752Y-85933081D01*
X239138648Y-85866476D01*
X239093465Y-85837133D01*
X239011019Y-85815711D01*
X238899231Y-85839473D01*
X238832626Y-85892576D01*
X238803284Y-85937760D01*
X238781862Y-86020206D01*
X238845225Y-86318308D01*
X239009582Y-85076037D02*
X239088786Y-85448665D01*
X238724079Y-85565132D01*
X238753421Y-85519949D01*
X238774843Y-85437503D01*
X238735241Y-85251189D01*
X238682137Y-85184584D01*
X238636954Y-85155242D01*
X238554508Y-85133820D01*
X238368194Y-85173422D01*
X238301589Y-85226526D01*
X238272247Y-85271709D01*
X238250825Y-85354155D01*
X238290427Y-85540469D01*
X238343531Y-85607074D01*
X238388714Y-85636416D01*
X238571251Y-84662905D02*
X238624355Y-84729510D01*
X238669538Y-84758853D01*
X238751984Y-84780275D01*
X238789247Y-84772354D01*
X238855852Y-84719250D01*
X238885194Y-84674067D01*
X238906616Y-84591621D01*
X238874934Y-84442570D01*
X238821831Y-84375965D01*
X238776647Y-84346623D01*
X238694201Y-84325201D01*
X238656939Y-84333121D01*
X238590334Y-84386225D01*
X238560991Y-84431408D01*
X238539569Y-84513854D01*
X238571251Y-84662905D01*
X238549829Y-84745351D01*
X238520487Y-84790534D01*
X238453882Y-84843638D01*
X238304831Y-84875320D01*
X238222385Y-84853898D01*
X238177202Y-84824556D01*
X238124098Y-84757951D01*
X238092416Y-84608900D01*
X238113838Y-84526454D01*
X238143180Y-84481270D01*
X238209785Y-84428167D01*
X238358837Y-84396485D01*
X238441283Y-84417907D01*
X238486466Y-84447249D01*
X238539569Y-84513854D01*
X233567554Y-65960360D02*
X233995625Y-66141995D01*
X233662600Y-66407513D02*
X234445118Y-66241184D01*
X234381754Y-65943082D01*
X234328650Y-65876477D01*
X234283467Y-65847134D01*
X234201021Y-65825712D01*
X234089233Y-65849474D01*
X234022628Y-65902577D01*
X233993286Y-65947761D01*
X233971864Y-66030207D01*
X234035227Y-66328309D01*
X234199584Y-65086038D02*
X234278788Y-65458666D01*
X233914081Y-65575133D01*
X233943423Y-65529950D01*
X233964845Y-65447504D01*
X233925243Y-65261190D01*
X233872139Y-65194585D01*
X233826956Y-65165243D01*
X233744510Y-65143821D01*
X233558196Y-65183423D01*
X233491591Y-65236527D01*
X233462249Y-65281710D01*
X233440827Y-65364156D01*
X233480429Y-65550470D01*
X233533533Y-65617075D01*
X233578716Y-65646417D01*
X234136220Y-64787936D02*
X234025334Y-64266257D01*
X233314100Y-64767952D01*
X238927555Y-45350358D02*
X239355626Y-45531993D01*
X239022601Y-45797511D02*
X239805119Y-45631182D01*
X239741755Y-45333080D01*
X239688651Y-45266475D01*
X239643468Y-45237132D01*
X239561022Y-45215710D01*
X239449234Y-45239472D01*
X239382629Y-45292575D01*
X239353287Y-45337759D01*
X239331865Y-45420205D01*
X239395228Y-45718307D01*
X239559585Y-44476036D02*
X239638789Y-44848664D01*
X239274082Y-44965131D01*
X239303424Y-44919948D01*
X239324846Y-44837502D01*
X239285244Y-44651188D01*
X239232140Y-44584583D01*
X239186957Y-44555241D01*
X239104511Y-44533819D01*
X238918197Y-44573421D01*
X238851592Y-44626525D01*
X238822250Y-44671708D01*
X238800828Y-44754154D01*
X238840430Y-44940468D01*
X238893534Y-45007073D01*
X238938717Y-45036415D01*
X239409096Y-43768044D02*
X239440778Y-43917095D01*
X239419356Y-43999541D01*
X239390014Y-44044724D01*
X239294067Y-44143011D01*
X239152936Y-44211955D01*
X238854834Y-44275319D01*
X238772388Y-44253897D01*
X238727205Y-44224555D01*
X238674101Y-44157950D01*
X238642419Y-44008899D01*
X238663841Y-43926453D01*
X238693183Y-43881269D01*
X238759788Y-43828166D01*
X238946102Y-43788563D01*
X239028548Y-43809985D01*
X239073732Y-43839328D01*
X239126835Y-43905933D01*
X239158517Y-44054984D01*
X239137095Y-44137430D01*
X239107753Y-44182613D01*
X239041148Y-44235717D01*
X230307557Y-27700356D02*
X230735628Y-27881991D01*
X230402603Y-28147509D02*
X231185121Y-27981180D01*
X231121757Y-27683078D01*
X231068653Y-27616473D01*
X231023470Y-27587130D01*
X230941024Y-27565708D01*
X230829236Y-27589470D01*
X230762631Y-27642573D01*
X230733289Y-27687757D01*
X230711867Y-27770203D01*
X230775230Y-28068305D01*
X230939587Y-26826034D02*
X231018791Y-27198662D01*
X230654084Y-27315129D01*
X230683426Y-27269946D01*
X230704848Y-27187500D01*
X230665246Y-27001186D01*
X230612142Y-26934581D01*
X230566959Y-26905239D01*
X230484513Y-26883817D01*
X230298199Y-26923419D01*
X230231594Y-26976523D01*
X230202252Y-27021706D01*
X230180830Y-27104152D01*
X230220432Y-27290466D01*
X230273536Y-27357071D01*
X230318719Y-27386413D01*
X230781178Y-26080779D02*
X230860382Y-26453407D01*
X230495675Y-26569874D01*
X230525018Y-26524691D01*
X230546439Y-26442245D01*
X230506837Y-26255931D01*
X230453734Y-26189326D01*
X230408550Y-26159983D01*
X230326104Y-26138561D01*
X230139790Y-26178164D01*
X230073185Y-26231267D01*
X230043843Y-26276451D01*
X230022421Y-26358897D01*
X230062023Y-26545210D01*
X230115127Y-26611815D01*
X230160310Y-26641158D01*
X235667553Y-7090359D02*
X236095624Y-7271994D01*
X235762599Y-7537512D02*
X236545117Y-7371183D01*
X236481753Y-7073081D01*
X236428649Y-7006476D01*
X236383466Y-6977133D01*
X236301020Y-6955711D01*
X236189232Y-6979473D01*
X236122627Y-7032576D01*
X236093285Y-7077760D01*
X236071863Y-7160206D01*
X236135226Y-7458308D01*
X236299583Y-6216037D02*
X236378787Y-6588665D01*
X236014080Y-6705132D01*
X236043422Y-6659949D01*
X236064844Y-6577503D01*
X236025242Y-6391189D01*
X235972138Y-6324584D01*
X235926955Y-6295242D01*
X235844509Y-6273820D01*
X235658195Y-6313422D01*
X235591590Y-6366526D01*
X235562248Y-6411709D01*
X235540826Y-6494155D01*
X235580428Y-6680469D01*
X235633532Y-6747074D01*
X235678715Y-6776416D01*
X235888255Y-5563488D02*
X235366576Y-5674374D01*
X236225959Y-5686438D02*
X235706620Y-5991559D01*
X235603654Y-5507143D01*
X214937555Y-69920358D02*
X215365626Y-70101993D01*
X215032601Y-70367511D02*
X215815119Y-70201182D01*
X215751755Y-69903080D01*
X215698651Y-69836475D01*
X215653468Y-69807132D01*
X215571022Y-69785710D01*
X215459234Y-69809472D01*
X215392629Y-69862575D01*
X215363287Y-69907759D01*
X215341865Y-69990205D01*
X215405228Y-70288307D01*
X215569585Y-69046036D02*
X215648789Y-69418664D01*
X215284082Y-69535131D01*
X215313424Y-69489948D01*
X215334846Y-69407502D01*
X215295244Y-69221188D01*
X215242140Y-69154583D01*
X215196957Y-69125241D01*
X215114511Y-69103819D01*
X214928197Y-69143421D01*
X214861592Y-69196525D01*
X214832250Y-69241708D01*
X214810828Y-69324154D01*
X214850430Y-69510468D01*
X214903534Y-69577073D01*
X214948717Y-69606415D01*
X215506221Y-68747934D02*
X215403256Y-68263518D01*
X215160596Y-68587721D01*
X215136835Y-68475933D01*
X215083732Y-68409328D01*
X215038548Y-68379985D01*
X214956102Y-68358563D01*
X214769788Y-68398166D01*
X214703183Y-68451269D01*
X214673841Y-68496453D01*
X214652419Y-68578899D01*
X214699942Y-68802475D01*
X214753046Y-68869080D01*
X214798229Y-68898423D01*
X220297556Y-49310360D02*
X220725627Y-49491995D01*
X220392602Y-49757513D02*
X221175120Y-49591184D01*
X221111756Y-49293082D01*
X221058652Y-49226477D01*
X221013469Y-49197134D01*
X220931023Y-49175712D01*
X220819235Y-49199474D01*
X220752630Y-49252577D01*
X220723288Y-49297761D01*
X220701866Y-49380207D01*
X220765229Y-49678309D01*
X220929586Y-48436038D02*
X221008790Y-48808666D01*
X220644083Y-48925133D01*
X220673425Y-48879950D01*
X220694847Y-48797504D01*
X220655245Y-48611190D01*
X220602141Y-48544585D01*
X220556958Y-48515243D01*
X220474512Y-48493821D01*
X220288198Y-48533423D01*
X220221593Y-48586527D01*
X220192251Y-48631710D01*
X220170829Y-48714156D01*
X220210431Y-48900470D01*
X220263535Y-48967075D01*
X220308718Y-48996417D01*
X220783776Y-48116514D02*
X220813119Y-48071331D01*
X220834541Y-47988885D01*
X220794938Y-47802571D01*
X220741835Y-47735966D01*
X220696651Y-47706624D01*
X220614205Y-47685202D01*
X220539680Y-47701043D01*
X220435812Y-47762067D01*
X220083704Y-48304265D01*
X219980738Y-47819849D01*
X211677552Y-31660355D02*
X212105623Y-31841990D01*
X211772598Y-32107508D02*
X212555116Y-31941179D01*
X212491752Y-31643077D01*
X212438648Y-31576472D01*
X212393465Y-31547129D01*
X212311019Y-31525707D01*
X212199231Y-31549469D01*
X212132626Y-31602572D01*
X212103284Y-31647756D01*
X212081862Y-31730202D01*
X212145225Y-32028304D01*
X212309582Y-30786033D02*
X212388786Y-31158661D01*
X212024079Y-31275128D01*
X212053421Y-31229945D01*
X212074843Y-31147499D01*
X212035241Y-30961185D01*
X211982137Y-30894580D01*
X211936954Y-30865238D01*
X211854508Y-30843816D01*
X211668194Y-30883418D01*
X211601589Y-30936522D01*
X211572247Y-30981705D01*
X211550825Y-31064151D01*
X211590427Y-31250465D01*
X211643531Y-31317070D01*
X211688714Y-31346412D01*
X211360734Y-30169844D02*
X211455780Y-30616998D01*
X211408257Y-30393421D02*
X212190775Y-30227092D01*
X212094828Y-30325379D01*
X212036143Y-30415745D01*
X212014721Y-30498191D01*
X217037551Y-11050360D02*
X217465622Y-11231995D01*
X217132597Y-11497513D02*
X217915115Y-11331184D01*
X217851751Y-11033082D01*
X217798647Y-10966477D01*
X217753464Y-10937134D01*
X217671018Y-10915712D01*
X217559230Y-10939474D01*
X217492625Y-10992577D01*
X217463283Y-11037761D01*
X217441861Y-11120207D01*
X217505224Y-11418309D01*
X217669581Y-10176038D02*
X217748785Y-10548666D01*
X217384078Y-10665133D01*
X217413420Y-10619950D01*
X217434842Y-10537504D01*
X217395240Y-10351190D01*
X217342136Y-10284585D01*
X217296953Y-10255243D01*
X217214507Y-10233821D01*
X217028193Y-10273423D01*
X216961588Y-10326527D01*
X216932246Y-10371710D01*
X216910824Y-10454156D01*
X216950426Y-10640470D01*
X217003530Y-10707075D01*
X217048713Y-10736417D01*
X217558695Y-9654359D02*
X217542854Y-9579834D01*
X217489750Y-9513229D01*
X217444567Y-9483887D01*
X217362121Y-9462465D01*
X217205149Y-9456884D01*
X217018836Y-9496486D01*
X216877705Y-9565430D01*
X216811100Y-9618534D01*
X216781758Y-9663717D01*
X216760336Y-9746163D01*
X216776177Y-9820689D01*
X216829280Y-9887294D01*
X216874463Y-9916636D01*
X216956909Y-9938058D01*
X217113881Y-9943639D01*
X217300195Y-9904037D01*
X217441325Y-9835092D01*
X217507930Y-9781989D01*
X217537273Y-9736805D01*
X217558695Y-9654359D01*
X197967550Y-93010357D02*
X198395621Y-93191992D01*
X198062596Y-93457510D02*
X198845114Y-93291181D01*
X198781750Y-92993079D01*
X198728646Y-92926474D01*
X198683463Y-92897131D01*
X198601017Y-92875709D01*
X198489229Y-92899471D01*
X198422624Y-92952574D01*
X198393282Y-92997758D01*
X198371860Y-93080204D01*
X198435223Y-93378306D01*
X198346661Y-92228741D02*
X197824982Y-92339627D01*
X198684365Y-92351691D02*
X198165026Y-92656812D01*
X198062060Y-92172396D01*
X197729937Y-91892474D02*
X197698255Y-91743423D01*
X197719677Y-91660977D01*
X197749019Y-91615794D01*
X197844967Y-91517507D01*
X197986097Y-91448562D01*
X198284199Y-91385199D01*
X198366645Y-91406621D01*
X198411829Y-91435963D01*
X198464932Y-91502568D01*
X198496614Y-91651619D01*
X198475192Y-91734065D01*
X198445850Y-91779248D01*
X198379245Y-91832352D01*
X198192931Y-91871954D01*
X198110485Y-91850532D01*
X198065302Y-91821190D01*
X198012198Y-91754585D01*
X197980516Y-91605534D01*
X198001938Y-91523088D01*
X198031281Y-91477905D01*
X198097886Y-91424801D01*
X196297555Y-73880361D02*
X196725626Y-74061996D01*
X196392601Y-74327514D02*
X197175119Y-74161185D01*
X197111755Y-73863083D01*
X197058651Y-73796478D01*
X197013468Y-73767135D01*
X196931022Y-73745713D01*
X196819234Y-73769475D01*
X196752629Y-73822578D01*
X196723287Y-73867762D01*
X196701865Y-73950208D01*
X196765228Y-74248310D01*
X196676666Y-73098745D02*
X196154987Y-73209631D01*
X197014370Y-73221695D02*
X196495031Y-73526816D01*
X196392065Y-73042400D01*
X196491254Y-72592907D02*
X196544358Y-72659512D01*
X196589541Y-72688855D01*
X196671987Y-72710277D01*
X196709250Y-72702356D01*
X196775855Y-72649252D01*
X196805197Y-72604069D01*
X196826619Y-72521623D01*
X196794937Y-72372572D01*
X196741834Y-72305967D01*
X196696650Y-72276625D01*
X196614204Y-72255203D01*
X196576942Y-72263123D01*
X196510337Y-72316227D01*
X196480994Y-72361410D01*
X196459572Y-72443856D01*
X196491254Y-72592907D01*
X196469832Y-72675353D01*
X196440490Y-72720536D01*
X196373885Y-72773640D01*
X196224834Y-72805322D01*
X196142388Y-72783900D01*
X196097205Y-72754558D01*
X196044101Y-72687953D01*
X196012419Y-72538902D01*
X196033841Y-72456456D01*
X196063183Y-72411272D01*
X196129788Y-72358169D01*
X196278840Y-72326487D01*
X196361286Y-72347909D01*
X196406469Y-72377251D01*
X196459572Y-72443856D01*
X201657554Y-53270359D02*
X202085625Y-53451994D01*
X201752600Y-53717512D02*
X202535118Y-53551183D01*
X202471754Y-53253081D01*
X202418650Y-53186476D01*
X202373467Y-53157133D01*
X202291021Y-53135711D01*
X202179233Y-53159473D01*
X202112628Y-53212576D01*
X202083286Y-53257760D01*
X202061864Y-53340206D01*
X202125227Y-53638308D01*
X202036665Y-52488743D02*
X201514986Y-52599629D01*
X202374369Y-52611693D02*
X201855030Y-52916814D01*
X201752064Y-52432398D01*
X202226220Y-52097935D02*
X202115334Y-51576256D01*
X201404100Y-52077951D01*
X193037549Y-35620360D02*
X193465620Y-35801995D01*
X193132595Y-36067513D02*
X193915113Y-35901184D01*
X193851749Y-35603082D01*
X193798645Y-35536477D01*
X193753462Y-35507134D01*
X193671016Y-35485712D01*
X193559228Y-35509474D01*
X193492623Y-35562577D01*
X193463281Y-35607761D01*
X193441859Y-35690207D01*
X193505222Y-35988309D01*
X193416660Y-34838744D02*
X192894981Y-34949630D01*
X193754364Y-34961694D02*
X193235025Y-35266815D01*
X193132059Y-34782399D01*
X193519090Y-34038046D02*
X193550772Y-34187097D01*
X193529350Y-34269543D01*
X193500008Y-34314726D01*
X193404061Y-34413013D01*
X193262930Y-34481957D01*
X192964828Y-34545321D01*
X192882382Y-34523899D01*
X192837199Y-34494557D01*
X192784095Y-34427952D01*
X192752413Y-34278901D01*
X192773835Y-34196455D01*
X192803177Y-34151271D01*
X192869782Y-34098168D01*
X193056096Y-34058565D01*
X193138542Y-34079987D01*
X193183726Y-34109330D01*
X193236829Y-34175935D01*
X193268511Y-34324986D01*
X193247089Y-34407432D01*
X193217747Y-34452615D01*
X193151142Y-34505719D01*
X198397552Y-15010359D02*
X198825623Y-15191994D01*
X198492598Y-15457512D02*
X199275116Y-15291183D01*
X199211752Y-14993081D01*
X199158648Y-14926476D01*
X199113465Y-14897133D01*
X199031019Y-14875711D01*
X198919231Y-14899473D01*
X198852626Y-14952576D01*
X198823284Y-14997760D01*
X198801862Y-15080206D01*
X198865225Y-15378308D01*
X198776663Y-14228743D02*
X198254984Y-14339629D01*
X199114367Y-14351693D02*
X198595028Y-14656814D01*
X198492062Y-14172398D01*
X198871173Y-13390782D02*
X198950377Y-13763410D01*
X198585670Y-13879877D01*
X198615013Y-13834694D01*
X198636434Y-13752248D01*
X198596832Y-13565934D01*
X198543729Y-13499329D01*
X198498545Y-13469986D01*
X198416099Y-13448564D01*
X198229785Y-13488167D01*
X198163180Y-13541270D01*
X198133838Y-13586454D01*
X198112416Y-13668900D01*
X198152018Y-13855213D01*
X198205122Y-13921818D01*
X198250305Y-13951161D01*
X177667554Y-77840360D02*
X178095625Y-78021995D01*
X177762600Y-78287513D02*
X178545118Y-78121184D01*
X178481754Y-77823082D01*
X178428650Y-77756477D01*
X178383467Y-77727134D01*
X178301021Y-77705712D01*
X178189233Y-77729474D01*
X178122628Y-77782577D01*
X178093286Y-77827761D01*
X178071864Y-77910207D01*
X178135227Y-78208309D01*
X178046665Y-77058744D02*
X177524986Y-77169630D01*
X178384369Y-77181694D02*
X177865030Y-77486815D01*
X177762064Y-77002399D01*
X177888256Y-76313489D02*
X177366577Y-76424375D01*
X178225960Y-76436439D02*
X177706621Y-76741560D01*
X177603655Y-76257144D01*
X183027555Y-57230358D02*
X183455626Y-57411993D01*
X183122601Y-57677511D02*
X183905119Y-57511182D01*
X183841755Y-57213080D01*
X183788651Y-57146475D01*
X183743468Y-57117132D01*
X183661022Y-57095710D01*
X183549234Y-57119472D01*
X183482629Y-57172575D01*
X183453287Y-57217759D01*
X183431865Y-57300205D01*
X183495228Y-57598307D01*
X183406666Y-56448742D02*
X182884987Y-56559628D01*
X183744370Y-56571692D02*
X183225031Y-56876813D01*
X183122065Y-56392397D01*
X183596221Y-56057934D02*
X183493256Y-55573518D01*
X183250596Y-55897721D01*
X183226835Y-55785933D01*
X183173732Y-55719328D01*
X183128548Y-55689985D01*
X183046102Y-55668563D01*
X182859788Y-55708166D01*
X182793183Y-55761269D01*
X182763841Y-55806453D01*
X182742419Y-55888899D01*
X182789942Y-56112475D01*
X182843046Y-56179080D01*
X182888229Y-56208423D01*
X174407552Y-39580358D02*
X174835623Y-39761993D01*
X174502598Y-40027511D02*
X175285116Y-39861182D01*
X175221752Y-39563080D01*
X175168648Y-39496475D01*
X175123465Y-39467132D01*
X175041019Y-39445710D01*
X174929231Y-39469472D01*
X174862626Y-39522575D01*
X174833284Y-39567759D01*
X174811862Y-39650205D01*
X174875225Y-39948307D01*
X174786663Y-38798742D02*
X174264984Y-38909628D01*
X175124367Y-38921692D02*
X174605028Y-39226813D01*
X174502062Y-38742397D01*
X174893772Y-38386512D02*
X174923115Y-38341329D01*
X174944537Y-38258883D01*
X174904934Y-38072569D01*
X174851831Y-38005964D01*
X174806647Y-37976622D01*
X174724201Y-37955200D01*
X174649676Y-37971041D01*
X174545808Y-38032065D01*
X174193700Y-38574263D01*
X174090734Y-38089847D01*
X179767554Y-18970358D02*
X180195625Y-19151993D01*
X179862600Y-19417511D02*
X180645118Y-19251182D01*
X180581754Y-18953080D01*
X180528650Y-18886475D01*
X180483467Y-18857132D01*
X180401021Y-18835710D01*
X180289233Y-18859472D01*
X180222628Y-18912575D01*
X180193286Y-18957759D01*
X180171864Y-19040205D01*
X180235227Y-19338307D01*
X180146665Y-18188742D02*
X179624986Y-18299628D01*
X180484369Y-18311692D02*
X179965030Y-18616813D01*
X179862064Y-18132397D01*
X179450736Y-17479847D02*
X179545782Y-17927001D01*
X179498259Y-17703424D02*
X180280777Y-17537095D01*
X180184830Y-17635382D01*
X180126145Y-17725748D01*
X180104723Y-17808194D01*
X149908966Y-22202186D02*
X149591781Y-21862143D01*
X150004011Y-21755033D02*
X149221493Y-21588704D01*
X149158129Y-21886806D01*
X149179551Y-21969252D01*
X149208894Y-22014435D01*
X149275499Y-22067539D01*
X149387287Y-22091300D01*
X149469733Y-22069878D01*
X149514916Y-22040536D01*
X149568020Y-21973931D01*
X149631383Y-21675829D01*
X149244719Y-22762030D02*
X149766398Y-22872916D01*
X148986219Y-22512353D02*
X149584763Y-22444845D01*
X149481797Y-22929261D01*
X148865073Y-23265528D02*
X148849232Y-23340054D01*
X148870654Y-23422500D01*
X148899996Y-23467683D01*
X148966601Y-23520787D01*
X149107732Y-23589731D01*
X149294046Y-23629333D01*
X149451017Y-23623752D01*
X149533463Y-23602331D01*
X149578647Y-23572988D01*
X149631750Y-23506383D01*
X149647591Y-23431858D01*
X149626169Y-23349412D01*
X149596827Y-23304228D01*
X149530222Y-23251125D01*
X149389091Y-23182180D01*
X149202777Y-23142578D01*
X149045806Y-23148159D01*
X148963360Y-23169581D01*
X148918177Y-23198923D01*
X148865073Y-23265528D01*
X147818969Y-99662187D02*
X147501784Y-99322144D01*
X147914014Y-99215034D02*
X147131496Y-99048705D01*
X147068132Y-99346807D01*
X147089554Y-99429253D01*
X147118897Y-99474436D01*
X147185502Y-99527540D01*
X147297290Y-99551301D01*
X147379736Y-99529879D01*
X147424919Y-99500537D01*
X147478023Y-99433932D01*
X147541386Y-99135830D01*
X146981008Y-99756697D02*
X146878042Y-100241113D01*
X147231587Y-100043638D01*
X147207826Y-100155426D01*
X147229248Y-100237872D01*
X147258590Y-100283055D01*
X147325195Y-100336159D01*
X147511509Y-100375761D01*
X147593955Y-100354339D01*
X147639138Y-100324997D01*
X147692242Y-100258392D01*
X147739764Y-100034815D01*
X147718342Y-99952369D01*
X147689000Y-99907186D01*
X147581355Y-100780070D02*
X147549674Y-100929121D01*
X147496570Y-100995727D01*
X147451387Y-101025069D01*
X147323758Y-101075833D01*
X147166786Y-101081414D01*
X146868684Y-101018050D01*
X146802079Y-100964947D01*
X146772737Y-100919764D01*
X146751315Y-100837318D01*
X146782996Y-100688267D01*
X146836100Y-100621661D01*
X146881283Y-100592319D01*
X146963729Y-100570897D01*
X147150043Y-100610499D01*
X147216648Y-100663603D01*
X147245991Y-100708786D01*
X147267412Y-100791232D01*
X147235731Y-100940283D01*
X147182627Y-101006888D01*
X147137444Y-101036231D01*
X147054998Y-101057653D01*
X142678973Y-79092184D02*
X142361788Y-78752141D01*
X142774018Y-78645031D02*
X141991500Y-78478702D01*
X141928136Y-78776804D01*
X141949558Y-78859250D01*
X141978901Y-78904433D01*
X142045506Y-78957537D01*
X142157294Y-78981298D01*
X142239740Y-78959876D01*
X142284923Y-78930534D01*
X142338027Y-78863929D01*
X142401390Y-78565827D01*
X141841012Y-79186694D02*
X141738046Y-79671110D01*
X142091591Y-79473635D01*
X142067830Y-79585423D01*
X142089252Y-79667869D01*
X142118594Y-79713052D01*
X142185199Y-79766156D01*
X142371513Y-79805758D01*
X142453959Y-79784336D01*
X142499142Y-79754994D01*
X142552246Y-79688389D01*
X142599768Y-79464812D01*
X142578346Y-79382366D01*
X142549004Y-79337183D01*
X141978365Y-80189548D02*
X141956943Y-80107102D01*
X141927601Y-80061918D01*
X141860996Y-80008815D01*
X141823733Y-80000894D01*
X141741287Y-80022316D01*
X141696104Y-80051658D01*
X141643000Y-80118264D01*
X141611319Y-80267315D01*
X141632741Y-80349761D01*
X141662083Y-80394944D01*
X141728688Y-80448047D01*
X141765951Y-80455968D01*
X141848397Y-80434546D01*
X141893580Y-80405204D01*
X141946684Y-80338599D01*
X141978365Y-80189548D01*
X142031469Y-80122942D01*
X142076652Y-80093600D01*
X142159098Y-80072178D01*
X142308149Y-80103860D01*
X142374754Y-80156964D01*
X142404097Y-80202147D01*
X142425519Y-80284593D01*
X142393837Y-80433644D01*
X142340733Y-80500249D01*
X142295550Y-80529591D01*
X142213104Y-80551013D01*
X142064053Y-80519331D01*
X141997448Y-80466228D01*
X141968105Y-80421045D01*
X141946684Y-80338599D01*
X137328971Y-58482187D02*
X137011786Y-58142144D01*
X137424016Y-58035034D02*
X136641498Y-57868705D01*
X136578134Y-58166807D01*
X136599556Y-58249253D01*
X136628899Y-58294436D01*
X136695504Y-58347540D01*
X136807292Y-58371301D01*
X136889738Y-58349879D01*
X136934921Y-58320537D01*
X136988025Y-58253932D01*
X137051388Y-57955830D01*
X136491010Y-58576697D02*
X136388044Y-59061113D01*
X136741589Y-58863638D01*
X136717828Y-58975426D01*
X136739250Y-59057872D01*
X136768592Y-59103055D01*
X136835197Y-59156159D01*
X137021511Y-59195761D01*
X137103957Y-59174339D01*
X137149140Y-59144997D01*
X137202244Y-59078392D01*
X137249766Y-58854815D01*
X137228344Y-58772369D01*
X137199002Y-58727186D01*
X136332601Y-59321953D02*
X136221714Y-59843631D01*
X137075517Y-59674596D01*
X136628969Y-38852183D02*
X136311784Y-38512140D01*
X136724014Y-38405030D02*
X135941496Y-38238701D01*
X135878132Y-38536803D01*
X135899554Y-38619249D01*
X135928897Y-38664432D01*
X135995502Y-38717536D01*
X136107290Y-38741297D01*
X136189736Y-38719875D01*
X136234919Y-38690533D01*
X136288023Y-38623928D01*
X136351386Y-38325826D01*
X135791008Y-38946693D02*
X135688042Y-39431109D01*
X136041587Y-39233634D01*
X136017826Y-39345422D01*
X136039248Y-39427868D01*
X136068590Y-39473051D01*
X136135195Y-39526155D01*
X136321509Y-39565757D01*
X136403955Y-39544335D01*
X136449138Y-39514993D01*
X136502242Y-39448388D01*
X136549764Y-39224811D01*
X136528342Y-39142365D01*
X136499000Y-39097182D01*
X135545474Y-40101839D02*
X135577156Y-39952788D01*
X135630259Y-39886183D01*
X135675442Y-39856841D01*
X135803072Y-39806076D01*
X135960043Y-39800495D01*
X136258145Y-39863859D01*
X136324750Y-39916963D01*
X136354093Y-39962146D01*
X136375515Y-40044592D01*
X136343833Y-40193643D01*
X136290729Y-40260248D01*
X136245546Y-40289590D01*
X136163100Y-40311012D01*
X135976786Y-40271410D01*
X135910181Y-40218306D01*
X135880839Y-40173123D01*
X135859417Y-40090677D01*
X135891099Y-39941626D01*
X135944202Y-39875021D01*
X135989385Y-39845679D01*
X136071831Y-39824257D01*
X117498969Y-93222185D02*
X117181784Y-92882142D01*
X117594014Y-92775032D02*
X116811496Y-92608703D01*
X116748132Y-92906805D01*
X116769554Y-92989251D01*
X116798897Y-93034434D01*
X116865502Y-93087538D01*
X116977290Y-93111299D01*
X117059736Y-93089877D01*
X117104919Y-93060535D01*
X117158023Y-92993930D01*
X117221386Y-92695828D01*
X116661008Y-93316695D02*
X116558042Y-93801111D01*
X116911587Y-93603636D01*
X116887826Y-93715424D01*
X116909248Y-93797870D01*
X116938590Y-93843053D01*
X117005195Y-93896157D01*
X117191509Y-93935759D01*
X117273955Y-93914337D01*
X117319138Y-93884995D01*
X117372242Y-93818390D01*
X117419764Y-93594813D01*
X117398342Y-93512367D01*
X117369000Y-93467184D01*
X116676313Y-94527284D02*
X117197992Y-94638170D01*
X116417813Y-94277607D02*
X117016357Y-94210100D01*
X116913391Y-94694516D01*
X124048974Y-75132186D02*
X123731789Y-74792143D01*
X124144019Y-74685033D02*
X123361501Y-74518704D01*
X123298137Y-74816806D01*
X123319559Y-74899252D01*
X123348902Y-74944435D01*
X123415507Y-74997539D01*
X123527295Y-75021300D01*
X123609741Y-74999878D01*
X123654924Y-74970536D01*
X123708028Y-74903931D01*
X123771391Y-74605829D01*
X123211013Y-75226696D02*
X123108047Y-75711112D01*
X123461592Y-75513637D01*
X123437831Y-75625425D01*
X123459253Y-75707871D01*
X123488595Y-75753054D01*
X123555200Y-75806158D01*
X123741514Y-75845760D01*
X123823960Y-75824338D01*
X123869143Y-75794996D01*
X123922247Y-75728391D01*
X123969769Y-75504814D01*
X123948347Y-75422368D01*
X123919005Y-75377185D01*
X123052604Y-75971952D02*
X122949638Y-76456368D01*
X123303183Y-76258892D01*
X123279422Y-76370680D01*
X123300844Y-76453126D01*
X123330186Y-76498309D01*
X123396791Y-76551413D01*
X123583105Y-76591015D01*
X123665551Y-76569593D01*
X123710734Y-76540251D01*
X123763838Y-76473646D01*
X123811360Y-76250069D01*
X123789939Y-76167623D01*
X123760596Y-76122440D01*
X118698967Y-54522186D02*
X118381782Y-54182143D01*
X118794012Y-54075033D02*
X118011494Y-53908704D01*
X117948130Y-54206806D01*
X117969552Y-54289252D01*
X117998895Y-54334435D01*
X118065500Y-54387539D01*
X118177288Y-54411300D01*
X118259734Y-54389878D01*
X118304917Y-54360536D01*
X118358021Y-54293931D01*
X118421384Y-53995829D01*
X117861006Y-54616696D02*
X117758040Y-55101112D01*
X118111585Y-54903637D01*
X118087824Y-55015425D01*
X118109246Y-55097871D01*
X118138588Y-55143054D01*
X118205193Y-55196158D01*
X118391507Y-55235760D01*
X118473953Y-55214338D01*
X118519136Y-55184996D01*
X118572240Y-55118391D01*
X118619762Y-54894814D01*
X118598340Y-54812368D01*
X118568998Y-54767185D01*
X117769202Y-55415055D02*
X117724019Y-55444398D01*
X117670915Y-55511003D01*
X117631313Y-55697317D01*
X117652735Y-55779763D01*
X117682077Y-55824946D01*
X117748682Y-55878049D01*
X117823207Y-55893890D01*
X117942916Y-55880389D01*
X118485115Y-55528281D01*
X118382149Y-56012697D01*
X117998968Y-34892186D02*
X117681783Y-34552143D01*
X118094013Y-34445033D02*
X117311495Y-34278704D01*
X117248131Y-34576806D01*
X117269553Y-34659252D01*
X117298896Y-34704435D01*
X117365501Y-34757539D01*
X117477289Y-34781300D01*
X117559735Y-34759878D01*
X117604918Y-34730536D01*
X117658022Y-34663931D01*
X117721385Y-34365829D01*
X117161007Y-34986696D02*
X117058041Y-35471112D01*
X117411586Y-35273637D01*
X117387825Y-35385425D01*
X117409247Y-35467871D01*
X117438589Y-35513054D01*
X117505194Y-35566158D01*
X117691508Y-35605760D01*
X117773954Y-35584338D01*
X117819137Y-35554996D01*
X117872241Y-35488391D01*
X117919763Y-35264814D01*
X117898341Y-35182368D01*
X117868999Y-35137185D01*
X117682150Y-36382697D02*
X117777195Y-35935544D01*
X117729673Y-36159120D02*
X116947155Y-35992791D01*
X117074784Y-35942027D01*
X117165150Y-35883342D01*
X117218254Y-35816737D01*
X112638968Y-14282185D02*
X112321783Y-13942142D01*
X112734013Y-13835032D02*
X111951495Y-13668703D01*
X111888131Y-13966805D01*
X111909553Y-14049251D01*
X111938896Y-14094434D01*
X112005501Y-14147538D01*
X112117289Y-14171299D01*
X112199735Y-14149877D01*
X112244918Y-14120535D01*
X112298022Y-14053930D01*
X112361385Y-13755828D01*
X111801007Y-14376695D02*
X111698041Y-14861111D01*
X112051586Y-14663636D01*
X112027825Y-14775424D01*
X112049247Y-14857870D01*
X112078589Y-14903053D01*
X112145194Y-14956157D01*
X112331508Y-14995759D01*
X112413954Y-14974337D01*
X112459137Y-14944995D01*
X112512241Y-14878390D01*
X112559763Y-14654813D01*
X112538341Y-14572367D01*
X112508999Y-14527184D01*
X111595075Y-15345527D02*
X111579234Y-15420053D01*
X111600656Y-15502499D01*
X111629998Y-15547682D01*
X111696603Y-15600786D01*
X111837734Y-15669730D01*
X112024048Y-15709332D01*
X112181019Y-15703751D01*
X112263465Y-15682330D01*
X112308649Y-15652987D01*
X112361752Y-15586382D01*
X112377593Y-15511857D01*
X112356171Y-15429411D01*
X112326829Y-15384227D01*
X112260224Y-15331124D01*
X112119093Y-15262179D01*
X111932779Y-15222577D01*
X111775808Y-15228158D01*
X111693362Y-15249580D01*
X111648179Y-15278922D01*
X111595075Y-15345527D01*
X105408967Y-71172186D02*
X105091782Y-70832143D01*
X105504012Y-70725033D02*
X104721494Y-70558704D01*
X104658130Y-70856806D01*
X104679552Y-70939252D01*
X104708895Y-70984435D01*
X104775500Y-71037539D01*
X104887288Y-71061300D01*
X104969734Y-71039878D01*
X105014917Y-71010536D01*
X105068021Y-70943931D01*
X105131384Y-70645829D01*
X104637611Y-71319800D02*
X104592427Y-71349142D01*
X104539324Y-71415747D01*
X104499722Y-71602061D01*
X104521143Y-71684507D01*
X104550486Y-71729690D01*
X104617091Y-71782794D01*
X104691616Y-71798635D01*
X104811325Y-71785134D01*
X105353524Y-71433026D01*
X105250558Y-71917442D01*
X105171353Y-72290069D02*
X105139672Y-72439120D01*
X105086568Y-72505726D01*
X105041385Y-72535068D01*
X104913756Y-72585832D01*
X104756784Y-72591413D01*
X104458682Y-72528049D01*
X104392077Y-72474946D01*
X104362735Y-72429763D01*
X104341313Y-72347317D01*
X104372994Y-72198266D01*
X104426098Y-72131660D01*
X104471281Y-72102318D01*
X104553727Y-72080896D01*
X104740041Y-72120498D01*
X104806646Y-72173602D01*
X104835989Y-72218785D01*
X104857410Y-72301231D01*
X104825729Y-72450282D01*
X104772625Y-72516887D01*
X104727442Y-72546230D01*
X104644996Y-72567652D01*
X100058972Y-50562186D02*
X99741787Y-50222143D01*
X100154017Y-50115033D02*
X99371499Y-49948704D01*
X99308135Y-50246806D01*
X99329557Y-50329252D01*
X99358900Y-50374435D01*
X99425505Y-50427539D01*
X99537293Y-50451300D01*
X99619739Y-50429878D01*
X99664922Y-50400536D01*
X99718026Y-50333931D01*
X99781389Y-50035829D01*
X99287616Y-50709800D02*
X99242432Y-50739142D01*
X99189329Y-50805747D01*
X99149727Y-50992061D01*
X99171148Y-51074507D01*
X99200491Y-51119690D01*
X99267096Y-51172794D01*
X99341621Y-51188635D01*
X99461330Y-51175134D01*
X100003529Y-50823026D01*
X99900563Y-51307442D01*
X99358364Y-51659550D02*
X99336942Y-51577104D01*
X99307600Y-51531920D01*
X99240995Y-51478817D01*
X99203732Y-51470896D01*
X99121286Y-51492318D01*
X99076103Y-51521660D01*
X99022999Y-51588266D01*
X98991318Y-51737317D01*
X99012740Y-51819763D01*
X99042082Y-51864946D01*
X99108687Y-51918049D01*
X99145950Y-51925970D01*
X99228396Y-51904548D01*
X99273579Y-51875206D01*
X99326683Y-51808601D01*
X99358364Y-51659550D01*
X99411468Y-51592944D01*
X99456651Y-51563602D01*
X99539097Y-51542180D01*
X99688148Y-51573862D01*
X99754753Y-51626966D01*
X99784096Y-51672149D01*
X99805518Y-51754595D01*
X99773836Y-51903646D01*
X99720732Y-51970251D01*
X99675549Y-51999593D01*
X99593103Y-52021015D01*
X99444052Y-51989333D01*
X99377447Y-51936230D01*
X99348104Y-51891047D01*
X99326683Y-51808601D01*
X99358973Y-30932184D02*
X99041788Y-30592141D01*
X99454018Y-30485031D02*
X98671500Y-30318702D01*
X98608136Y-30616804D01*
X98629558Y-30699250D01*
X98658901Y-30744433D01*
X98725506Y-30797537D01*
X98837294Y-30821298D01*
X98919740Y-30799876D01*
X98964923Y-30770534D01*
X99018027Y-30703929D01*
X99081390Y-30405827D01*
X98587617Y-31079798D02*
X98542433Y-31109140D01*
X98489330Y-31175745D01*
X98449728Y-31362059D01*
X98471149Y-31444505D01*
X98500492Y-31489688D01*
X98567097Y-31542792D01*
X98641622Y-31558633D01*
X98761331Y-31545132D01*
X99303530Y-31193024D01*
X99200564Y-31677440D01*
X98362603Y-31771950D02*
X98251716Y-32293628D01*
X99105519Y-32124593D01*
X94008968Y-10322187D02*
X93691783Y-9982144D01*
X94104013Y-9875034D02*
X93321495Y-9708705D01*
X93258131Y-10006807D01*
X93279553Y-10089253D01*
X93308896Y-10134436D01*
X93375501Y-10187540D01*
X93487289Y-10211301D01*
X93569735Y-10189879D01*
X93614918Y-10160537D01*
X93668022Y-10093932D01*
X93731385Y-9795830D01*
X93237612Y-10469801D02*
X93192428Y-10499143D01*
X93139325Y-10565748D01*
X93099723Y-10752062D01*
X93121144Y-10834508D01*
X93150487Y-10879691D01*
X93217092Y-10932795D01*
X93291617Y-10948636D01*
X93411326Y-10935135D01*
X93953525Y-10583027D01*
X93850559Y-11067443D01*
X92925473Y-11571843D02*
X92957155Y-11422792D01*
X93010258Y-11356187D01*
X93055441Y-11326845D01*
X93183071Y-11276080D01*
X93340042Y-11270499D01*
X93638144Y-11333863D01*
X93704749Y-11386967D01*
X93734092Y-11432150D01*
X93755514Y-11514596D01*
X93723832Y-11663647D01*
X93670728Y-11730252D01*
X93625545Y-11759594D01*
X93543099Y-11781016D01*
X93356785Y-11741414D01*
X93290180Y-11688310D01*
X93260838Y-11643127D01*
X93239416Y-11560681D01*
X93271098Y-11411630D01*
X93324201Y-11345025D01*
X93369384Y-11315683D01*
X93451830Y-11294261D01*
X81968967Y-87202187D02*
X81651782Y-86862144D01*
X82064012Y-86755034D02*
X81281494Y-86588705D01*
X81218130Y-86886807D01*
X81239552Y-86969253D01*
X81268895Y-87014436D01*
X81335500Y-87067540D01*
X81447288Y-87091301D01*
X81529734Y-87069879D01*
X81574917Y-87040537D01*
X81628021Y-86973932D01*
X81691384Y-86675830D01*
X81197611Y-87349801D02*
X81152427Y-87379143D01*
X81099324Y-87445748D01*
X81059722Y-87632062D01*
X81081143Y-87714508D01*
X81110486Y-87759691D01*
X81177091Y-87812795D01*
X81251616Y-87828636D01*
X81371325Y-87815135D01*
X81913524Y-87463027D01*
X81810558Y-87947443D01*
X80877551Y-88489106D02*
X80956756Y-88116478D01*
X81337304Y-88158420D01*
X81292121Y-88187762D01*
X81239017Y-88254367D01*
X81199415Y-88440681D01*
X81220837Y-88523127D01*
X81250179Y-88568310D01*
X81316784Y-88621414D01*
X81503098Y-88661016D01*
X81585544Y-88639594D01*
X81630727Y-88610252D01*
X81683831Y-88543647D01*
X81723433Y-88357333D01*
X81702011Y-88274887D01*
X81672669Y-88229704D01*
X86778967Y-67212186D02*
X86461782Y-66872143D01*
X86874012Y-66765033D02*
X86091494Y-66598704D01*
X86028130Y-66896806D01*
X86049552Y-66979252D01*
X86078895Y-67024435D01*
X86145500Y-67077539D01*
X86257288Y-67101300D01*
X86339734Y-67079878D01*
X86384917Y-67050536D01*
X86438021Y-66983931D01*
X86501384Y-66685829D01*
X86007611Y-67359800D02*
X85962427Y-67389142D01*
X85909324Y-67455747D01*
X85869722Y-67642061D01*
X85891143Y-67724507D01*
X85920486Y-67769690D01*
X85987091Y-67822794D01*
X86061616Y-67838635D01*
X86181325Y-67825134D01*
X86723524Y-67473026D01*
X86620558Y-67957442D01*
X85956311Y-68517285D02*
X86477990Y-68628171D01*
X85697811Y-68267608D02*
X86296355Y-68200101D01*
X86193389Y-68684517D01*
X81428970Y-46602185D02*
X81111785Y-46262142D01*
X81524015Y-46155032D02*
X80741497Y-45988703D01*
X80678133Y-46286805D01*
X80699555Y-46369251D01*
X80728898Y-46414434D01*
X80795503Y-46467538D01*
X80907291Y-46491299D01*
X80989737Y-46469877D01*
X81034920Y-46440535D01*
X81088024Y-46373930D01*
X81151387Y-46075828D01*
X80657614Y-46749799D02*
X80612430Y-46779141D01*
X80559327Y-46845746D01*
X80519725Y-47032060D01*
X80541146Y-47114506D01*
X80570489Y-47159689D01*
X80637094Y-47212793D01*
X80711619Y-47228634D01*
X80831328Y-47215133D01*
X81373527Y-46863025D01*
X81270561Y-47347441D01*
X80432600Y-47441951D02*
X80329634Y-47926367D01*
X80683179Y-47728891D01*
X80659418Y-47840679D01*
X80680840Y-47923125D01*
X80710182Y-47968308D01*
X80776787Y-48021412D01*
X80963101Y-48061014D01*
X81045547Y-48039592D01*
X81090730Y-48010250D01*
X81143834Y-47943645D01*
X81191356Y-47720068D01*
X81169935Y-47637622D01*
X81140592Y-47592439D01*
X80728973Y-26972186D02*
X80411788Y-26632143D01*
X80824018Y-26525033D02*
X80041500Y-26358704D01*
X79978136Y-26656806D01*
X79999558Y-26739252D01*
X80028901Y-26784435D01*
X80095506Y-26837539D01*
X80207294Y-26861300D01*
X80289740Y-26839878D01*
X80334923Y-26810536D01*
X80388027Y-26743931D01*
X80451390Y-26445829D01*
X79957617Y-27119800D02*
X79912433Y-27149142D01*
X79859330Y-27215747D01*
X79819728Y-27402061D01*
X79841149Y-27484507D01*
X79870492Y-27529690D01*
X79937097Y-27582794D01*
X80011622Y-27598635D01*
X80131331Y-27585134D01*
X80673530Y-27233026D01*
X80570564Y-27717442D01*
X79799208Y-27865055D02*
X79754025Y-27894398D01*
X79700921Y-27961003D01*
X79661319Y-28147317D01*
X79682741Y-28229763D01*
X79712083Y-28274946D01*
X79778688Y-28328049D01*
X79853213Y-28343890D01*
X79972922Y-28330389D01*
X80515121Y-27978281D01*
X80412155Y-28462697D01*
X74731903Y-5273213D02*
X74350951Y-5006546D01*
X74731903Y-4816070D02*
X73931903Y-4816070D01*
X73931903Y-5120832D01*
X73969999Y-5197022D01*
X74008094Y-5235118D01*
X74084284Y-5273213D01*
X74198570Y-5273213D01*
X74274760Y-5235118D01*
X74312856Y-5197022D01*
X74350951Y-5120832D01*
X74350951Y-4816070D01*
X74008094Y-5577975D02*
X73969999Y-5616070D01*
X73931903Y-5692260D01*
X73931903Y-5882737D01*
X73969999Y-5958927D01*
X74008094Y-5997022D01*
X74084284Y-6035118D01*
X74160475Y-6035118D01*
X74274760Y-5997022D01*
X74731903Y-5539879D01*
X74731903Y-6035118D01*
X74731903Y-6797022D02*
X74731903Y-6339879D01*
X74731903Y-6568451D02*
X73931903Y-6568451D01*
X74046189Y-6492260D01*
X74122379Y-6416070D01*
X74160475Y-6339879D01*
X67501902Y-64563213D02*
X67120950Y-64296546D01*
X67501902Y-64106070D02*
X66701902Y-64106070D01*
X66701902Y-64410832D01*
X66739998Y-64487022D01*
X66778093Y-64525118D01*
X66854283Y-64563213D01*
X66968569Y-64563213D01*
X67044759Y-64525118D01*
X67082855Y-64487022D01*
X67120950Y-64410832D01*
X67120950Y-64106070D01*
X66778093Y-64867975D02*
X66739998Y-64906070D01*
X66701902Y-64982260D01*
X66701902Y-65172737D01*
X66739998Y-65248927D01*
X66778093Y-65287022D01*
X66854283Y-65325118D01*
X66930474Y-65325118D01*
X67044759Y-65287022D01*
X67501902Y-64829879D01*
X67501902Y-65325118D01*
X66701902Y-65820356D02*
X66701902Y-65896546D01*
X66739998Y-65972737D01*
X66778093Y-66010832D01*
X66854283Y-66048927D01*
X67006664Y-66087022D01*
X67197140Y-66087022D01*
X67349521Y-66048927D01*
X67425712Y-66010832D01*
X67463807Y-65972737D01*
X67501902Y-65896546D01*
X67501902Y-65820356D01*
X67463807Y-65744165D01*
X67425712Y-65706070D01*
X67349521Y-65667975D01*
X67197140Y-65629879D01*
X67006664Y-65629879D01*
X66854283Y-65667975D01*
X66778093Y-65706070D01*
X66739998Y-65744165D01*
X66701902Y-65820356D01*
X62151898Y-45513212D02*
X61770946Y-45246545D01*
X62151898Y-45056069D02*
X61351898Y-45056069D01*
X61351898Y-45360831D01*
X61389994Y-45437021D01*
X61428089Y-45475117D01*
X61504279Y-45513212D01*
X61618565Y-45513212D01*
X61694755Y-45475117D01*
X61732851Y-45437021D01*
X61770946Y-45360831D01*
X61770946Y-45056069D01*
X62151898Y-46275117D02*
X62151898Y-45817974D01*
X62151898Y-46046545D02*
X61351898Y-46046545D01*
X61466184Y-45970355D01*
X61542374Y-45894164D01*
X61580470Y-45817974D01*
X62151898Y-46656069D02*
X62151898Y-46808450D01*
X62113803Y-46884640D01*
X62075708Y-46922736D01*
X61961422Y-46998926D01*
X61809041Y-47037021D01*
X61504279Y-47037021D01*
X61428089Y-46998926D01*
X61389994Y-46960831D01*
X61351898Y-46884640D01*
X61351898Y-46732259D01*
X61389994Y-46656069D01*
X61428089Y-46617974D01*
X61504279Y-46579878D01*
X61694755Y-46579878D01*
X61770946Y-46617974D01*
X61809041Y-46656069D01*
X61847136Y-46732259D01*
X61847136Y-46884640D01*
X61809041Y-46960831D01*
X61770946Y-46998926D01*
X61694755Y-47037021D01*
X61451897Y-26463210D02*
X61070945Y-26196543D01*
X61451897Y-26006067D02*
X60651897Y-26006067D01*
X60651897Y-26310829D01*
X60689993Y-26387019D01*
X60728088Y-26425115D01*
X60804278Y-26463210D01*
X60918564Y-26463210D01*
X60994754Y-26425115D01*
X61032850Y-26387019D01*
X61070945Y-26310829D01*
X61070945Y-26006067D01*
X61451897Y-27225115D02*
X61451897Y-26767972D01*
X61451897Y-26996543D02*
X60651897Y-26996543D01*
X60766183Y-26920353D01*
X60842373Y-26844162D01*
X60880469Y-26767972D01*
X60994754Y-27682257D02*
X60956659Y-27606067D01*
X60918564Y-27567972D01*
X60842373Y-27529876D01*
X60804278Y-27529876D01*
X60728088Y-27567972D01*
X60689993Y-27606067D01*
X60651897Y-27682257D01*
X60651897Y-27834638D01*
X60689993Y-27910829D01*
X60728088Y-27948924D01*
X60804278Y-27987019D01*
X60842373Y-27987019D01*
X60918564Y-27948924D01*
X60956659Y-27910829D01*
X60994754Y-27834638D01*
X60994754Y-27682257D01*
X61032850Y-27606067D01*
X61070945Y-27567972D01*
X61147135Y-27529876D01*
X61299516Y-27529876D01*
X61375707Y-27567972D01*
X61413802Y-27606067D01*
X61451897Y-27682257D01*
X61451897Y-27834638D01*
X61413802Y-27910829D01*
X61375707Y-27948924D01*
X61299516Y-27987019D01*
X61147135Y-27987019D01*
X61070945Y-27948924D01*
X61032850Y-27910829D01*
X60994754Y-27834638D01*
X56091901Y-7413213D02*
X55710949Y-7146546D01*
X56091901Y-6956070D02*
X55291901Y-6956070D01*
X55291901Y-7260832D01*
X55329997Y-7337022D01*
X55368092Y-7375118D01*
X55444282Y-7413213D01*
X55558568Y-7413213D01*
X55634758Y-7375118D01*
X55672854Y-7337022D01*
X55710949Y-7260832D01*
X55710949Y-6956070D01*
X56091901Y-8175118D02*
X56091901Y-7717975D01*
X56091901Y-7946546D02*
X55291901Y-7946546D01*
X55406187Y-7870356D01*
X55482377Y-7794165D01*
X55520473Y-7717975D01*
X55291901Y-8441784D02*
X55291901Y-8975118D01*
X56091901Y-8632260D01*
X29411899Y-83613214D02*
X29030947Y-83346547D01*
X29411899Y-83156071D02*
X28611899Y-83156071D01*
X28611899Y-83460833D01*
X28649995Y-83537023D01*
X28688090Y-83575119D01*
X28764280Y-83613214D01*
X28878566Y-83613214D01*
X28954756Y-83575119D01*
X28992852Y-83537023D01*
X29030947Y-83460833D01*
X29030947Y-83156071D01*
X29411899Y-84375119D02*
X29411899Y-83917976D01*
X29411899Y-84146547D02*
X28611899Y-84146547D01*
X28726185Y-84070357D01*
X28802375Y-83994166D01*
X28840471Y-83917976D01*
X28611899Y-85060833D02*
X28611899Y-84908452D01*
X28649995Y-84832261D01*
X28688090Y-84794166D01*
X28802375Y-84717976D01*
X28954756Y-84679880D01*
X29259518Y-84679880D01*
X29335709Y-84717976D01*
X29373804Y-84756071D01*
X29411899Y-84832261D01*
X29411899Y-84984642D01*
X29373804Y-85060833D01*
X29335709Y-85098928D01*
X29259518Y-85137023D01*
X29069042Y-85137023D01*
X28992852Y-85098928D01*
X28954756Y-85060833D01*
X28916661Y-84984642D01*
X28916661Y-84832261D01*
X28954756Y-84756071D01*
X28992852Y-84717976D01*
X29069042Y-84679880D01*
X36551901Y-64563214D02*
X36170949Y-64296547D01*
X36551901Y-64106071D02*
X35751901Y-64106071D01*
X35751901Y-64410833D01*
X35789997Y-64487023D01*
X35828092Y-64525119D01*
X35904282Y-64563214D01*
X36018568Y-64563214D01*
X36094758Y-64525119D01*
X36132854Y-64487023D01*
X36170949Y-64410833D01*
X36170949Y-64106071D01*
X36551901Y-65325119D02*
X36551901Y-64867976D01*
X36551901Y-65096547D02*
X35751901Y-65096547D01*
X35866187Y-65020357D01*
X35942377Y-64944166D01*
X35980473Y-64867976D01*
X35751901Y-66048928D02*
X35751901Y-65667976D01*
X36132854Y-65629880D01*
X36094758Y-65667976D01*
X36056663Y-65744166D01*
X36056663Y-65934642D01*
X36094758Y-66010833D01*
X36132854Y-66048928D01*
X36209044Y-66087023D01*
X36399520Y-66087023D01*
X36475711Y-66048928D01*
X36513806Y-66010833D01*
X36551901Y-65934642D01*
X36551901Y-65744166D01*
X36513806Y-65667976D01*
X36475711Y-65629880D01*
X35951899Y-45513215D02*
X35570947Y-45246548D01*
X35951899Y-45056072D02*
X35151899Y-45056072D01*
X35151899Y-45360834D01*
X35189995Y-45437024D01*
X35228090Y-45475120D01*
X35304280Y-45513215D01*
X35418566Y-45513215D01*
X35494756Y-45475120D01*
X35532852Y-45437024D01*
X35570947Y-45360834D01*
X35570947Y-45056072D01*
X35951899Y-46275120D02*
X35951899Y-45817977D01*
X35951899Y-46046548D02*
X35151899Y-46046548D01*
X35266185Y-45970358D01*
X35342375Y-45894167D01*
X35380471Y-45817977D01*
X35418566Y-46960834D02*
X35951899Y-46960834D01*
X35113804Y-46770358D02*
X35685233Y-46579881D01*
X35685233Y-47075120D01*
X37641900Y-26463215D02*
X37260948Y-26196548D01*
X37641900Y-26006072D02*
X36841900Y-26006072D01*
X36841900Y-26310834D01*
X36879996Y-26387024D01*
X36918091Y-26425120D01*
X36994281Y-26463215D01*
X37108567Y-26463215D01*
X37184757Y-26425120D01*
X37222853Y-26387024D01*
X37260948Y-26310834D01*
X37260948Y-26006072D01*
X37641900Y-27225120D02*
X37641900Y-26767977D01*
X37641900Y-26996548D02*
X36841900Y-26996548D01*
X36956186Y-26920358D01*
X37032376Y-26844167D01*
X37070472Y-26767977D01*
X36841900Y-27491786D02*
X36841900Y-27987024D01*
X37146662Y-27720358D01*
X37146662Y-27834643D01*
X37184757Y-27910834D01*
X37222853Y-27948929D01*
X37299043Y-27987024D01*
X37489519Y-27987024D01*
X37565710Y-27948929D01*
X37603805Y-27910834D01*
X37641900Y-27834643D01*
X37641900Y-27606072D01*
X37603805Y-27529881D01*
X37565710Y-27491786D01*
X37041904Y-7413214D02*
X36660952Y-7146547D01*
X37041904Y-6956071D02*
X36241904Y-6956071D01*
X36241904Y-7260833D01*
X36280000Y-7337023D01*
X36318095Y-7375119D01*
X36394285Y-7413214D01*
X36508571Y-7413214D01*
X36584761Y-7375119D01*
X36622857Y-7337023D01*
X36660952Y-7260833D01*
X36660952Y-6956071D01*
X37041904Y-8175119D02*
X37041904Y-7717976D01*
X37041904Y-7946547D02*
X36241904Y-7946547D01*
X36356190Y-7870357D01*
X36432380Y-7794166D01*
X36470476Y-7717976D01*
X36318095Y-8479880D02*
X36280000Y-8517976D01*
X36241904Y-8594166D01*
X36241904Y-8784642D01*
X36280000Y-8860833D01*
X36318095Y-8898928D01*
X36394285Y-8937023D01*
X36470476Y-8937023D01*
X36584761Y-8898928D01*
X37041904Y-8441785D01*
X37041904Y-8937023D01*
X5791900Y-43373214D02*
X5410948Y-43106547D01*
X5791900Y-42916071D02*
X4991900Y-42916071D01*
X4991900Y-43220833D01*
X5029996Y-43297023D01*
X5068091Y-43335119D01*
X5144281Y-43373214D01*
X5258567Y-43373214D01*
X5334757Y-43335119D01*
X5372853Y-43297023D01*
X5410948Y-43220833D01*
X5410948Y-42916071D01*
X5791900Y-44135119D02*
X5791900Y-43677976D01*
X5791900Y-43906547D02*
X4991900Y-43906547D01*
X5106186Y-43830357D01*
X5182376Y-43754166D01*
X5220472Y-43677976D01*
X5791900Y-44897023D02*
X5791900Y-44439880D01*
X5791900Y-44668452D02*
X4991900Y-44668452D01*
X5106186Y-44592261D01*
X5182376Y-44516071D01*
X5220472Y-44439880D01*
X9861898Y-24323215D02*
X9480946Y-24056548D01*
X9861898Y-23866072D02*
X9061898Y-23866072D01*
X9061898Y-24170834D01*
X9099994Y-24247024D01*
X9138089Y-24285120D01*
X9214279Y-24323215D01*
X9328565Y-24323215D01*
X9404755Y-24285120D01*
X9442851Y-24247024D01*
X9480946Y-24170834D01*
X9480946Y-23866072D01*
X9861898Y-25085120D02*
X9861898Y-24627977D01*
X9861898Y-24856548D02*
X9061898Y-24856548D01*
X9176184Y-24780358D01*
X9252374Y-24704167D01*
X9290470Y-24627977D01*
X9061898Y-25580358D02*
X9061898Y-25656548D01*
X9099994Y-25732739D01*
X9138089Y-25770834D01*
X9214279Y-25808929D01*
X9366660Y-25847024D01*
X9557136Y-25847024D01*
X9709517Y-25808929D01*
X9785708Y-25770834D01*
X9823803Y-25732739D01*
X9861898Y-25656548D01*
X9861898Y-25580358D01*
X9823803Y-25504167D01*
X9785708Y-25466072D01*
X9709517Y-25427977D01*
X9557136Y-25389881D01*
X9366660Y-25389881D01*
X9214279Y-25427977D01*
X9138089Y-25466072D01*
X9099994Y-25504167D01*
X9061898Y-25580358D01*
X13990647Y-5654162D02*
X13609695Y-5387496D01*
X13990647Y-5197019D02*
X13190647Y-5197019D01*
X13190647Y-5501781D01*
X13228743Y-5577972D01*
X13266838Y-5616067D01*
X13343028Y-5654162D01*
X13457314Y-5654162D01*
X13533504Y-5616067D01*
X13571600Y-5577972D01*
X13609695Y-5501781D01*
X13609695Y-5197019D01*
X13990647Y-6035115D02*
X13990647Y-6187496D01*
X13952552Y-6263686D01*
X13914457Y-6301781D01*
X13800171Y-6377972D01*
X13647790Y-6416067D01*
X13343028Y-6416067D01*
X13266838Y-6377972D01*
X13228743Y-6339876D01*
X13190647Y-6263686D01*
X13190647Y-6111305D01*
X13228743Y-6035115D01*
X13266838Y-5997019D01*
X13343028Y-5958924D01*
X13533504Y-5958924D01*
X13609695Y-5997019D01*
X13647790Y-6035115D01*
X13685885Y-6111305D01*
X13685885Y-6263686D01*
X13647790Y-6339876D01*
X13609695Y-6377972D01*
X13533504Y-6416067D01*
X155534579Y5463095D02*
X155801246Y5844047D01*
X155991722Y5463095D02*
X155991722Y6263095D01*
X155686960Y6263095D01*
X155610769Y6225000D01*
X155572674Y6186904D01*
X155534579Y6110714D01*
X155534579Y5996428D01*
X155572674Y5920238D01*
X155610769Y5882142D01*
X155686960Y5844047D01*
X155991722Y5844047D01*
X155267912Y6263095D02*
X154772674Y6263095D01*
X155039341Y5958333D01*
X154925055Y5958333D01*
X154848865Y5920238D01*
X154810769Y5882142D01*
X154772674Y5805952D01*
X154772674Y5615476D01*
X154810769Y5539285D01*
X154848865Y5501190D01*
X154925055Y5463095D01*
X155153626Y5463095D01*
X155229817Y5501190D01*
X155267912Y5539285D01*
X163472077Y5463095D02*
X163738744Y5844047D01*
X163929220Y5463095D02*
X163929220Y6263095D01*
X163624458Y6263095D01*
X163548267Y6225000D01*
X163510172Y6186904D01*
X163472077Y6110714D01*
X163472077Y5996428D01*
X163510172Y5920238D01*
X163548267Y5882142D01*
X163624458Y5844047D01*
X163929220Y5844047D01*
X163167315Y6186904D02*
X163129220Y6225000D01*
X163053029Y6263095D01*
X162862553Y6263095D01*
X162786363Y6225000D01*
X162748267Y6186904D01*
X162710172Y6110714D01*
X162710172Y6034523D01*
X162748267Y5920238D01*
X163205410Y5463095D01*
X162710172Y5463095D01*
X167776900Y3803631D02*
X167395948Y4070298D01*
X167776900Y4260774D02*
X166976900Y4260774D01*
X166976900Y3956012D01*
X167014996Y3879822D01*
X167053091Y3841727D01*
X167129281Y3803631D01*
X167243567Y3803631D01*
X167319757Y3841727D01*
X167357853Y3879822D01*
X167395948Y3956012D01*
X167395948Y4260774D01*
X167776900Y3041727D02*
X167776900Y3498870D01*
X167776900Y3270298D02*
X166976900Y3270298D01*
X167091186Y3346489D01*
X167167376Y3422679D01*
X167205472Y3498870D01*
X156370351Y2759166D02*
X156370351Y3025833D01*
X156789398Y3025833D02*
X155989398Y3025833D01*
X155989398Y2644880D01*
X156789398Y1921071D02*
X156789398Y2378214D01*
X156789398Y2149642D02*
X155989398Y2149642D01*
X156103684Y2225833D01*
X156179874Y2302023D01*
X156217970Y2378214D01*
X306961896Y-67408571D02*
X306161896Y-67408571D01*
X306161896Y-67599047D01*
X306199992Y-67713333D01*
X306276182Y-67789523D01*
X306352372Y-67827619D01*
X306504753Y-67865714D01*
X306619039Y-67865714D01*
X306771420Y-67827619D01*
X306847611Y-67789523D01*
X306923801Y-67713333D01*
X306961896Y-67599047D01*
X306961896Y-67408571D01*
X306161896Y-68132380D02*
X306161896Y-68627619D01*
X306466658Y-68360952D01*
X306466658Y-68475238D01*
X306504753Y-68551428D01*
X306542849Y-68589523D01*
X306619039Y-68627619D01*
X306809515Y-68627619D01*
X306885706Y-68589523D01*
X306923801Y-68551428D01*
X306961896Y-68475238D01*
X306961896Y-68246666D01*
X306923801Y-68170476D01*
X306885706Y-68132380D01*
X306161896Y-68894285D02*
X306161896Y-69427619D01*
X306961896Y-69084761D01*
X217634333Y-73642821D02*
X218416851Y-73476492D01*
X218377248Y-73290178D01*
X218316224Y-73186310D01*
X218225858Y-73127626D01*
X218143412Y-73106204D01*
X217986440Y-73100623D01*
X217874652Y-73124384D01*
X217733522Y-73193329D01*
X217666916Y-73246432D01*
X217608232Y-73336799D01*
X217594730Y-73456507D01*
X217634333Y-73642821D01*
X218183916Y-72747077D02*
X218213259Y-72701894D01*
X218234680Y-72619448D01*
X218195078Y-72433134D01*
X218141975Y-72366529D01*
X218096791Y-72337187D01*
X218014345Y-72315765D01*
X217939820Y-72331606D01*
X217835952Y-72392630D01*
X217483844Y-72934829D01*
X217380878Y-72450413D01*
X217732986Y-71908214D02*
X217786090Y-71974819D01*
X217831273Y-72004162D01*
X217913719Y-72025584D01*
X217950982Y-72017663D01*
X218017587Y-71964559D01*
X218046929Y-71919376D01*
X218068351Y-71836930D01*
X218036669Y-71687879D01*
X217983566Y-71621274D01*
X217938382Y-71591932D01*
X217855936Y-71570510D01*
X217818674Y-71578430D01*
X217752069Y-71631534D01*
X217722726Y-71676717D01*
X217701304Y-71759163D01*
X217732986Y-71908214D01*
X217711564Y-71990660D01*
X217682222Y-72035843D01*
X217615617Y-72088947D01*
X217466566Y-72120629D01*
X217384120Y-72099207D01*
X217338937Y-72069865D01*
X217285833Y-72003260D01*
X217254151Y-71854209D01*
X217275573Y-71771763D01*
X217304915Y-71726579D01*
X217371520Y-71673476D01*
X217520572Y-71641794D01*
X217603018Y-71663216D01*
X217648201Y-71692558D01*
X217701304Y-71759163D01*
X134256409Y-80657428D02*
X133473891Y-80491099D01*
X133434289Y-80677413D01*
X133447790Y-80797121D01*
X133506475Y-80887488D01*
X133573080Y-80940592D01*
X133714211Y-81009536D01*
X133825999Y-81033297D01*
X133982970Y-81027716D01*
X134065416Y-81006295D01*
X134155783Y-80947610D01*
X134216807Y-80843742D01*
X134256409Y-80657428D01*
X134002955Y-81849837D02*
X134098000Y-81402684D01*
X134050478Y-81626260D02*
X133267959Y-81459931D01*
X133395589Y-81409167D01*
X133485955Y-81350482D01*
X133539059Y-81283877D01*
X133460756Y-82201945D02*
X133439334Y-82119499D01*
X133409992Y-82074315D01*
X133343387Y-82021212D01*
X133306124Y-82013291D01*
X133223678Y-82034713D01*
X133178495Y-82064055D01*
X133125391Y-82130661D01*
X133093710Y-82279712D01*
X133115132Y-82362158D01*
X133144474Y-82407341D01*
X133211079Y-82460444D01*
X133248342Y-82468365D01*
X133330788Y-82446943D01*
X133375971Y-82417601D01*
X133429075Y-82350996D01*
X133460756Y-82201945D01*
X133513860Y-82135339D01*
X133559043Y-82105997D01*
X133641489Y-82084575D01*
X133790540Y-82116257D01*
X133857145Y-82169361D01*
X133886488Y-82214544D01*
X133907910Y-82296990D01*
X133876228Y-82446041D01*
X133823124Y-82512646D01*
X133777941Y-82541988D01*
X133695495Y-82563410D01*
X133546444Y-82531728D01*
X133479839Y-82478625D01*
X133450496Y-82433442D01*
X133429075Y-82350996D01*
X78276066Y-69147901D02*
X77493548Y-68981572D01*
X77453945Y-69167885D01*
X77467447Y-69287594D01*
X77526131Y-69377961D01*
X77592737Y-69431064D01*
X77733867Y-69500009D01*
X77845655Y-69523770D01*
X78002627Y-69518189D01*
X78085073Y-69496767D01*
X78175439Y-69438083D01*
X78236463Y-69334215D01*
X78276066Y-69147901D01*
X78101816Y-69967682D02*
X78070134Y-70116733D01*
X78017030Y-70183338D01*
X77971847Y-70212680D01*
X77844218Y-70263444D01*
X77687247Y-70269025D01*
X77389144Y-70205662D01*
X77322539Y-70152558D01*
X77293197Y-70107375D01*
X77271775Y-70024929D01*
X77303457Y-69875878D01*
X77356561Y-69809273D01*
X77401744Y-69779930D01*
X77484190Y-69758509D01*
X77670504Y-69798111D01*
X77737109Y-69851214D01*
X77766451Y-69896398D01*
X77787873Y-69978844D01*
X77756191Y-70127895D01*
X77703087Y-70194500D01*
X77657904Y-70223842D01*
X77575458Y-70245264D01*
M02*
